<?xml version="1.0" encoding="utf-8"?>
<!-- Generator: Adobe Illustrator 16.2.0, SVG Export Plug-In . SVG Version: 6.00 Build 0)  -->
<!DOCTYPE svg PUBLIC "-//W3C//DTD SVG 1.1//EN" "http://www.w3.org/Graphics/SVG/1.1/DTD/svg11.dtd">
<svg version="1.1" id="レイヤー_1" xmlns="http://www.w3.org/2000/svg" xmlns:xlink="http://www.w3.org/1999/xlink" x="0px"
	 y="0px" width="1000px" height="40px" viewBox="0 0 1000 40" enable-background="new 0 0 1000 40" xml:space="preserve">
<symbol  id="暗いベクトルパック_15" viewBox="-304.02 -100.476 608.04 200.952">
	<path d="M-190.693,97.215c0.762-1.671,1.362-2.97,1.536-5.472c0.129-0.981-1.231-0.472-1.278-1.275
		c1.001-0.134,0.252-2.017,1.701-1.703c0.209-3.42-1.158-7.242-1.274-9.784c2.337,2.576,2.312,5.038,2.977,8.935
		c-0.502-0.063-0.964-0.759-1.276,0c1.565,1.237,1.55,5.475,0.852,7.657c0.765,0.626,1.498,1.108,2.218,1.5
		c-0.877,1.079-1.627,2.219-2.279,3.403h-3.556c0.065-0.252,0.153-0.488,0.211-0.747C-190.665,98.852-190.615,98.008-190.693,97.215
		z M-249.567,79.831c1.958,0.541,2.062-0.774,2.978-1.275c0.867,3.798-0.768,5.735,0.852,8.934c1.018-0.258,1.94-0.612,3.403-0.425
		c0.471,1.088,0.795,2.324,1.701,2.977c0.068-0.5-0.073-1.206,0.426-1.276c0.005,0.704,1.18,0.238,1.276,0.853
		c-2.484,1.91-3.337,5.455-7.658,5.529c-0.3,1.211,0.019,1.804,0.565,2.168c-0.658,0.758-1.297,1.53-1.89,2.342
		c-0.781-2.621,0.457-4.81-1.653-6.211c1.349-2.555,0.242-9.064-2.554-10.21c1.835-1.667,0.973-5.016,2.128-7.233
		C-249.636,77.063-249.436,78.282-249.567,79.831z M-45.795,90.041c1.054-0.647,0.761-2.644,2.553-2.552
		c3.915,1.46,7.857,1.521,10.209-0.851c0.365,1.368,2.741,3.214,3.828,1.276c0.34,0.937,0.855,1.698,2.129,1.702
		c0.516-0.761,0.076-2.477,0.849-2.979c5.042-1.25,3.425-5.318,3.83-9.786c-2.729-0.884-1.262,2.425-3.83,1.703
		c-0.661,1.511,1.446,0.256,1.277,1.275c-3.722-0.028-5.064-1.82-6.382-4.254c-1.3-0.308-1.55,0.435-2.552,0.425
		c-0.245,0.749,0.515,2.5-0.425,2.554c-1.999-1.546-3.637-3.454-5.106-5.531c-1.431-0.269-3.101,1.398-3.828,0.427
		c-0.013-1.258,1.97-1.44,2.553-0.853c-0.182-2.371-0.972-4.131-2.553-5.104c2.903-0.493,1.814,3.007,4.68,2.553
		c0.072-0.638-0.152-1.57,0.425-1.703c-0.192,2.235,2.618,3.367,1.276,5.957c4.266-0.179,8.488,0.788,10.21,4.254
		c0.131-1.429-0.568-3.688,1.276-3.403c0.352,1.201-0.599,1.102-0.425,2.126c3.698-1.298,1.47-6.243,4.253-9.783
		c1.765,0.487,1.658-0.896,2.979-0.852c-0.306-1.255-0.486-2.634-1.277-3.402c1.505,0.746,2.193-1.43,2.554-0.427
		c0.077,0.929-0.349,1.354-1.276,1.276c1.993,4.158-1.321,6.424-2.979,9.786c1.694,1.967,4.731,5.275,2.554,8.508
		c0.891,2.227,4.996,1.242,5.104,4.254c-0.563,0.005-0.389,0.746-0.851,0.851c-1.115-0.438-3.441-0.824-3.403,0.851
		c1.462,0.187,2.384-0.167,3.403-0.425c1.059,1.494,3.501,1.604,4.254,3.403c0.509-0.425,1.309-0.558,2.138-0.662
		c0.157,1.058,0.28,2.116,0.375,3.183c-3.428,1.173-7.292,2.924-10.556,2.393c-4.081-0.667-7.84-2.862-11.748-4.128
		c-4.531-1.467-9.371-1.168-13.887,0.112c-1.418,0.403-2.511,1.096-3.309,1.961c-0.666-0.731-1.392-1.415-2.156-2.063
		c0.293,0.012,0.581,0.026,0.855,0.055c0.729-3.133-0.371-4.759-1.277-7.233C-48.234,86.24-47.807,88.933-45.795,90.041z
		 M42.264,90.041c0.841,0.027,1.393-0.839,2.128-0.851c1.46-0.021,3.957,1.788,4.681-0.851c-2.624-1.655,0.309-3.688-3.404-4.255
		c1.628-0.53,1.897,0.205,0.851-1.7c0.954,0.325,1.357-1.966,2.127-0.426c-0.172,0.821-1.947,0.038-1.276,1.701
		c1.987-0.229,5.672,0.163,6.807-2.553c0.892,1.233,2.648,2.419,1.702,4.254c0.748,0.245,2.499-0.514,2.552,0.428
		c-2.023,0.385-4.158,0.663-5.104,2.126c1.104-0.637,2.524-0.709,4.017-0.585c-1.354,1.063-2.289,2.689-2.381,4.88
		c-2.5,0.001-5.003,0.013-7.504,0.051c-2.038-1.554-4.61-2.257-7.164-1.596c-1.282,0.33-2.417,0.982-3.384,1.837
		c-0.45-1.021-0.972-2.009-1.575-2.953C37.787,88.951,39.027,89.94,42.264,90.041z M49.923,90.041c0.71,0,1.418,0,2.127,0
		c0.253-0.756-1.248-1.767,0-2.126c1.414,0.671-0.424,1.954,1.276,2.126c-0.68-2.015-1.49-3.897-2.979-5.104
		C48.653,85.96,50.396,87.798,49.923,90.041z M303.468,63.241c0.021,0.015,0.043,0.03,0.063,0.046
		c-1.86-0.259-3.665-0.29-5.413-0.117c-1.089-0.933-2.01-2.034-1.458-4.609c-2.473-0.93-3.138-3.667-4.679-5.53
		c0.544,0.023,0.588,0.546,1.275,0.426c-0.351-1.202,0.6-1.103,0.426-2.128c-1.15-1.207-1.682-4.326-3.402-2.553
		c0.177-3.58-1.653-5.153-3.83-6.381c-0.167,0.732,0.632,1.09,0,1.276c-2.49-6.469-11.694-7.506-8.083-16.59
		c-0.73-0.168-1.09,0.63-1.275,0c0.019-0.587-0.2-0.937-0.426-1.278c0.95-0.184,1.518-0.751,1.701-1.7
		c-2.728-0.108-3.943-1.729-4.254-4.255c-4.813-2.277-3.969-10.21-9.783-11.486c-1.048,0.504,0.87,1.607-0.427,2.127
		c0.662-1.512-1.444-0.257-1.276-1.275c1.801-2.854-2.889-6.426-3.828-9.36c-2.5,0.498-5.049-0.688-5.955-0.425
		c-0.729,0.872-3.14,2.869-4.681,4.254c-0.094,0.805,0.48,0.939,0.426,1.702c-0.993,0.14-1.758,0.511-2.553,0.851
		c-0.095,0.805,0.48,0.939,0.426,1.702c-0.775,0.642-2.385,0.451-2.978,1.276c0.262,0.59,1.638,0.063,1.702,0.851
		c-1.231,0.755-3.814,0.157-4.68,1.276c-0.526,1.377,1.376,0.325,0.851,1.702c-3.349,2.322-8.415,2.927-10.211,6.806V18.57
		c-4.359,1.172-8.364,2.695-11.06,5.532c0.775,1.311,2.385-0.854,2.979,0.425c-4.842,0.579-8.099,0.466-12.338,2.979
		c0.062-0.504,0.758-0.965,0-1.277c-0.378,1.04-0.991,1.845-0.852,3.403c0.992,0.365,1.833-1.487,2.128-0.425
		c-0.008,1.267-2.007,0.545-2.553,1.275c-0.841,6.224-3.227,10.61-2.978,16.166h-1.276c0.152,2.224-1.163,3.218,0.425,4.255
		c-0.319-1.451,1.625-1.659,1.702-0.426c-2.77,0.065-1.629,4.042-2.553,5.956c-0.924-1.015-1.747-2.601-0.85-4.254
		c-0.879-0.258-2.956,0.688-2.555-0.852c1.469-0.294,2.566,1.529,3.404,0c-1.791-1.881,0.275-5.886-0.424-9.358
		c3.006-0.983,1.739-7.225,3.401-10.635c-0.711-3.611-10.677-5.537-14.038-1.703c1.071,7.737-3.958,13.058-7.231,17.868
		c2.822,1.291,3.391,4.834,6.381,5.956c0.532-1.028,2.145-0.976,2.127-2.553c-1.388,0.111-1.229-1.323-2.127-1.702
		c2.455,0.469,2.302-1.669,4.679-1.275c0.713,0.706,0.338,2.497,0.427,3.829c-0.968,0.206-2.175,0.843-2.979,0
		c-0.702,1.14-1.803,1.883-2.552,2.978c-2.199-2.906-7.615-2.596-9.359-5.957c-6.543-1.677-11.645,2.394-14.889,3.829
		c1.229-2.883,4.121-4.103,6.806-5.529c-0.14-1.843,0.586-2.818,1.701-3.404c0.072,1.205,0.78,1.772,0.852,2.978
		c-0.565-0.552-1.583-0.561-1.703,0.427c2.844,1.024,7.541,0.544,10.637-1.277c1.348-5.091,5.203-9.749,5.531-14.463
		c0.543,0.021,0.588,0.545,1.275,0.425c-0.248-1.625,0.014-1.332-1.275-2.128c2.508-0.354,0.306-4.108,0.85-4.679
		c3.728,2.132,6.201-3.881,10.211-4.255c-0.248-2.801,0.149-4.954,1.7-5.955c-1.632-2.055-2.96-4.413-4.254-6.807
		c-4.306-0.442-5.51-2.977-7.657-4.68c2.468-0.983-3.1-5.244-5.104-4.68c0.795-0.48,2.048-0.504,1.7-2.128
		c-0.047-0.804-1.407-0.295-1.275-1.275c0.513-8.88-8.877-7.856-13.188-11.912c0.336-0.941,1.487-1.064,2.127-1.701
		c0.281-2.267-0.789-3.181-1.701-4.254c-0.787,0.375-3.131,1.37-3.829,0.425c4.46-2.888,5.42-9.675,8.935-12.338
		c0.647-4.504,0.921-8.093,2.128-10.211c0.093,0.332,0.01,0.84,0.424,0.854c0.126-0.867,0.853-1.134,1.276-1.702
		c-0.322-2.604-3.325-4.008-2.128-6.807c-3.053-1.568-2.492-6.221-3.403-8.934h-2.127c-1.818-4.584-10.148-2.551-11.486-7.233
		c-2.2,0.358-1.682-2.005-3.402-2.126c0.11,2.36-0.505,0.258-1.701,0.423c0.218,1.246-1.953,2.258-2.554,1.278
		c0.528-1.653,1.404-2.01,2.554-2.127c0.311-1.611-2.873-1.916-1.702-2.979c0.9,1.827,3.736,1.434,3.403,2.552
		c1.376,0.525,0.325-1.376,1.702-0.851c1.805,3.729,5.999,5.06,8.934,7.658c1.032-0.846-0.718-1.816,0.851-2.128
		c0.957,1.99,6.022,6.637,9.36,3.404c-4.862,6.77,6.259,10.882,3.827,17.441c0.468,2.511,4.149,1.808,6.381,2.553
		c-5.097-0.274-6.811,2.833-9.784,4.68c2.553,6.971-1.295,10.801-3.829,16.167c0.931,1.632,3.25,3.142,2.553,5.104
		c0.586,0.019,0.936-0.2,1.276-0.426c-0.833,0.796-0.131,1.559,0,2.554c3.26,0.709,2.501,5.438,6.808,5.104
		c-0.111-1.387,0.504-2.047,1.7-2.127c0.462,2.188,2.269,4.924,0.852,7.232c2.45-0.182,3.017,1.52,3.403,3.403
		c-0.478,0.043-0.662-0.618-0.852,0c1.734,1.573,2.525,5.725,5.105,5.105c1.225,4.021,4.982,5.512,8.084,7.657
		c1.936-1.201,5.612-2.697,7.655-1.276c4.226-4.14,11.715-8.063,17.018-5.53c-11.83-0.202-15.101,8.155-23.823,11.061
		c-0.604,1.666-0.816,3.722-3.404,3.402c-0.006,2.516-3.64,8.095,2.555,8.511c0.78-1.063,1.172-2.516,2.978-2.554
		c4.324,2.017,8.712-3.171,11.911-5.104c-0.521-0.049-1.008-0.128-0.852-0.853c4.342,0.87,9.098-3.494,11.061-7.656
		c-0.501-0.066-1.206,0.072-1.275-0.426c0.658-0.758,1.168-1.666,1.701-2.552c0.362,0.631,1.071,0.914,2.127,0.851
		c0.588-1.944,1.362-1.666,3.403-2.553c-0.336-4.064,0.139-7.165-1.277-10.636c1.575,1.98,1.77-0.585,2.979-1.276
		c-0.655,2.615-0.878,7.022,2.127,7.233c1.348-1.921,2.409-5.892,5.957-6.808c1.198-5.812,0.257-9.411-2.979-13.188
		c-1.31-0.317-0.518,1.467-2.127,0.851c0.597-2.723-2.165-2.088-2.552-3.829c-3.925,1.996-9.033-0.785-13.613,1.702
		c-0.065-0.5,0.073-1.207-0.426-1.276c-0.799,0.811,0.253,0.77,0,2.128c-1.055-0.554-2.064,0.949-2.127,0
		c2.745-2.497,1.443-6.801,1.702-10.21c-2.433,1.539-2.448-1.383-4.254-1.702c-1.54,0.04-2.576,2.787-3.829,1.702
		c1.872-1.674,3.697-3.394,5.104-5.532c-0.929-0.063-0.913-1.071-0.85-2.126c-1.067-0.919-3.105-0.865-3.829-2.128
		c1.089-0.46,2.028,1.293,2.552,0c-0.621-0.371-1.646-0.338-1.275-1.7c0.544,0.023,0.589,0.545,1.275,0.425
		c0.658-1.941-0.335-1.8-0.425-3.828c-2.03-0.33-2.738,0.665-4.679,0.424c-0.06,0.793-0.281,1.422-0.853,1.704
		c-1.494-1.411-2.664,0.709-4.678,1.275c-6.58,1.851-15.756,2.868-21.697,2.553c7.558-1.258,17.551-2.556,24.675-5.532
		c0.071-0.637-0.152-1.57,0.425-1.7c2.59,0.729,3.908-1.925,7.231-1.703c0.432-1.413,0.047-3.639,1.702-3.829
		c-0.023,0.545-0.545,0.591-0.425,1.278c1.01-0.268,1.979-0.573,2.126-1.704c-0.636-0.071-1.569,0.154-1.701-0.424
		c0.497-0.636,0.529-1.739,1.276-2.126c0.791,1.053,0.439,3.246,1.274,4.254c0.561-1.143,1.144-2.262,1.703-3.404
		c-0.542-1.087-2.084,0.394-2.127-0.426c0.729-0.548,1.673-0.879,1.701-2.128c-1.032-0.81-2.789-0.896-2.977-2.55
		c1.969,0.155,2.622,1.629,4.254,2.126c0.181-2.121,0.912,0.169,1.275,0.424c1.528-1.828,1.156-1.376,0-2.55
		c1.29-0.634,3.231-3.621,5.104-5.958c0.356,2.423,3.262-0.214,4.681,1.275c-1.036,0.809-3.56,0.129-4.681,0.853
		c-0.381,1.746-1.001,3.251-2.977,3.404c0.473,3.166-2.479,2.909-3.403,4.68c-0.041-0.671,0.057-1.477-0.852-1.278
		c-1.063,1.591,1.195,2.883,2.552,3.404c-1.048,0.055-2.049,0.063-2.552-0.426c0.175,1.025-0.777,0.925-0.426,2.128
		c1.201,0.077,1.065-1.677,1.701,0c-1.79-0.657-0.067,2.201-1.275,2.126c-0.734-1.082,0.647-1.649-0.851-1.7
		c-0.869,1.589-0.774-0.271-2.552,0c-0.632,1.07-2.141,1.263-1.702,3.401c2.253,0.128,2.743-1.511,4.254-2.126
		c-2.673,2.688,1.973,2.333,2.126,4.679c2.825-0.271,4.717,0.389,6.382,1.275c-0.479,0.092-0.662,0.474-0.851,0.854
		c2.285-0.506,2.046,0.217,3.829,0.85c0.282-1.721,1.277-0.745,2.127-1.275c0.799-0.813-0.252-0.771,0-2.128
		c0.81,0.183,1.068,0.916,2.127,0.85c0.107-2.11-1.277-0.743-1.276-2.126c1.319-0.045,1.214,1.338,2.977,0.85
		c-0.537-2.382,2.263-1.427,3.405-2.128c-0.328-1.601,0.518-2.033,0.424-3.401c2.45-0.104,3.197-1.908,4.255-3.404
		c3.807,0.547,3.782-2.74,5.105-4.678c-0.023-0.546-0.545-0.591-0.426-1.278c-0.882-0.251-2.794,0.525-2.978-0.426
		c0.953-0.747,2.096-1.309,3.403-1.7c-1.41-0.417,0.475-0.842,0.425-1.278c-0.891-1.459-1.6,0.206-2.127-0.426
		c0.066-0.5-0.074-1.207,0.426-1.275c5.838,1.121,0.733-4.784,2.978-8.083c-0.005-0.562-0.745-0.389-0.851-0.85
		c2.733-0.962-0.604-3.125,1.275-5.531c-1.066-0.563-1.033,1.981-1.701,0.426c1.771-1.798,2.879-5.97,2.978-8.082
		c1.349-1.118,2.162,1.569,2.978-0.426c-3.447-0.67-0.92-2.388-0.424-4.679c-0.006,0.029-0.899-0.675-0.853-1.278
		c0.065-0.816,0.262-1.38,0.52-1.806c1.65,0.07,3.372-0.18,5.119-0.646c2.293,1.941,0.297,5.914,1.17,8.409
		c0.417-0.966,2.129-1.054,2.126,0.426c-1.626-0.066-3.098,0.021-3.829,0.85c1.43-0.435,0.663,1.325,0.851,2.128
		c-1.802-0.1-0.75,2.652-2.553,2.551c2.797,6.12-1.667,11.929-0.424,15.742c0.266-1.012,0.572-1.982,1.702-2.126
		c-2.088,2.742-0.816,7.026-0.428,9.783c1.35-3.194,3.136,1.559,5.105,1.702c4.827-2.859,10.789-4.746,14.89-5.53
		c-0.006,0.703-1.18,0.237-1.275,0.85c2.17,0.328,1.817,0.214,2.978-0.85c2.569,3.119,8.827,2.862,13.614,2.979
		c-0.591,0.259-0.065,1.637-0.854,1.7c-0.604,0.021-0.72-0.858-1.273-0.851c-3.019,0.051-8.048,0.025-9.785,0.426
		c-3.167-0.712-6.865-1.925-9.786-1.275c-3.623,0.802-3.871,3.802-5.955,5.529c-2.031-2.19-6.611-0.124-9.358,1.276
		c-0.897,1.328-3.645,6.641,0.426,7.658c2.699-1.701,6.506-4.551,8.507-5.53c-2.327,3.634-8.208,4.217-6.381,9.784
		c-0.741-0.033-1.322,0.095-1.702,0.426c-0.008,1.003,0.734,1.253,0.427,2.552c1.71,0.685,3.112-1.096,3.402-0.424
		c-1.485,4.033-3.892,12.142-1.701,17.866c-1.789-0.195-0.562-3.408-2.128-3.829c-0.733,0.259,0.033,2.017-0.85,2.127
		c-1.119,0.127-0.335-1.651-1.701-1.276c-4.718,3.008-1.212,10.087,2.551,11.911c-2.114,1.098,0.059,5.327,0,5.531
		c-1.085,0.466-2.188-1.453-2.127,0.425c0.917,0.785,3.01,0.395,2.554,2.553c-0.607-0.102-0.718-0.7-1.276-0.851
		c0.58,2.21,3.107,3.726,4.255,2.978c-1.144,2.731-0.489,5.356-0.428,6.382c4.803,1.297,4.114,8.083,8.935,9.358
		c-2.222,1.779,3.853,5.934,6.381,2.979c-0.126,2.538,1.545,3.275,1.703,5.53c-0.544,0.024-0.589,0.546-1.277,0.426
		c0.954-2.709-1.514-5.469-4.255-4.255c0.582,1.249,1.155,1.441,0,2.554c1,0.135,1.598,0.671,2.979,0.425
		c2.507,3.766,5.987,3.791,5.955,8.508c-2.367-0.666-0.464,2.939-2.126,2.979c0.664,1.318,2.106,1.863,1.701,4.254
		c0.637,0.071,1.569-0.153,1.701,0.426c0.382,3.729,2.941,5.282,5.529,6.805c-2.111,1.109,3.689,3.585,2.128,5.531
		c-1.472-0.654-0.925-3.33-2.979-3.404c0.683,2.724,2.482,4.325,3.831,6.382C296.881,59.963,306.352,57.742,303.468,63.241z
		 M229.871-29.501c1.836,0.008,1.481,2.207,3.403,2.127C233.257-28.935,230.838-30.299,229.871-29.501z M255.821-53.324
		c-1.679-0.544-1.029,1.239-2.127,1.276c-0.071-0.496-0.672-0.463-1.276-0.425C252.521-50.725,256.132-51.92,255.821-53.324z
		 M261.776-42.265c-0.519-0.046-1.007-0.126-0.851-0.85c-0.969-0.118-1.6,0.103-1.701,0.85
		C259.97-42.38,261.347-41.064,261.776-42.265z M264.33-11.208c-1.522-0.605-3.04-1.215-5.105-1.276
		c-0.039-1.161,0.709-0.855,0-1.701c-1.778,0.096-2.01-0.691-3.403,0c0.309,0.968,0.379,2.173,0.852,2.978
		c2.437,0.001,2.823,0.582,3.828-0.851c0.393,1.154,0.677,2.005-0.426,2.553C262.07-9.496,264.271-9.282,264.33-11.208z
		 M272.413,13.042c0.451,1.585-1.597,0.673-1.276,2.126c0.936,0.258,3.17,1.068,3.402-0.425
		C272.592,15.415,273.752,12.977,272.413,13.042z M162.231,66.645c1.721-1.772-1.272-1.229-1.277-2.555
		c1.697-0.42,1.281,1.272,2.978,0.853c1.748-1.232,3.57-2.386,5.104-3.829c-1.41,2.985-4.878,3.913-6.805,6.382
		c0.785,0.063,0.261,1.44,0.851,1.7c1.582,0.448,0.833-1.434,1.7-1.7c1.905,1.024,1.847,1.486,3.405,1.276
		c-1.063,1.347-2.947,1.875-3.405,3.827c1.927-0.521,2.833-3.238,5.106-2.126c1.043-0.566-0.768-1.283,0.425-1.701
		c-0.172,2.298,3.03,1.223,4.255,2.126c-0.567,1.042-1.583-0.467-1.703,0.426c0.985,0.576,1.41,1.709,3.404,1.275
		c0.19,2.129,1.966,2.274,0.851,4.68c1.113-0.227,3.182,2.045,3.404,0c-0.758-0.801-2.807-0.313-2.554-2.126
		c1.92-0.232,5.696,2.73,8.935,1.275c0.379-0.17,0.346-1.131,0.851-1.275c2.554-0.736,7.536-0.367,5.104-2.554
		c1.089-0.46,2.028,1.294,2.552,0c-0.407-3.212-2.214-5.498-4.253-8.081h1.701c0.823-4.191-2.303-5.679-2.552-8.084
		c2.463,2.091,5.733,4.88,2.978,8.934c1.122,1.929,3.655,3.985,3.403,5.956c1.026,0.829,3.209,1.828,2.977,0.425
		c0.64,0.537,1.28,1.737,2.128,0.851c1.501-0.125-1.501-1.15,0-1.275c0.819,0.172,0.337,1.649,1.701,1.275
		c-0.877-1.58,0.609-1.112,0.427-2.977c-0.637-0.073-1.57,0.151-1.701-0.427c1.024,0.174,0.924-0.775,2.127-0.424
		c0.094,0.33,0.011,0.839,0.424,0.851c-0.306-3.013-3.668-1.003-5.53-0.851c0.591-0.262,0.064-1.638,0.852-1.702
		c1.968,1.218,6.062-1.885,9.784-0.425c0.514-2.358-2.091-1.598-2.553-2.979c0.667-0.183,0.363-1.339,1.702-0.851
		c-0.205,1.338,0.605,1.663,0.851,2.552c1.308-0.111,1.913-0.923,2.978-1.277c0.32-1.452-1.729-0.539-1.276-2.126
		c0.207-0.503,0.453-0.965,0.852-1.275c0.59,0.261,0.063,1.637,0.85,1.702c0.733-1.74,0.948-3.279,0-4.682
		c2.298-0.765,6.262-3.636,4.255-5.955c4.757-4.035,6.527-11.056,8.509-17.867c-1.336,0.202-1.738-0.53-2.127-1.276
		c1.842-0.711,2.441-2.662,3.402-4.254c0.462,1.089-1.293,2.028,0,2.553c0.619-0.66,1.659-0.894,2.978-0.852
		c0.677,1.169,0.602,3.087,1.276,4.254c-0.607,0.104-0.717,0.7-1.276,0.851c-1.369,0.094-1.798-0.752-3.402-0.424
		c0.168,4.057-3.751,7.397-2.127,10.208c-1.221,1.566-3.693,3.841-2.553,6.382c-4.915,2.649-0.41,10.739-2.127,15.316
		c2.146,0.324,0.111,2.628-0.426,2.978c1.468,1.325-1.56,5.91,0.426,6.38c0.585-0.696-0.057-2.191,1.276-2.978
		c0.297,2.053,1.937-0.542,2.127,0.425c-0.072,1.211-1.539,0.598-2.127,2.128c1.272,1.067,2.719,1.688,4.278,2.05
		c-1.667,1.017-3.301,2.08-4.896,3.195c-0.067-0.046-0.139-0.092-0.232-0.14c0,0.104-0.068,0.208-0.152,0.253
		c-0.08-0.046-0.161-0.093-0.241-0.141c-0.013-0.031-0.024-0.066-0.032-0.112c0.26-0.025,0.504-0.063,0.426-0.427
		c-0.354,0.116-0.929,0.01-1.444-0.037c-2.271-1.196-4.66-2.1-7.306-2.257c-5.353-0.317-10.621,2.148-15.493,4.207
		c-1.504-0.158-3.015-0.283-4.535-0.354c-0.208-1.393-1.575-3.046-1.001-1.133c0.664-0.567,0.358,0.202,0.125,1.1
		c-4.498-0.163-9.041,0.012-13.547,0.395c-0.137-1.749-0.52-3.507-1.257-5.3c-2.104-5.115-7.282-6.572-11.653-3.075
		c-4.742,3.796-9.904,7.72-12.801,13.109c-0.178,0.071-0.351,0.153-0.526,0.225c-2.805-0.709-6.058,0.146-7.752,2.576
		c-0.051,0.003-0.1,0.007-0.15,0.008c-1.184-1.948-2.519-3.813-4.072-5.567c0.554-0.525,1.055-1.107,1.435-1.768
		c-1.007,0.03-1.966,0.113-2.872,0.246c-0.191-0.191-0.385-0.384-0.584-0.573c1.014-0.53,1.809-1.355,2.18-2.651v2.128
		c1.978,0.248,2.569-0.582,3.828,0c-0.381,0.751-1.025,1.242-1.274,2.126c0.752,0.789,1.241-0.184,2.127-0.425
		c0.516,0.759,0.077,2.475,0.851,2.977c-0.304-1.154,2.006,0.307,1.701-0.851c-0.313-0.677-2.081,0.098-1.701-1.276
		c-0.256-1.282,2.76-1.448,1.275-2.551c-0.236,0.612-0.663,1.038-1.275,1.276c0.129-0.982-1.229-0.475-1.276-1.276
		c5.058-0.219,4.016-4.312,3.404-6.382c0.261,0.59,1.637,0.063,1.7,0.85c0.709,0.846-0.038,0.542,0,1.703
		c0.418,0.901,2.845-0.748,1.701-1.277c-1.066,0.778-1.454-0.767-0.424-1.701h-2.553c-0.039-1.59-0.478-1.212,0-2.553
		c-2.446,0.841-5.776,0.573-8.084,0.425c1.891-1.032,3.595-0.583,5.957-0.425c1.207-1.531,0.099-3.247,0.85-4.679
		c0.923-0.072,0.194,1.508,0.426,2.127c1.161,0.31,0.856-0.846,1.701-0.851c-0.035-2.704-2.376-0.971-2.552-2.979
		c1.024-0.175,0.925,0.776,2.128,0.426c-0.93-5.676,0.612-10.456,2.127-16.592c0.675,3.081-0.261,5.485,0.424,8.082
		c-0.544-0.022-0.588-0.545-1.275-0.425c0.573,3.08,0.916,5.971-0.426,8.935c0.297,1.12,1.938,0.898,2.128,2.127
		c-1.801-1.587-1.938,1.212-2.554,2.127c-0.396-0.262-1.569-0.99-1.274,0.425c1.968,0.442,2.632,2.188,3.828,3.404
		c-0.745-2.161,0.282-0.008,0.425-1.703c-0.131-1.685-1.478,0.476-1.275-1.275c2.167,0.526,4.026,1.362,5.955,2.126
		c-1.564-0.768-2.639-5.769-0.623-6.003c0.174,0.05,0.379,0.068,0.623,0.049c-0.238-0.065-0.439-0.069-0.623-0.049
		c-0.489-0.138-0.71-0.544-0.653-1.228c1.025,1.067,1.591,0.868,2.127-0.426C158.033,68.047,160.743,63.573,162.231,66.645z
		 M114.584,81.106c0.116,0.879,1.885,0.104,1.703,1.278c-0.976,0.23-0.97,1.259-0.781,2.16c-1.062-0.05-2.157-0.055-3.273-0.022
		C112.849,83.218,113.339,81.785,114.584,81.106z M33.33,33.886c1.811,0.393,0.029-2.808,1.703-2.551
		c-0.537,2.521,0.645,3.325,1.701,4.254c-2.197,2.452,3.313,6.5,4.679,6.806c0.717-1.3-2.493-2.313-2.127-4.68
		c-1.602,0.221-1.937,0.537-2.552-0.851c5.236,0.163,4.964,7.589,10.635,5.956c0.708-1.336-1.581-1.739-0.424-2.127
		c3.396,1.945,4.374,5.586,8.083,6.807c4.528,1.491,11.523-1.777,17.441,1.276c3.352-4.671-1.009-10.369-2.128-13.188
		c-0.645-1.628-0.369-3.438-0.851-4.254c-1.359-2.305-6.554-3.574-3.403-6.383c-2.03,0.33-1.665-1.737-1.702-3.404
		c-2.585-1.384-3.373-4.566-4.254-7.655c-3.66,0.115-5.281-1.809-6.806-3.829c2.142,2.08,5.342,0.61,6.806,1.701
		c-0.928-0.077-1.353,0.349-1.276,1.276c7.604,2.181,9.522,10.048,12.764,16.591c4.726,0.804,3.077,7.983,6.806,9.784
		c4.318-3.443,10.265,3.984,12.763-1.276c4.475,0.608,10.932-0.445,14.463-1.275c-0.907,1.93-4.522,1.149-5.105,3.404
		c-8.229-0.716-11.6,3.43-16.591,5.954c-0.593,1.224,1.16,2.161,0,2.554c-1.352-2.436-3.519,1.159-4.679,1.702
		c-0.117,3.012,0.759,4.637-0.851,6.381c1.968,0.321,0.144,3.303,0,4.255c0.732,0.167,1.091-0.632,1.276,0
		c-0.581,1.457-1.896,4.267-0.39,4.294c-0.971,0.303-0.251,2.299-0.887,2.937c3.658-0.007,1.091,3.67,2.128,6.382
		c0.882,0.254,2.793-0.525,2.978,0.426c-0.362,0.632-1.072,0.914-2.127,0.85c0.337,1.471-0.475,1.796-0.851,2.554
		c0.927-0.077,1.354,0.348,1.274,1.275c-0.26,0.589-1.637,0.065-1.701,0.852c0.501,0.065,1.207-0.072,1.277,0.425
		c-0.048,0.804-1.407,0.296-1.277,1.277c1.532,1.104,0.25,2.67,0.852,4.254c0.66,0.614,1.984,0.567,2.553,1.276
		c-0.668,0.04-1.476-0.058-1.277,0.85c0.184,0.951,2.098,0.174,2.979,0.426c0.363-1.355-0.371-1.613-0.852-2.126
		c0.428,0,0.506-0.346,0.852-0.426c2.56,1.047,5.973,3.854,8.509,1.276c-0.038-1.589-0.478-1.213,0-2.554
		c-0.995-0.566-2.398-0.722-3.404-1.276c0.735-0.258-0.033-2.017,0.852-2.126c2.158,0.377,5.307,0.418,6.807,3.402
		c2.085-0.618,2.688-0.137,3.628,0.72c-4.299,1.175-8.385,3.037-11.638,5.68c-3.752,0.146-7.506,0.283-11.265,0.37
		c-3.283,0.075-6.565,0.096-9.849,0.1c-0.049-1.252-0.366-2.324-0.889-3.209c0.439-0.032,0.825-0.191,1.083-0.682
		c-0.668-0.041-1.475,0.058-1.276-0.851c1.301-0.309,1.251,0.733,2.553,0.426c0.007-1.129-0.236-2.505,0.852-2.554
		c-0.524,1.204-0.524,2.628,0,3.829c1.973-0.153,1.219-3.034,2.552-3.829c1.357-0.363,1.615,0.371,2.126,0.851
		c-0.12-0.75,2.004-1.315,0.853-1.701c-0.945,0.24-0.741-3.599-2.979-4.255c-0.131,1.005-1.477,0.792-1.275,2.129
		c1.344-0.069,2.566-0.016,2.978,0.851c-1.698,0.714-2.344,2.477-3.828,3.403c0.13-1.004,1.477-0.792,1.276-2.128
		c-2.013,0.169-3.552-0.137-5.106-0.426c-0.589,0.688-0.359,2.195-1.276,2.554c-0.25-0.084-0.527,0.022-0.801,0.16
		c-0.297-0.172-0.609-0.316-0.93-0.442c2.537-1.775,4.126-4.496,5.983-6.95c1.021-0.168-0.233,1.938,1.277,1.276
		c0.767-2.271,3.522-6.704,0.853-8.51c0.429,1.28-0.948,0.754-1.702,0.852c1.702-1.288-0.299-2.798-1.702-3.402
		c1.339-0.478,0.963-0.04,2.552,0c-0.053-1.614,1.927-1.194,2.127-2.553c-0.115-1.493-1.584,1.067-1.7-0.425
		c0.097-4.1-0.132-8.979,1.275-12.764c-2.393-0.301-1.985-3.402-3.828-4.254c-1.198,0.638,1.078,1.791,0,2.127
		c-6.949-0.013-14.677,0.277-18.294-2.553c0.053,1.065,0.814,1.332-0.425,1.702c-1.792-0.982-3.773-2.298-5.53-2.127
		c1.757-1.366-0.354-3.103-0.85-4.68c-3.785-0.186-6.466-1.476-7.658-4.254h-2.553c0.134-0.575,0.605-0.813,0.426-1.703
		c-0.758-0.254-1.768,1.247-2.127,0C34.424,37.459,34.439,35.048,33.33,33.886z M97.994,86.639c0.121-1.682-3.1-1.682-2.979,0
		H97.994z M102.248,79.406c-1.16,0.31-0.856-0.846-1.701-0.851c-0.049,0.519-0.128,1.008-0.852,0.851
		c0.457-3.236-6.234-3.27-4.68-7.658c-1.265-1.004-4.032-0.504-5.53-1.275c0.371-0.623,0.637-1.35,1.702-1.277
		c7.471,3.969,15.32-1.296,20.845,3.829c-4.454-1.847-6.919-0.865-11.911-0.426c2.181,0.471-0.644,2.449,0,4.68
		c0.712,0.565,1.426,1.128,2.978,0.853v2.126c1.619,0.226,2.443,1.244,3.829,1.702c0.661-1.512-1.444-0.257-1.277-1.276
		c0.503-1.047,1.607,0.872,2.127-0.426c-0.272-0.753-2.408-1.8-1.273-2.552c0.981,1.426,2.459,2.359,3.827,3.401
		c-0.805,0.096-0.938-0.479-1.703-0.424c-0.309,1.161,0.848,0.856,0.852,1.702c0.954,0.325,1.356-1.966,2.127-0.426
		c0.525,1.376-1.377,0.325-0.852,1.701c0.288,0.301,0.585,0.589,0.882,0.88c-2.568,0.108-5.236,0.445-7.866,1.021
		c0.491-0.629,0.922-1.313,1.88-1.475c-0.929-0.063-0.913-1.071-0.851-2.127c-0.618,0.232-2.198-0.498-2.127,0.426
		c0.568,1.397-0.123,0.706,1.277,1.275c-0.868,0.268-0.12,2.15-1.702,1.701c-0.435-0.414-0.861-0.84-1.276-1.275
		C102.068,83.195,102.53,81.674,102.248,79.406z M150.318-0.572c0.52-0.049,1.008-0.127,0.852-0.851
		c-2.476-0.786-3.972-2.552-6.381-3.404c0.875-0.118,0.851-1.136,1.275-1.701c-1.291-2.997-4.059-5.098-6.807-7.657
		c1.358-0.253,1.317,0.799,2.128,0c-0.408-1.087-0.854-2.954,0.426-3.403c-2.94-0.091-9.148-2.297-13.613,0.425
		c-3.115-1.706-5.805-3.838-8.509-5.955c-0.338,2.216-1.337,3.768-3.402,4.254c-0.751,5.816-2.342,11.831-0.427,16.166
		c-2.022,6.756,0.386,14.761,2.127,20.419h-1.275c-0.136,0.986,0.067,1.634,0.426,2.128c1.337,0.487,1.033-0.668,1.701-0.851
		c2.028,1.508,4.814,6.347,4.255,7.658c-1.423-1.982-1.884-4.924-4.255-5.957c1.03,2.524,2.258,4.858,0.851,7.658
		c2.139,5.555,9.476,6.203,16.167,5.104c0.122-1.406,1.215-3.251,0.424-4.255c2.389-0.872,4.666-1.858,5.531-4.253
		c0.637,0.073,1.569-0.152,1.701,0.424c-1.872,2.243-7.905,4.379-5.955,7.658c-2.689,2.684-1.336,8.268,1.276,10.636
		c-0.608-0.102-0.718-0.701-1.276-0.851c1.726,3.519,3.354,7.14,6.806,8.934c-6.253-0.979-6.058-8.405-10.211-11.485v-1.703
		c-1.828-1.856-5.834-1.538-6.805-4.254h-5.53c0.066,1.65,2.251,3.398,1.276,4.682c-0.764-2.783-3.249-3.844-3.828-6.808
		c-2.398-1.029-5.839,0.619-7.659,2.553c-1.428-5.937-9.362-2.631-11.911-1.277c3.83-3.12,9.335-4.563,14.038-6.806
		c-1.049-2.991-0.9-5.608,0.851-7.658c-3.246-1.073,0.813-3.74-0.424-5.104c0.309,0.694-0.847,1.851-0.851,0.851
		c1.425-2.748,1.065-5.044,0.851-8.934c-3.805,0.4-1.552-5.255-4.255-5.956c0.396-0.454,1.568-0.133,1.277-1.276h-2.127
		c-0.968-2.077-0.952-3.872,0.85-5.105c0.981,1.204,1.748,0.419,2.977,1.701c0.354-2.196-2.069-1.616-2.127-3.402
		c2.243,1.01,0.386-2.557,2.127-3.403c-0.757-0.255-1.765,1.247-2.127,0c0.504-0.49,1.505-0.482,2.555-0.426
		c-0.908-7.005,3.65-8.824,5.956-13.189c-1.905-2.491-5.325-3.466-5.956-7.229c-1.294,0.017-2.801,0.246-2.555-1.277
		c1.065,0.053,1.333,0.813,1.702-0.426c-2.456-0.817-3.223,1.012-4.679,0.426c0.476-2.501,1.84-4.114,3.404-5.53
		c-0.123-1.154-0.549-2.005-1.277-2.551c0.805-0.096,0.939,0.479,1.701,0.424c0.533-3.155,0.269-7.106,0.851-10.21
		c-1.62-0.934-2.908-2.196-4.679-2.978c0.732,0.022,1.09-0.328,1.277-0.853c-0.79-1.272-1.059-1.45-2.128-1.7
		c1.278,0.43,0.753-0.947,0.851-1.701c-2.459-1.865-6.195-2.652-9.359-1.702c0.351,2.129,0.286,2.551-1.275,3.403
		c1.635,6.538-4.941,8.329-6.382,13.188c0.546,1.103,2.544-0.327,2.553,0.424c-0.021,0.638-1.66,2.426,0,2.128
		c0.896-0.819,2.803-2.214,1.612-2.503c3.106,0.45,7.016,0.282,7.746-3.453c-0.22,1.083-0.726,1.65,0.851,1.702
		c-0.159-1.861,1.358-2.045,2.554-2.553c0.537,1.674-1.005,1.266-2.127,1.275c-0.522,1.941,1.491,1.346,1.7,2.554
		c-1.928-0.638-2.243,0.967-5.104,0.426c-2.719,2.97-6.27,8.628-11.061,6.805c-0.73,0.548-0.01,2.545-1.277,2.556
		c-0.819-1.816-4.484,1.834-2.552,2.977c-1.76,0.342-1.292-1.546-2.978-1.275c-2.952,3.71-7.589,5.738-11.486,8.506
		c-0.058,1.05-0.066,2.052,0.425,2.554c-0.565-0.552-1.583-0.561-1.701,0.424c0.633,0.504,1.901,0.37,1.701,1.704
		c-7.063,1.508-6.021,10.172,0,11.911c-2.117-0.276-1.811-0.207-3.402,0.425c-3.734-6.401-18.951-3.69-20.847,4.68
		c-3.328,1.268-5.095,7.959-6.806,12.763c-1.159,3.256-2.385,4.71-2.128,8.934c2.561,1.166,1.326,4.481,1.281,7.526
		c-1.225-1.712-2.465-3.406-3.832-4.976c-0.914,1.214-2.783,1.475-3.404,2.979c-0.148-5.579,3.486-10.664,0.85-14.038
		c0.272-0.864,1.99-0.281,2.128-1.276c-0.97,0.118-1.599-0.103-1.7-0.852c0.559-0.546,1.566-0.546,2.127,0
		c0.084-1.759,0.801-2.884,2.978-2.552c-2.076-2.092,1.994-4.145,0.424-6.808c1.675-0.027,2.061-1.343,2.554-2.552
		c-1.145,0.293-0.823-0.88-1.276-1.277c1.191-0.226,0.785-2.049,1.276-2.977c-1.737,0.129-0.229-0.89-0.427-1.702
		c-1.039,0.281-1.553-2.066-2.127-0.851c0.577,0.416,0.553,1.434,1.277,1.7c-0.742-0.03-1.323,0.096-1.701,0.427
		c1.355-1.482-1.133-1.697-0.427-3.829c-1.377-0.526-0.324,1.377-1.701,0.851c-0.095-0.804,0.48-0.938,0.425-1.702
		c-1.031-0.81-2.884-0.803-2.552-2.976c-1.451,2.354-4.78-0.63-6.381,0.425c0.038-0.67,1.085-0.333,0.85-1.277
		c-2.111,1.049-4.417-0.055-5.104-1.701c0.544,0.592,2.009,0.26,2.553,0.851c-0.095-0.805,0.48-0.938,0.425-1.701
		c-2.407-0.633-3.288,0.019-5.529,0.425c-0.041-1.944-2.192-1.778-3.83-2.128c1.791,2.953-3.005,1.779-2.552,4.682
		c0.575,0.843,2.97-0.136,2.979,1.275c-1.431-0.847-1.7,2.89,0,2.126c-5.43,1.752-5.363,8.971-8.083,12.338
		c-0.67-0.039-0.333-1.085-1.277-0.851c0.432,3.536-3.562,6.078-0.851,8.508c-0.33,0.094-0.494,0.357-0.425,0.852
		c-2.896-0.812-4.247,2.951-5.956,4.68c2.303,1.457,6.656,1.112,7.231-0.852c2.92,2.371,6.234,0.564,9.872,0.081
		c-0.975,0.375,0.493,1.91-0.938,2.047c-1.669-1.384-4.35,1.697-5.953,0.426c0.042,1.317-0.194,2.358-0.854,2.976
		c-0.594-1.221,1.161-2.159,0-2.551c-0.799,1.185-2.54,1.429-3.828,2.126c3.481,2.315,4.542,5.221,6.382,8.508
		c3.64-0.425,5.901-2.033,9.358-0.85c-2.646,0.615-5.018,1.505-6.807,2.979c-0.457-1.087,1.832-1.491,0.427-2.129
		c-0.362,0.631-1.071,0.916-2.127,0.854c0.117,2.006,2.14,2.922,0.85,5.104c1.607,1.095,3.845,3.801,4.255,4.679
		c-1.323-0.521-2.063-1.624-4.255-1.275c-0.007,1.127,0.237,2.505-0.85,2.552c-0.355-2.199,0.825-2.862,1.7-3.829
		c-1.596-1.238-3.248-2.423-4.679-3.829c0.605-2.833-0.179-3.617-1.276-5.529c-0.173,0.533-0.548,0.869-1.277,0.851
		c-2.049-4.708-1.728-10.742-9.783-9.785c-0.823,3.574-3.152,5.64-5.957,7.233c-0.318,3.276,1.555,3.977,0,6.805
		c0.078,1.2,2.024,0.532,1.702,2.129c-0.874,0.4-0.359,2.191-1.702,2.126c-0.872-0.688-1.071-2.047-1.7-2.977
		c-1.741,0.396-5.057,1.796-6.807,0.425c-0.766,3.602-7.958,2.66-7.231,6.381h-2.127c-0.379,1.04-0.992,1.845-0.851,3.403
		c3.236-0.816,3.521,3.556,5.105,2.978c-0.517,0.13-1.467-1.229-0.426-1.276c-0.01,2.138,3.126,1.128,3.403,2.979
		c-1.582-0.719-0.834,0.09-1.701,0.851c-1.043-0.565,0.467-1.584-0.425-1.702c-3.459,3.804-9.956-4.774-14.039-0.425
		c0.732-0.022,1.09,0.327,1.276,0.851c-0.575,0.134-0.813,0.604-1.701,0.426c-0.076,4.489,1.946,8.175,4.254,12.336
		c-1.433,1.474-0.765-1.038-2.127-0.85c0.517,3.992-1.143,11.181-5.105,10.636c1.802-0.367,3.374-3.734,1.276-5.105
		c0.978-0.582,1.872-1.247,2.978-1.701c0.668-3.731,0.132-8.579-2.87-10.749c0.204,0.081,0.438,0.132,0.744,0.112
		c-0.359-1.776,0.827-2.009,0.851-3.402c-3.121,0.55-2.451-1.316-2.127-3.404c-2.385-0.256-4.03,0.226-5.531,0.852
		c-1.987-3.203-6.93,0.707-9.785,1.701c0.437,5.958,3.269,10.148-1.275,13.188c1.811,1.585,3.768,3.352,7.231,2.128
		c-0.018,0.585,0.2,0.933,0.425,1.275c-1.048-0.057-2.05-0.064-2.552,0.426c-0.309,1.301,0.734,1.251,0.425,2.553
		c-2.729,0.264-3.042,6.201-5.529,8.083c0.432,1.126,1.967,1.151,2.552,2.126c-1.541,1.721-2.123,6.209-1.702,9.359
		c-0.729-0.547-1.672-0.88-1.703-2.126c0.949-2.387-0.285-3.946-1.274-5.53c-1.885-0.466-2.116,0.719-3.404,0.849
		c-0.615-1.228-2.868-0.818-2.553-2.977c-4.855,0.308-5.118,0.259-9.358,0.85v2.127c-5.384,1.141-1.494,9.474-3.404,11.912
		c1.309,1.477,3.117,2.377,5.09,2.774c-1.094,2.479-1.989,5.045-2.966,7.567c-0.01,0.027-0.027,0.064-0.039,0.093h-1.664
		c-0.028-0.028-0.06-0.058-0.091-0.085c-2.744-2.601-6.561-2.575-9.425-0.354c-0.474-1.068-1.214-2.005-2.207-2.687
		c-0.604-2.619-1.653-5.128-3.373-7.462c0.078-0.103,0.152-0.195,0.209-0.271c-0.219-0.073-0.413-0.173-0.614-0.261
		c-0.176-0.225-0.353-0.446-0.542-0.666c-0.854-0.988-1.793-1.617-2.753-1.963c-0.844-1.001-1.601-2.092-2.472-3.067
		c0.949-0.469,0.297-2.538,2.127-2.126c0.132-6.203,1.385-10.133,2.126-16.166c-1.166-0.428-3.112-2.059-3.828-0.426
		c-0.134-0.575-0.605-0.813-0.426-1.701c1.193,0.508,2.937,0.467,4.68,0.425c1.813-5.141-0.1-9.236-2.553-12.338
		c0.648-2.766,0.162-9.894-2.552-12.763c-0.137,1.134-2.336,0.524-4.254,0.851c0.187-1.889-1.087-2.313-2.978-2.126
		c-0.066,0.5,0.073,1.208-0.425,1.275c-3.215-0.755-5.413-2.529-8.509-3.403c-2.819,1.271-7.903,0.44-10.211,0
		c4.84-0.39,7.381-2.568,10.211-2.977c4.975,3.95,6.934,0.008,12.762-0.426c-1.248-2.349,1.331-0.704,1.277-2.128
		c-0.002-0.426,0.344-0.506,0.424-0.851c-0.669-0.039-1.475,0.058-1.276-0.851c0.904-0.94,2.005-1.683,2.553-2.978
		c-2.149-0.83-3.248-2.709-4.253-4.681c1.48,1.038,3.91,3.033,6.38,1.701c0.373-1.364-1.104-0.881-1.276-1.701
		c1.31,0.317,0.818-1.167,2.127-0.851c-0.196-6.167,1.678-8.434,2.553-14.038c-3.301-2.938-3.381-9.099-6.807-11.912
		c1.412,0.136,2.617,0.064,2.978-0.851c-0.065,1.058,0.67,1.317,0.852,2.127c1.643-0.342,1.81-2.161,3.404-2.552
		c-2.265-3.129,1.53-5.236,1.274-8.935c-0.688-0.728-2.671-0.164-2.552-1.701c1.564-0.326,2.119,1.246,2.978,0.851
		c-1.144-1.035,1.594-1.787,0.852-3.83c3.457,0.218,6.125-5.979,10.209-5.104c-2.276,0.561-3.334,2.337-4.679,3.829
		c-6.478,1.623-4.761,8.421-4.681,14.464c-2.295,0.6-4.299,5.016-4.679,8.934c5.339,0.333,6.153,10.763,2.127,12.763
		c0.082-2.548,1.689-4.872-0.425-6.382c-1.841,4.174-1.349,10.667,0.85,14.038c-1.135,0.283-1.557,1.279-2.127,2.128
		c1.408,3.444,5.349,3.029,8.509,1.276c1.148,0.695,2.024,1.663,2.553,2.979c1.938,0.521,1.67-1.167,3.403-0.851
		c-0.006,0.844-1.161,0.54-0.851,1.701c4.507-0.883,6.49-4.287,8.508-7.658c4.544,0.008,6.527-2.547,7.231-6.38
		c-0.261-0.591-1.638-0.066-1.701-0.852c0.233-3.254,1.91-8.157-1.276-9.785c0.004-0.562,0.745-0.389,0.852-0.851
		c-2.485-0.151-1.212-4.494-1.276-4.68c-0.39-1.114-2.15-2.079-2.553-3.828c-0.617-2.674,0.198-4.862-2.128-4.68
		c1.004-0.117-0.038-1.585-0.425-1.702c-1.049,0.716-2.983,1.052-4.254,0c2.292,0.591,1.782-1.62,3.829-1.276
		c-1.022-1.93-5.453-5.062-2.126-6.38c0.198-1.638-3.471-1.608-2.128-2.979c1.312-0.317,0.818,1.166,2.128,0.851
		c0.749-1.462,0.366-3.189-0.851-3.829c2.046-0.306-0.683-2.159,0-3.829h-1.702c-0.361,0.666-1.46,2.749-2.127,1.702
		c1.918-1.486,2.789-4.019,4.255-5.956c-1.437-3.169-2.641-5.339-2.553-8.507c-5.42-1.066-12.12-6.494-14.463,0.85
		c-2.054,0.926-3.793,2.164-6.383,2.552c-0.734,0.261,0.033,2.021-0.851,2.128c-1.157-1.395-2.608-2.496-4.254-3.403
		c-4.896,1.646-10.235,0.943-15.315,3.403c-0.207-0.503-0.454-0.966-0.85-1.275c-1.703,0.834-5.893-0.166-7.658,2.552
		c-1.032-0.67-1.817-1.588-3.829-1.276c0.33,1.464-0.236,2.033-1.701,1.702c0.835,5.286,2.108,6.136,2.126,11.061
		c1.161,0.038,0.856-0.71,1.701,0c-0.881,1.833,1.167,5.475,0,7.658c1.594-0.033,1.451,1.668,1.702,2.977
		c4.049,0.771,4.519,5.125,6.807,7.658c-1,1.41-1.441,3.38-2.978,4.254c1.262,1.389,2.478,4.759,1.702,6.807
		c1.707,1.271,5.04,0.915,6.381,2.553c-3.078-0.724-4.734-0.561-7.658-1.702c0.784,2.059-0.249,0.406-1.702,1.276
		c-0.984,2.844-1.78,5.876-2.978,8.508c1.338,0.647,1.702,2.27,3.829,2.128c0.019-0.586-0.2-0.936-0.423-1.277
		c0.918,0.959,1.449-0.351,2.976,0c-0.59-1.859,0.218-2.641,1.703-3.402c1.387-0.111,1.229,1.323,2.127,1.701
		c-0.795,0.833-1.558,0.131-2.553,0c-0.188,1.692-3.11,2.317-1.702,4.254c-1.584-0.45-1.374,0.896-2.128,1.276
		c-2.091-3.041-5.407,1.334-8.933,0.85c0.125,4.354,4.009,9.422,6.806,13.614c-0.536,1.857-0.125,1.893,0.426,3.403
		c-0.637,0.073-1.57-0.15-1.702,0.428c2.119,1.067,3.422,3.008,2.979,5.528c1.938-0.503,4.963-0.733,5.955,0.852
		c-1.295,0.756-4.559-2.24-5.531,0.425c2.667,3.494,7.131,7.247,11.061,8.083c-0.189,1.591,2.975,3.175,4.254,4.681
		c1.904-1.5,2.696-8.173,5.956-5.531c-0.794,0.34-1.558,0.711-2.551,0.851c0.754,1.82,0.47,4.943-1.703,5.105
		c-0.829,6.218,4.929,5.849,8.508,7.658c-2.361,1.282-5.195-1.078-7.657-1.702c-0.141-0.035-5.816,0.392-3.829-1.701
		c-2.161-0.077-0.094,1.437-1.701,1.701c-0.637-0.072-1.571,0.151-1.702-0.425c1.484-0.36,2.501-1.188,2.978-2.554
		c-0.748-0.102-0.97-0.731-0.851-1.701c-1.034-0.293-3.592,0.035-3.403-2.554c-2.354-0.226-2.817,1.438-4.254,2.128
		c0.876,5.133-0.648,8.137,2.127,11.486c-0.623-0.609-1.348-0.326-1.275,0.85c0.308,0.967,1.797,0.754,2.551,1.278
		c-0.088-1.224,0.109-2.162,0.851-2.554c1.182,2.363,4.116,2.973,6.38,4.255c0.005,0.08,0.016,0.149,0.02,0.229
		c-4.139-0.768-8.896,1.951-8.51,6.634c-0.285,0.104-0.573,0.221-0.868,0.37c0.317-0.119,0.608-0.149,0.885-0.125
		c0.059,0.484,0.169,0.991,0.344,1.517c0.28,0.843,0.359,1.685,0.291,2.518c-0.399,0.48-0.789,0.995-1.177,1.52
		c-2.717-0.328-5.728,0.79-6.92,3.352c-1.035,2.229-1.729,4.457-2.204,6.721c-1.71-0.062-3.417-0.105-5.12-0.089
		c-0.036-0.226-0.074-0.451-0.136-0.676c1.23-0.652,2.167-1.84,2.125-3.252c-0.173-0.818-1.649-0.334-1.276-1.7
		c1.002,1.366,2.737,1.47,4.254,0.425c0.276-1.553-0.286-2.267-0.851-2.977c1.003,0.131,0.791,1.477,2.127,1.276
		c1.242-1.737,2.617-3.341,2.553-6.383c-0.478-0.089-0.661-0.472-0.851-0.851c-3.013-0.034-5.014,0.942-7.658,1.276
		c-1.051-0.509-1.663-1.455-2.127-2.552c-3.877-0.758-4.756,1.483-6.381,2.977c-3.975,0.608-6.095-1.159-9.785-2.977
		c3.179,0.914,9.865,2.88,12.337-1.277h3.828c-0.37-1.127,1.039-2.58,1.276-1.701c-1.08,1.534-0.828,3.037,0.426,4.254
		c2.759,0.064,5.316-0.073,6.806-1.275c0.215-1.337-1.002-1.738,0.428-2.129c1.13,0.146,0.971,1.58,2.126,1.703
		c-1.066-3.764-3.269-2.05-5.531-3.83c0.309-2.56,4.27-2.944,2.978-4.678c0.999-1.037,0.953,0.475,1.702,0.85
		c1.542-1.141,1.334-5.375,2.553-5.529c-1.248-0.36,0.254-1.37,0-2.127c-0.792-0.06-1.422-0.28-1.701-0.852
		c1.064,0.072,1.332-0.653,1.701-1.275c-2.586-0.46-0.8-3.029-1.701-4.681c1.16-0.31,0.855,0.846,1.701,0.852
		c-0.48-4.099-0.762-8.597-4.68-10.21c0.023-0.544,0.545-0.591,0.425-1.277c-1.771-1.631-4.835-1.971-6.806-3.403
		c4.229-7.953-10.308-8.088-6.806-15.313c-0.732,0.021-1.091-0.328-1.277-0.853h1.277c0.146-3.047-1.405-3.942-0.426-6.806
		c-4.748-1.874-10.76-1.031-12.763-4.254c-4.161,1.434-5.712-4.624-10.209-2.979c-3.078,5.949-6.686,11.534-2.978,17.867
		c-0.896,1.036-1.893-0.376-2.554,0.425c1.022,1.758-0.923,3.97,1.278,4.68c-0.362,0.916-1.049,1.507-2.553,1.277
		c-0.333,3.036-0.531,4.468,0.425,7.231c5.863-0.174,10.695,2.421,12.762,7.233c7.99,1.513,14.189-4.46,18.718-6.383
		c-2.487,2.759-5.546,4.947-8.933,6.808c0.598,0.11,0.484,0.933,0.851,1.276c-0.564,1.987-3.397,1.707-4.68,2.978
		c-0.659-3.097-4.965-0.247-5.956,0.425c2.986,2.626-0.956,9.968,2.127,11.912c-2.986,2.684-6.327,5.017-5.53,11.487
		c1.043,2.645,5.474,1.899,5.105,5.954c2.462,1.226,3.987,3.388,6.381,4.681c1.841,0.594,2.817-1.851,3.403,0
		c-2.677-0.247-0.923,2.257-1.276,2.553c-1.057,0.705-1.959-1.333-2.551,0.85c0.274-1.543-1.161-1.698-2.127-2.979
		c-0.373,1.332-2.57,0.836-2.553,2.554c1.859,2.447,4,2.737,6.398,2.475c-0.058,0.247-0.114,0.494-0.158,0.745
		c-1.168,0.272-2.339,0.555-3.51,0.833h-21.72c-1.054-0.534-2.083-1.195-3.086-1.998c0.401,0.018,0.808,0.04,1.23,0.072
		c-0.349-1.957-1.171-2.151,0.425-3.402c1.905-0.204,1.938,1.464,2.979,2.126c0.046-0.804,1.406-0.295,1.276-1.275
		c-0.262-0.589-1.639-0.063-1.703-0.851c5.217,0.418,7.05-3.378,11.912-1.702c-0.17-5.093-4.018-6.235-2.979-10.635
		c-1.154-0.263-1.992-0.846-2.553-1.703c1.161,0.311,0.857-0.846,1.702-0.852c-0.095-1.746-1.877-1.808-1.702-3.828
		c-2.091-0.462-4.532-0.571-5.53-2.127c2.681,1.405,3.781-0.636,6.808,0.426c0.365-2.41,0.115-5.175,2.552-6.382
		c-1.047-3.949,2.553-6.767,0-10.209c1.175-0.183,0.399,1.585,1.276,1.701c4.138-7.145-3.8-11.284-9.784-12.337
		c-0.209,2.587-2.082,3.137-0.425,5.53h-2.128c-1.198,2.488-0.389,6.41,0,7.658c-1.464-0.953-2.652-0.247-3.828-0.852
		c0.889-0.245,1.214-1.055,2.552-0.851c0.174-1.025-0.777-0.925-0.426-2.127c-1.987-0.145-2.509,1.179-3.403,2.127
		c-0.811-0.183-1.069-0.916-2.126-0.851c-1.413,0.855-2.576,1.963-3.403,3.402c-1.103-1.295-2.58-2.05-3.829-2.127
		c1.207-0.635,0.448-3.239,1.702-3.829c1.737,0.011,2.958-0.189,2.127-1.701c3.325-0.361,3.452-3.922,8.082-2.978
		c0.623-1.494-0.408-2.399,2.127-1.702c-0.656-4.546,0.288-9.907-0.85-16.166c1.229-0.188,1.938-0.896,2.126-2.126
		c-0.754-0.807-0.31-2.812-0.425-4.254c-0.801-0.617-2.21-0.625-2.552-1.702c0.393-0.743-0.015-2.284,1.276-2.127
		c-0.292-4.531-2.915-6.729-5.957-8.508c-2.146-0.279-5.746,1.451-5.955-1.702c-4.094-1.656-8.652,0.861-9.785,4.678
		c1.056-0.063,1.765,0.221,2.126,0.853c-1.796-0.096-2.748,0.655-4.254,0.851c-1.847,4.959-6.306,7.306-10.21,10.209
		c-0.138-2.124,1.43-2.541,0.852-5.104c-4.884-2.064-11.773-2.124-16.166-4.681c-0.008,1.852,1.314,2.372,0.851,4.681
		c-2.347,0.601-2.37,5.762-5.104,7.232c2.159,7.034,0.892,13.151,2.978,20.419c3.757,2.624,9.817,2.946,11.486,7.657
		c1.521,0.181,2.27,1.133,4.255,0.852c1.712-2.825,3.078-5.998,6.805-6.808c-1.795,2.032-4.29,3.368-3.829,7.659
		c-2.721,2.022-6.724,6.467-2.977,10.209c0.108-0.884,1.869-0.117,2.127-0.852c0.929,2.476,3.283,3.523,6.38,3.829
		c0.656-1.79-2.201-0.066-2.127-1.276c4.456,0.06,7.945-0.848,11.911-1.276c0.196-4.77,3.057-7.535,6.381-10.21
		c-0.063,1.056-0.079,2.065,0.851,2.128c0.792,1.926-1.528,0.739-1.701,1.702c1.466,0.233,1.883,1.519,3.827,1.276
		c2.25-4.015,6.229-0.194,9.785,0.425c-4.935-0.996-7.839-1.551-11.06,1.275c-0.004,1.13,0.161,2.43-0.425,2.979
		c0.969,0.584,1.6-1.096,1.701,0c-0.523,0.609-1.461,0.805-2.551,0.85c0.313,2.017-0.479,2.925-0.426,4.681
		c1.276,1.277,3.663,1.441,3.83,3.829c-1.571-1.368-5.089-5.305-7.232-2.127c0.109-2.946-2.236-3.437-2.979-5.531
		c-3.187,0.004-8.152,2.049-7.231,3.403c-1.877,0.351-2.961,2.448-2.978,3.403c-0.238-0.883-0.664-0.9-1.277-0.425
		c-0.081,2.08,2.799,3.424,2.128,4.679c-1.108-0.329-1.382-3.694-2.553-2.551c-0.203,1.01-0.417,5.722-1.276,6.381
		c-0.354-1.065-1.166-1.671-1.275-2.979c2.412-0.968,1.792-4.313,2.126-6.381c-3.589-4.195-9.822-4.009-14.89-5.104
		c1.094-0.041,0.609-1.661,1.702-1.703c1.025-0.174,0.924,0.778,2.126,0.425c0.436-1.503,1.775-2.571,3.404-1.701
		c-1.107-2.895-1.903-6.287-1.702-9.357c-1.546-1.006-3.877-1.229-4.253-3.405c-3.996-0.258-5.602-2.906-9.359-3.401
		c-0.552,1.055,0.948,2.063,0,2.126c-0.095-0.331-0.355-0.494-0.852-0.425c-3.015,4.283-3.466,7.718-2.551,13.613
		c2.619,0.572,3.097,2.26,6.38,1.275c0.015-2.374-0.367-3.924,0-5.104c1.773,2.834,1.713,7.526,3.403,10.209
		c-2.149,0.262-2.613,2.208-3.828,3.404c1.938,0.179,1.365,0.625,1.701,2.128c2.388,0.376,6.898-2.421,8.083-0.427
		c-0.961,0.179-4.548,1.019-5.53,2.553c1.453,1.302-1.452,2.733,0.426,5.104c-0.813-0.18-0.771-1.216-2.127-0.85
		c-0.045,2.17,1.044,3.209,2.552,3.829c-0.968,1.612,1.67,2.708,2.552,3.829c-0.127-0.479,0.69-0.972,1.238-0.894
		c-1.237,1.064-2.29,1.791-4.208,1.165c-1.66-0.543-3.2-1.064-4.768-1.393c0.373-0.13,0.698-0.31,0.932-0.583
		c-0.712-0.563-1.425-1.125-2.978-0.85c-0.068,0.574,0.202,0.809,0.345,1.174c-0.68-0.07-1.374-0.104-2.097-0.066
		c-0.415-0.221-0.883-0.389-0.802-1.107c3.221-0.089,1.64-5.329,3.404-4.68c-4.097-3.029-1.347-9.271-0.426-14.039
		c-4.365-1.731-7.619-4.576-9.784-8.508c-5.383,3.18-11.904-2.124-17.016,2.127c-0.454,2.523,1.114,7.072-1.276,7.657
		c0.479-2.717,1.683-6.907-1.277-8.082c-0.611,0.664-1.071,1.479-2.128,1.7c-0.073-1.484-0.977-2.141-2.126-2.551
		c-0.158,5.032-5.217,4.082-8.083,5.528c-1.093-0.041-0.608-1.659-1.702-1.701c-0.184,0.95-0.752,1.518-1.701,1.701
		c-0.273,1.713,0.554,4.525-0.426,5.532c-1.101-0.687,0.178-3.749-0.425-3.829c-2.677-0.086-9.771,1.401-6.806,5.53
		c-0.557,1.7-2.207,1.371-1.277,4.254c-1.875-0.042-1.743,1.424-2.979,0c-0.169,5.304,1.111,7.08,2.391,9.582
		c-0.253,0.019-0.505,0.035-0.757,0.06c-0.075-0.138-0.178-0.249-0.357-0.282c-0.028,0.1-0.043,0.213-0.058,0.327
		c-0.629,0.068-1.257,0.155-1.884,0.257c-0.111-0.023-0.209-0.017-0.296,0.05c-1.822,0.308-3.622,0.744-5.354,1.307
		c-0.092-0.442-0.157-0.941-0.066-1.515c-1.035,0.273-2.188,0.859-2.126-0.852c1.065,0.054,1.332,0.813,1.701-0.425
		c-1.419-1.374-3.826,0.808-5.104-0.425c0.86,2.021-2.896,1.887-3.828,3.403c-0.004-0.563-0.746-0.391-0.851-0.853
		c0.726-0.267,0.7-1.284,1.276-1.701c0.805-0.096,0.94,0.479,1.703,0.426c2.966-2.672,1.04-7.37,0.85-8.935
		c0.006,0.052,0.834-0.055,0.851,0c-1.782-5.87-8.849-1.653-14.463-2.126v-1.276c2.541-0.03,3.251-0.515,5.531,0
		c1.932-0.619,2.057-3.048,4.253-3.402c-2.353-1.562,2.014-1.7,0.851-4.683c2.453-2.242,3.039-3.748,4.254-7.229
		c-2.639-3.869-4.085-7.69-6.807-10.636c-0.364-0.146-0.689-0.216-0.987-0.238c0.11-0.578,0.216-1.157,0.313-1.737
		c0.216,0.065,0.439,0.148,0.674,0.273c2.472,0.061,1.24-3.581,3.404-3.829c-1.157-1.111-2.456-2.081-2.553-4.254
		c-0.124,0.31-0.353,0.505-0.622,0.645c0.4-4.568,0.5-9.161,0.442-13.768c1.075-0.992,1.979-2.152,2.732-3.468
		c-0.103-0.749-0.732-0.971-1.702-0.851c0.76-1.753,1.308-1.188,0.851-3.829c2.093-0.675,0.637,2.197,2.552,1.7
		c-0.664-1.604-0.896-3.639-2.552-4.254c1.603-1.891,1.063-7.463-0.425-8.933c-0.311,0.675-1.176,0.783-2.17,0.682
		c-0.16-3.792-0.281-7.58-0.285-11.356c0.567-0.097,1.075-0.253,1.604-0.387c2.881-3.992-0.759-9.871-0.84-14.167
		c0.045-0.383,0.098-0.764,0.148-1.147c0.705,0.944,1.516,1.782,2.819,2.127c2.354-0.766,1.03-5.209,4.679-4.68
		c-0.271-0.973-0.845-2.566,0-3.402c-0.293-1.333-1.135-0.555-2.125-0.425c0.769-0.896,0.702-3.533-0.853-3.404
		c1.44-1.736,2.31,0.806,4.253-0.427c0.198-2.184-1.355-2.613-1.701-4.252c3.064,0.509,2.057-3.05,2.979-4.68
		c-2.503-0.832-3.264-0.698-4.755-1.507c0.059-0.325,0.122-0.651,0.179-0.979c1.804,0.121,4.198,0.313,5.425-0.067
		c1.313,0.152-1.119,2.167,0.426,2.553c2.164-4.217,1.341-9.536-0.85-13.615c-2.427,1.023-6.494,0.145-7.658-3.403
		c1.644-0.654,4.802,0.336,5.955-1.701c1.257-0.371-0.985-0.637-0.425-1.703c6.351-2.728-1.709-6.573-3.403-8.931
		c-4.909-0.055-5.82,6.042-9.784,5.529c-0.487-1.338,0.668-1.033,0.851-1.701c-1.393-0.161-3.647-0.707-4.68,0.852v-4.256
		c1.984,0.385,3.161,2.911,5.957,0.426c0.14-2.367-0.913-2.883-2.553-4.254c0.3-1.687,2.919-1.051,2.553-3.404
		c0.75,2.214,2.905,2.629,2.977,4.681c3.771-0.757,1.299-2.985,3.829-4.255c-0.994-1.502-0.688-2.653-0.425-4.68
		c-1.567-1.271-3.183-2.491-4.68-3.829c-0.742,0.893-1.172,2.729-2.978,1.701c0.47-1.364,2.257-1.735,3.829-2.978
		c1.114,0.889,2.664,3.072,4.679,1.702c-1.349-1.88-4.66-1.471-5.956-3.404c-1.042,0.258-2.277,2.512-2.127,2.554
		c-1.492,0.865-0.7-3.858,0.426-4.254c2.267-0.45,0.106,0.895,1.276,1.274c0.718-1.119-0.017-1.9-0.885-2.67
		c1.39-0.229,2.755-0.852,3.887-1.812c2.084,1.765,4.686,3.069,7.708,3.756c-0.974,1.279-1.867,2.637-2.627,4.13
		c2.432,0.12,2.403,2.701,4.254,3.403c1.127,0.135-0.397-2.383,1.276-1.702c0.078,2.408-2.057,6.404,0.85,8.508
		c2.496-0.235,4.698-0.566,5.956,1.278c-1.549,0.13-2.768-0.069-3.829-0.426c-0.954,1.03-2.188,1.78-2.977,2.978
		c0.77,1.735,0.791,3.915,0,5.106c2.604,0.242,0.408,2.456,0,3.401c3.834,1.713-0.394,5.64,0.425,8.934
		c1.819-0.257,1.574,1.548,2.127,2.553c3.54,0.696,3.757-4.171,7.231-2.126c-1.236,0.889-2.53,1.723-3.828,2.552
		c0.573,3.267-2.324,3.065-2.978,5.106c-0.315,1.309,1.168,0.815,0.852,2.127c-1.928,1.191-2.566,3.671-2.979,6.38
		c1.055,0.236,2.901,0.312,3.83,1.702c-1.137,0.708-2.375,1.311-3.83,1.701c-0.293,0.978-0.276,2.745,0.426,3.829
		c-0.001-0.236,0.345-0.483,0.426,0c-0.63,0.222-1.072,0.629-1.701,0.85c0.086,1.334,1.097,1.741,1.701,2.554
		c-0.06,3.344-2.414,4.393-2.978,7.232c1.371,0.33,2.513,0.889,3.403,1.701c-1.823-0.12-0.111,3.293-1.702,3.403
		c-0.095-0.607-2.118,0.396-3.404,0c0.044,2.084,2.463,1.791,3.404,2.979c1.184,0.19-0.333-2.32,0.851-2.127
		c-0.308,1.299,0.436,1.55,0.426,2.552c1.024,0.174,0.925-0.776,2.127-0.425c-0.321,2.022,2.843,0.561,2.126,2.978
		c-2.217-0.335-3.219-1.886-5.955-1.701c-0.594,2.186,0.143,3.188-0.853,5.104c1.608-0.048,2.288,0.832,2.554,2.127
		c-0.777,1.917-1.909,3.48-3.403,4.68c3.409-1.344,4.613,1.837,5.956,3.829c-0.646,1.056-1.445,1.959-2.553,2.552
		c1.544,0.441,1.233,2.737,2.979,2.979c0.638-0.498,1.039-1.229,2.126-1.277c0.69,3.295-0.597,3.382-0.851,6.383
		c3.034,0.37,2.526,4.28,5.105,5.104c4.505-0.971,5.026,0.065,9.36,0.426c1.047-1.585,0.408-2.214,0.425-4.679
		c0.873-0.404,2.025-0.527,2.127-1.702c-0.753-0.807-2.386-0.732-2.552-2.128c2.301-0.108,2.238-2.583,2.978-4.254
		c-1.614,0.453-3.242-1.256-2.553-1.701c2.687,0.975,1.946-1.116,4.68-1.701c-0.572-3.126,1.975-3.131,2.978-4.68
		c-1.518-0.324-2.92,1.318-3.404-0.426c2.266-0.021,3.185-3.877,5.957-4.68c0.429-2.9,1.173-7.257-1.702-9.784
		c0.62-0.939,2.278-0.843,2.553-2.127c-0.554-1.008-0.71-2.41-1.276-3.403c0.323-1.096,1.357-1.479,2.978-1.277
		c-0.093-3.121-2.459-5.141,0-7.655c-0.731,0.021-1.091-0.328-1.275-0.854c4.371-5.971-0.03-13.145,0.85-23.398
		c-0.75-0.798-1.317,0.582-1.702-0.849c1.249-3.22-1.387-10.371-2.552-14.04c-3.776,2.511-7.267,3.488-11.911,1.278
		c-0.804,0.047-0.295,1.405-1.276,1.275c-0.135-1-2.017-0.253-1.702-1.701c2.147,0.302,3.106-0.582,4.68-0.853
		c0.935,0.483,1.414,1.422,2.552,1.704c3.027-1.087,5.182-3.046,8.083-4.256c-0.269-1.552-0.517-2.652,0.426-3.828
		c0.67,0.038,0.332,1.084,1.276,0.85c0.464-2.308-0.859-2.828-0.852-4.68c0.989-0.949,1.215-3.133,2.128-2.978
		c-1.304-0.416,0.189-1.434,0.425-1.703c-0.981,0.132-0.472-1.228-1.277-1.275c-0.384,0.736-1.564,1.177-1.7,0
		c1.574-0.488,0.476-2.033,2.127-1.701c-0.734-1.563-0.943-4.79-0.851-5.955c0.272-3.42-1.662-9.378,0.851-8.508
		c-0.938-2.324-1.972-4.551-3.828-5.958c-0.026,1.439,0.768,1.817-0.427,2.554c-0.588-0.971-3.125,0.008-2.552-2.128
		c-0.786,0.507-1.57,0.809-2.338,0.955c1.619-1.251,3.13-2.573,4.454-3.691c0.065-0.055,0.125-0.114,0.19-0.172h22.873
		c0.194,1.616,0.96,3.162,2.124,4.341c-1.064,0.813-2.219,1.354-3.479,1.121c0.554,1.233,0.344,2.446-0.852,2.979
		c-0.426-1.702-1.195-3.059-2.978-3.404c-0.244,1.269,1.604,2.605,0.85,2.979c-4.34-0.061-0.929-5.503-3.827-7.232
		c-0.496,1.68-3.439,3.32-6.383,3.827c-0.251,1.593-1.279,2.419,0,3.405h-1.275c-0.234,1.893,0.658,4.914-0.852,5.53
		c1.704,3.609,2.204,8.199,3.829,12.762c2.909-0.673,3.49,0.979,5.53,0.852c-1.168,1.679,0.093,2.313-0.425,3.402
		c-0.571-0.846-0.811-2.025-1.276-2.978c-1.646-0.229-2.078,0.761-3.829,0.426c0.69,2.157-0.411,2.632,0,3.828
		c1.181,0.422,1.204-2.417,2.126-0.851c-0.11,0.6-0.933,0.486-1.275,0.851c1.806,4.918-1.428,8.238,0.425,13.188h-1.701
		c-0.631,2.191,1.29,1.83,0.85,3.83c-0.589-0.54-1.205-2.08-1.7-0.426c0.405,0.728,1.411,0.855,1.7,1.701
		c-2.179,1.61,0.791,3.653-0.425,5.529c2.702,2.799,8.511,2.769,9.359-1.698c-0.02-0.15-0.088-0.25-0.172-0.334
		c2.054,1.22,4.485,2.747,3.149,4.588c2.799,0.897,6.263,2.882,9.785,1.701c1.571,2.759,9.356,3.92,10.635,2.979
		c0.069,1.201-1.277,0.989-1.276,2.126c0.878,1.532,2.396,2.426,2.128,5.105c3.961,2.402,9.272,5.608,6.805,11.911
		c4.283,2.076,13.549,4.851,18.718,2.554c-0.513-1.791,0.688-1.866,0.851-2.979c0.281-1.555-0.92-1.633-0.851-2.978
		c1.27-0.006,1.446-1.106,2.553-1.276c-0.806,2.506,1.364,2.038,1.701,3.404c0.17,1.018-1.936-0.237-1.275,1.275
		c-1.62,3.63,2.838,5.841,5.53,7.656c0.094,1.609,0.979,2.424,2.128,2.979c3.701-1.168,7.643-1.216,7.657-6.807
		c1.003,0.009,1.253-0.733,2.553-0.426c0.651-2.07-1.236-1.603-1.276-2.979c0.993-0.708,1.626-1.776,2.126-2.979
		c-1.873-3.554-0.022-8.824-0.425-12.335c-0.337-0.94-2-0.553-2.127-1.702c1.274-1.709-1.576-2.754-0.425-4.681
		c-2.027-0.099-2.349-1.904-3.404-2.978c-1.789,0.871-3.387,1.674-5.105,0.853c0.778-0.987,2.346-0.617,3.83-1.704
		c0.201-1.336-1.145-1.122-1.277-2.126c1.648-3.956-3.388-8.494-5.53-11.486c1.185-5.04-8.982-3.629-5.955-10.638
		c-4.297-1.725-3.777-10.313-9.785-8.933c0.652-2.135-2.009-4.075,0.851-5.954c3.144,4.796,5.919,9.962,10.209,13.612
		c2.728-1.587,3.061-8.591,2.979-9.359c-0.264,1.526-2.85,0.692-3.404,0c1.445-1.479,3.589-0.591,4.68-1.702
		c-0.535-0.173-0.87-0.548-0.851-1.276c6.064-1.024,9.634-4.546,15.74-5.529c0.404-0.873,0.528-2.024,1.703-2.126
		c0.063-1.258-1.237-3.004,0.425-3.404c0.415,1.71,1.495,3.569,2.551,3.404c-0.736,2.698-2.467,6.081-3.827,6.806
		c1.503,1.396-0.242,4.13,0.851,6.38c-1.892-0.797-4.479-4.496-2.553-6.38c-0.748-0.104-0.971-0.732-0.852-1.7
		c-3.862-0.733-6.025,3.12-8.508,5.103c0.062-1.195-1.042-1.228-2.127-1.276c-1.239,1.803,0.545,3.577,0.426,5.956
		c-0.146,2.904-2.512,6.309-1.276,9.784c-0.006,0.846-1.16,0.542-0.851,1.704c2.146,2.676,3.524,6.114,6.381,8.082v2.127
		c2.148,1.679,3.102,4.554,5.104,6.38c-1.349,3.423,4.769,2.827,5.531,5.532c6.241-1.132,14.296,0.681,19.568-1.275
		c0.223,0.629,0.63,1.07,0.852,1.7c6.01,0.745,7.562-2.783,11.912-0.851c1.223-0.511,2.753-3.203,3.828-1.275
		c-0.054-1.066-0.812-1.332,0.426-1.702c0.637,0.499,1.739,0.528,2.127,1.275c0.169,1.02-1.938-0.235-1.276,1.276
		c2.371-0.819,8.259,0.144,9.785-3.402c-4.001-4.808-2.116-13.509-7.233-16.592c-0.308-1.304,0.735-1.253,0.426-2.554
		c-4.368-1.935-9.264-2.084-12.337-5.955c0.981-1.155-0.809-1.994,0-2.554c2.19,4.071,5.636,2.892,10.636,4.254
		c0.943-1.175,0.811-2.161,0.426-3.829c0.782,1.063,3.048,0.642,2.552,2.979c2.852,0.25,4.476,0.498,7.233,0
		c0.167-0.733-0.633-1.091,0-1.278c3.215-1.323,6.769-4.567,10.208-4.254c-4.481,2.611-8.176,6.004-13.612,7.658
		c-2.12,7.39,1.069,14.342,1.702,22.121c2.589,0.323,2.233-2.302,3.829-2.977c-0.383,1.246-0.383,1.308,0,2.554
		c2.473,1.071,5.525,1.563,8.509,2.126c0.733-0.258-0.035-2.017,0.85-2.126c1.687-0.359,3.603-0.047,5.53,0.423
		c-0.119-0.968,0.104-1.598,0.851-1.698c0.396,0.452,1.569,0.13,1.276,1.275c1.265-0.521,1.631-1.94,3.403-0.853
		c0.965-1.728,2.855-2.533,2.552-5.529c-3.361-0.739,0.561-6.423-2.552-7.658c2.152,0.449,2.211-1.192,2.127-2.978
		c2.508-0.895,4.804-2.003,4.68-5.532c-0.758-0.233-1.767-0.216-2.128-0.85c0.262-0.589,1.638-0.063,1.703-0.851
		c-0.686-3.162,0.581-9.016-2.553-11.487c1.518-1.175,1.684-3.702,2.978-5.104c-1.19-0.653-2.399-1.288-3.403-2.128h1.701
		c-0.671-1.555-1.903-3.501-3.402-2.977c0.729-0.688,1.056-1.779,0.85-3.404c0.544,0.024,0.59,0.546,1.277,0.426
		c-0.231-0.956-0.696-2.008-1.109-3.078c1.716-0.423,3.371-0.973,4.974-1.628c1.139,0.835,2.301,1.621,3.503,2.343
		c-0.116,0.575-0.052,1.333-0.563,1.513c0.072-0.922-1.508-0.194-2.127-0.426c-1.077,3.291,1.25,6.243,3.404,7.658
		c-2.428,4.566-3.962,10.613-2.127,17.442c-0.262,0.589-1.639,0.063-1.702,0.85c1.401,0.158,2.126,0.993,2.978,1.7
		c-1.453-0.317-0.54,1.73-2.127,1.278c1.945,2.997-1.087,6.31-2.978,8.084c-0.641-2.283,2.081-2.716,0.851-4.254
		c-3.314,0.879-3.125,4.2-3.403,7.229c3.342,2.837,5.212,7.661,10.209,8.084c0.132,1.003,1.478,0.791,1.276,2.128
		c6.481,1.423,9.349-4.458,13.188-8.084c2.354,0.168,5.456,0.298,8.083,0c-5.803,1.996-12.253,3.346-14.038,9.36
		c1.89,6.136,5.419,8.028,9.784,11.486c-3.676-0.579-5.501-3.008-9.358-3.403c-2.199,4.45-4.313,14.419,3.403,13.188
		c0.13,0.981-1.229,0.472-1.276,1.274c2.958-0.508,3.505-0.788,6.807-0.85c0.615-0.801,0.625-2.212,1.7-2.554
		c5.325-0.497,9.609-0.922,14.89-1.7c-0.143-1.996,1.093-3.942-0.427-3.828c2.247-1.146,2.856-6.044,0.427-7.231
		c-1.401,0.316-3.095,2.555-3.829,2.126c1.927-3.038,4.142-5.784,5.956-8.934c0.108,0.884,1.87,0.116,2.127,0.85
		c0.667-2.308,1.271-6.337,0-7.232c1.049,0.058,2.05,0.065,2.552-0.426c0.826-1.866,0.993-4.395,2.978-5.104
		c-1.455-2.07,0.654-3.085-1.275-4.68c1.058-0.066,1.316,0.668,2.127,0.851c0.708-0.844-0.038-0.542,0-1.701
		c4.066,2.896,3.749-7.217,0.85-5.532c0.655-2.038,3.183-2.204,5.105-2.976c-2.005-0.245-3.544-0.587-4.679,0.85
		c-0.944-0.33-1.658-0.893-2.978-0.85c0.237-0.87,1.28-0.834,0.425-1.704c-1.687-0.155-4.077,0.392-5.104-0.424
		c-1.214,1.923-0.989,3.395,0.426,4.678h-2.127c0.27,3.847,2.789,7.701,2.127,11.063c-2.659-3.57-5.485-8.31-4.255-14.464
		c-1.077-0.766-2.411,0.811-2.978-0.853c0.506-1.196,1.822-1.582,2.554-2.553c-2.022-6.728,0.064-13.205-1.276-20.418
		c0.804,0.096,0.938-0.479,1.701-0.426c-1.572,7.706,5.172,10.726,10.636,9.359c-0.426-3.153,3.18-1.4,1.702-4.679
		c1.371-0.81,2.33,0.434,2.977-1.276c1.015,1.163,0.844,2.57,0.426,4.254c2.333,1.005,7.093-2.52,8.934,0.426
		c3.542-3.691,9.595-7.138,13.188-9.359c-0.395,1.022-0.776,2.06-1.276,2.978c-2.096,0.537-1.746,0.878-4.253,0.853
		c0.062,2-2.166,2.181-2.553,2.551c0.63,0.079,0.39,1.028,0.425,1.703c-0.751,0.797-1.241-0.507-2.127,0.423
		c-2.479,2.795,0.976,5.302-0.426,7.657c1.534,1.423,3.788,3.804,2.128,5.955c4.298,0.511,6.042,3.486,5.104,7.232
		c3.563,1.829,8.413,2.366,11.062,5.106c0.069,1.914,0.095,3.783-1.276,4.256c-1.911,0.066-2.795-0.896-3.403-2.129
		c-1.025-0.175-0.925,0.777-2.128,0.425c0.903,3.882-3.52,5.312-0.425,7.658c-1.38,0.451-1.351,1.815-2.551,0.426
		c-0.234,0.617,0.496,2.198-0.427,2.128c-0.73-0.547-0.854-1.699-1.702-2.128c1.704-1.701,3.318-3.489,4.255-5.956
		c-1.099-1.136-0.448,0.98-2.126,0.426c0.393-1.286-0.609-3.309,0-3.403c1.146,0.128,0.762,1.79,1.7,2.128
		c0.561-1.528-0.028-1.562,0.426-2.979c-1.397-1.021-3.121-0.971-5.531-2.979c-1.738-1.449-2.926-7.681-7.232-5.53
		c-0.063-0.566,1.73-1.283,0.426-1.702c-2.001,1.815-3.499,1.552-6.38,1.278c-0.093,2.092-0.568,2.225-2.979,2.55
		c-3.77,5.7-3.712,10.805-3.404,18.72c-1.451,0.25-2.012,1.393-1.701,3.404c-1.577,0.265-2.49,1.197-3.828,1.702
		c0.106,4.36-5.683,2.824-5.105,7.657c0.618,1.368,1.798,2.171,1.703,4.254c5.542,1.854,8.735,8.153,18.292,7.23
		c3.755-1.607,7.167-4.284,11.061-2.552c0.318-1.381,1.538-1.865,2.554-2.553v1.704c3.061-1.834,3.983-1.168,7.23,0
		c-0.023,0.542-0.546,0.59-0.426,1.274c3.525,1.236,8.623,2.331,8.935-2.553c1.342,0.21,1.503-0.765,2.978-0.426
		c1.13-2.61,3.932-5.634,2.126-9.784c1.454-0.249,2.012-1.392,1.703-3.403c1.282,0.278,3.185,0.856,3.828-0.85
		c-0.557-1.089-2.252,0.986-2.554,0c-0.454-1.589,1.059-1.213,0.853-2.552c-1.919-0.778-3.868-1.521-5.531-2.555
		c2.903-0.066,4.288,1.385,5.955,2.555c0.073-0.496,0.674-0.463,1.277-0.428c-0.53-3.506,5.428-6.562,3.828-8.934
		c2.329-0.649,2.809-3.146,4.255-4.679c-0.701-1.239-1.271-3.077-0.425-4.681c-3.394-2.073-7.875-1.801-11.486,0
		c-2.335-1.687-6.27-0.786-7.659-0.426c2.742-2.315,7.545-2.195,11.487-1.276c2.234-1.971,6.442-2.735,9.785-1.275
		c2.063-1.765,5.171-2.485,6.381-5.104c-0.007-0.704-1.182-0.238-1.277-0.852c3.288-0.398,3.494-3.879,6.808-4.254
		c0.539-1.301,0.604-3.082,1.276-4.253c-0.663,1.511,1.444,0.258,1.275,1.274c-1.276,0.566-2.021,1.667-1.7,3.829
		c-1.936-0.574-0.89,1.01-1.278,1.701c-1.751,3.129-6.792,6.453-4.254,7.658c-2.155-0.258-3.112,2.021-1.701,4.254
		c1.5-0.343,2.384-1.302,3.404-2.126c-1.359,2.611-4.381,3.56-5.104,6.806c1.375,0.525,0.324-1.376,1.7-0.851
		c-0.503,1.92,1.886,0.95,1.276,2.979c-2.835-0.143-3.855-2.1-5.956-2.979c-0.903,1.854,0.95,2.329,0,3.829
		c0.758,0.254,1.767-1.247,2.128,0c-0.743,0.867,0.316,0.834-0.426,1.702c-0.575-0.136-0.813-0.606-1.702-0.427
		c-0.868,2.396-1.463,5.059-4.254,5.532c0.325,1.085,0.627,1.954-0.425,2.551c-0.586,0.02-0.934-0.2-1.277-0.425
		c0.899,2.316-1.601,1.235-2.127,2.128c0.134,3.255-2.011,7.912-4.679,9.784c-0.629,2.161,1.784,5.116,0.85,7.657
		c0.86,0.983,1.416,2.271,2.979,2.551c0.671-0.037,0.333-1.083,1.276-0.85c0.082,2.121,3.188,0.271,5.105,1.275
		c0.038,1.162-0.709,0.857,0,1.703c0.894,0.381,1.891,0.66,2.552,1.276c1.845-2.487,4.547,0.387,5.531,1.277
		c2.458,2.223,8.784,1.938,8.509,5.104c4.795,2.129,9.519,0.483,14.463,0c0.99-1.669-0.521-1.583-0.426-3.404
		c1.203-0.351,1.103,0.601,2.128,0.426c2.61-2.921,3.672-7.391,8.934-7.658c2.409-2.779,5.113-7.246,8.935-7.23
		c1.458-2.107,2.767-6.082,5.954-5.106c-0.506-1.783,1.794-0.759,2.128-1.701c0.434-6.112,11.811-9.27,7.231-17.866
		c-1.336-0.367-4.397,0.994-3.829-1.278c3.426,1.22,5.956-1.927,6.808-4.68c-2.208-0.441-1.111-3.07-3.404-2.552
		c0.464-1.016,2.647-3.177,0.851-3.828c0.064,1.056-0.219,1.763-0.851,2.126c0.138-2.302,1.686-4.956-0.425-5.956
		c1.842-2.47-0.252-6.416,0.425-8.933c-0.005,0.43-0.745,0.534-0.851,0v-1.275c0.81,0.181,1.069,0.916,2.127,0.85
		c0.197-3.129,0.088-5.932-0.135-8.57c1.967-0.644,3.896-1.661,5.75-2.845c0.643,0.29,1.315,0.491,1.995,0.617
		c-0.499,2.765-0.11,8.129,0.897,11.649c-4.416,1.426,0.105,6.481-1.275,8.08c1.654-0.125,3.365,1.103,4.68,0
		c0.748,1.523,2.363,2.177,2.978,3.831c3.067,0.118,2.54,1.593,6.382,0c1.107-1.452,5.071-4.749,3.402-8.934
		c0.885-0.25,1.375-0.895,2.128-1.278c-1.04,3.642,3.158,5.963,2.127,9.359c-0.09-0.476-0.473-0.662-0.851-0.85
		c0.668,1.6,2.353,2.184,2.552,4.254c-0.502-0.063-0.965-0.758-1.276,0c0.744,0.93,2.701,3.823,0.852,4.68v-2.978
		c-1.058,0.063-1.767-0.22-2.127-0.853c0.221-0.629,0.629-1.07,0.851-1.7c-2.473-1.639-4.927,0.271-7.657-0.426
		c0.267,2.647,0.058,6.641-1.703,8.509c1.454,1.808,1.044,3.816,0.852,6.382c2.225,0.868,2.568,2.444,2.552,3.827
		c1.658,0.183,1.492-1.608,2.553,0c-1.484,1.856-2.479,2.188-2.553,5.106c-0.004,0.185,2.126,11.783,4.255,11.911
		c-1.538-0.401-0.593,1.677-0.851,2.553c2.792,1.171,2.579,5.509,1.702,7.657c1.676-0.26,1.884,0.952,2.127,2.126
		c1.559,0.001,3.286-0.165,2.978,1.704c4.244-0.774,6.229,0.601,11.06,0c-0.972-1.865,0.297-3.537,1.276-4.682
		c-1.087-0.897-1.881-2.089-2.551-3.402c1.103-0.545-0.328-2.544,0.424-2.552c0.501,0.065,1.207-0.073,1.277,0.424
		c-0.245,0.892-1.055,1.216-0.851,2.553c3.589,3.36,5.294,8.604,6.806,14.039c1.657-0.239,1.492,1.345,2.552,1.702
		c-0.886,0.673-0.143,2.976-0.85,3.829c2.407,2.271,3.997,5.363,5.104,8.933C151.809,0.493,150.654,0.368,150.318-0.572z
		 M-91.739,81.959c-2.085-0.081-2.085,2.632,0,2.552C-91.158,83.968-91.158,82.502-91.739,81.959z M-94.292,32.186
		c1.165,0.975,2.71,0.888,4.254,0.425C-89.824,30.916-94.038,30.788-94.292,32.186z M-159.38,94.295
		c0.205,1.341-1.305,0.963-0.851,2.553c2.019-0.175,2.234,1.452,4.254,1.276c0.226-1.191,0.624-2.212,0.851-3.402
		C-156.57,94.606-158.575,95.051-159.38,94.295z M-155.977,90.894h2.553c-0.197-2.07-0.284-1.604,0.425-2.979
		c-0.709,0-1.418,0-2.127,0C-154.706,89.611-156.396,89.195-155.977,90.894z M-289.98,78.556c-0.055-0.94-1.806-0.182-2.554-0.427
		c-0.361,1.252,1.151,2.765,1.701,1.702C-293.539,78.573-288.584,78.736-289.98,78.556z M-296.789-83.103
		c1.056,0.063,2.065,0.08,2.127-0.85C-295.063-84.394-296.854-84.341-296.789-83.103z M-234.252-95.44
		c0.233-1.015,1.583-3.082,0-3.403c0.045,1.466-1.467,1.37-1.702,2.554C-235.109-96.285-235.414-95.131-234.252-95.44z
		 M-220.64,21.123c-1.144,0.293-0.821-0.879-1.276-1.275c-1.089,0.046-2.028,0.241-2.553,0.851
		C-222.587,19.981-221.487,22.216-220.64,21.123z M-273.39,35.589c0.414,1.054-0.718,2.076,0.85,3.404
		C-273.418,37.782-271.822,34.544-273.39,35.589z M-257.649,31.76c-0.636,1.404-0.503-1.424-1.702-0.851
		c-1.363,0.197-1.5,1.619-2.979,1.701c-1.414-0.713-1.915-2.339-4.679-1.701c0.018,2.796-3.057-0.015-5.105,0.851
		c0.606,4.685,1.324,7.143,0.426,11.061c3.107,0.963,0.349,6.121,4.254,6.807C-262.473,46.473-255.396,38.354-257.649,31.76z
		 M-249.993-0.572c-0.875,1.431-0.846,2.477,0.426,3.403C-248.692,1.118-247.863,0.436-249.993-0.572z M-249.567,48.776
		c-0.569-1.132-0.136-3.269-1.276-3.829c0.191,0.695-2.319,0.695-2.127,0c0.117-0.876,1.585-0.401,1.702-1.276
		c-2.973-0.409-4.554,1.839-3.404,4.254c-1.45,0.669-2.235,0.736-3.829,0.426c-0.039-1.16,0.708-0.856,0-1.701
		c-4.812,0.161-10.802,3.161-10.635,8.508c0.804,0.319,0.295,1.27,1.276,0.425c1.681,4.843,1.032,12.015,5.956,13.613
		c1.948-0.461,4.165-0.655,6.381-0.851c-0.032-1.527,0.344-3.464-0.853-3.827c2.431,0.405,5.43,0.242,7.659,0.851
		c0.066-0.501-0.074-1.208,0.424-1.277c7.318,1.855,13.04-1.001,19.996-2.127c3.268-4.08,2.914-7.964,3.828-13.188
		c-0.44-1.12-1.687-1.434-2.127-2.553c2.557-3.956-0.836-7.906,0.426-10.635c-0.567-0.427-1.284-0.703-1.702-1.277
		c1.425-3.642-2.761-8.033-7.232-8.509c-4.029,3.233-4.027,8.987-7.657,13.19c2.802,0.559,0.697,3.491,2.553,5.104
		c-1.322-0.536-3.166-0.804-4.254-0.426c-0.917,0.36,0.16,2.712-0.85,2.979C-247.096,46.243-247.815,48.043-249.567,48.776z
		 M-245.739,5.384c0.837,0.127,0.844-0.574,1.277-0.851c0.156,1.963,0.523,2.448,0,4.254c1.833-0.671,1.982,2.518,2.979,1.276
		c-0.261-0.024-0.505-0.063-0.427-0.426c2.127-1.442-0.078-5.183,2.553-5.53c-2.606-1.648-4.741-3.768-5.956-6.807
		c-0.346,2.524,0.297,5.079,2.127,6.381C-244.719,3.567-246.129,3.575-245.739,5.384z M-192.137-8.229
		c-0.922-2.204-4.235-4.266-6.381-3.829c0.66,0.385,0.221,1.565,0,1.702c-4.9,0.093-7.597-0.025-8.935,3.828
		c2.014,3.509-0.589,6.239-1.275,9.359c-0.49-2.901,0.752-4.069,0.851-6.381c-2.528-2.861-3.278-7.499-6.38-9.785
		c0.293,1.145-0.88,0.822-1.276,1.276c-2.457-2.551-8.857,1.239-9.784-1.276c1.48,0.72,1.485,0.157,2.126-0.851
		c1.701,1.24,4.153-0.813,3.828-1.7c3.239,4.788,8.367-1.537,13.188,1.275c0.058-1.477-2.155-0.683-2.127-2.128
		c1.02-6.938-6.857-10.099-7.232-15.739c-2.07-0.482-3.593-1.513-3.829-3.829c-8.968-0.487-14.58-6.092-22.972-4.68
		c-1.004,0.13-0.792,1.479-2.127,1.275c1.274,0.813,2.344,5.042-0.425,5.107c0.515,2.055,1.48,2.285,0.85,4.677
		c1.72-0.017,0.36,3.045,1.277,3.829c-4.125,4.896-1.104,14.339-3.828,20.421c5.357,3.009,9.716,7.016,13.187,11.911
		c2.091,0.651,3.707-1.37,4.679-0.425c-1.396,0.163-1.875,1.244-2.977,1.701c-0.236,4.206,1.749,6.192,5.955,5.956
		c0.563-1.064-1.681-1.332-0.425-1.702c1.805,1.679,2.727,3.983,2.979,5.104c0.88-0.68,1.34-1.779,2.552-2.126
		c0.477,1.367,1.495,2.192,2.979,2.551c1.506-1.102,7.556-3.209,5.955,0.426c1.232,0.136,2.201,0.104,1.277,2.128
		c3.928-0.524,5.051,1.755,7.231,2.979c8.807-0.328,10.375-10.651,19.569-11.913c-0.552-1.055,0.95-2.063,0-2.126
		C-184.629,4.625-185.488-6.98-192.137-8.229z M-178.949-3.125c-3.029,0.187-3.806-4.126-6.806-2.552
		c1.642,2.186,3.855,3.801,4.254,7.231c2.277-0.076,3.072,1.555,4.678,0C-176.944-0.592-178.879-0.927-178.949-3.125z
		 M-127.049,17.72c1.969-5.572,5.439-13.133-0.851-16.165c-0.662,1.731-1.073,0.944-2.552,0.426c-1.292,1.98-4.461,2.553-5.53,5.104
		C-138.717,13.607-134.386,22.206-127.049,17.72z M-133.006-35.881c-1.927-0.852-6.601-0.447-6.381,0.851
		c-3.656-0.597-6.287-2.222-9.359-3.404c-3.616,2.313-9.118,1.033-13.612,2.979c0.46,1.383,2.463,1.224,2.552,2.979
		c-0.174,0.534-0.549,0.867-1.276,0.851c-0.229,1.505,1.507,1.046,1.276,2.553c-4.157,3.005-0.911,8.88-3.828,12.336
		c0.967,2.263-3.134,8.552-4.255,8.935c-0.425,2.495,3.051,4.543,3.405,7.657c2.324,0.084,3.944-2.391,5.104,0
		c-2.151-0.309-3.065,0.621-3.829,1.701c-0.661-1.751-2.87-0.325-2.553-2.127c-1.778,2.066,1.946,4.454,4.253,5.105
		c-0.731-0.023-1.09,0.327-1.276,0.851c0.637,0.072,1.57-0.152,1.702,0.426c-1.541,2.546,2.204,3.46,2.979,5.104
		c0.058-0.791,0.278-1.42,0.85-1.7c-0.091,2.321,0.452,2.087,1.703,1.276c-0.352,1.202,0.599,1.102,0.425,2.127
		c1.777,0.358,2.008-0.827,3.404-0.852c0.993,2.115,3.644,2.446,5.955,1.276c0.44,1.066,1.928,1.345,0.426,2.127
		c1.642-0.083,3.133-0.016,4.253,0.426c-0.763-2.322,2.272-0.847,1.701-2.978c-1.51-0.9-3.468-1.353-5.104-2.127
		c0.039-0.671,1.085-0.333,0.851-1.276c-2.734-0.527-1.737-4.787-4.253-5.531c-0.595,1.224,1.16,2.161,0,2.553
		c-1.065,0.072-1.332-0.653-1.702-1.276c0.75-0.384,1.318-0.952,1.702-1.702c-5.48-1.185-5.158-8.172-11.486-8.508
		c0.023,0.732-0.328,1.091-0.851,1.276c-0.135-0.575-0.606-0.813-0.427-1.701c3.199-0.46,5.035-0.94,5.956,1.701
		c1.463,0.186,2.386-0.168,3.404-0.426c0.045,5.897,6.171,6.564,7.657,12.338c3.143-2.956,8.229-3.968,11.487-6.808
		c-0.612-2.881,2.56-1.978,4.679-2.127c-0.197-2.014,0.37-0.631,1.702-0.851c0.283-2.126-1.04-2.647-2.127-3.403
		c3.063-3.978,0.085-10.885-2.127-13.613c0.246-1.171,1.059-1.775,1.275-2.978c-0.636-0.073-1.57,0.152-1.701-0.426
		C-130.22-26.402-131.09-31.84-133.006-35.881z M-86.21-94.164c0.303,1.062-1.872,1.749-0.424,2.554
		c0.093-0.333,0.356-0.495,0.849-0.426C-86.017-92.656-85.288-94.235-86.21-94.164z M-69.618-38.435
		c-2.423,0.213-0.774,2.147-1.701,3.404C-70.379-35.731-69.161-37.666-69.618-38.435z M-33.884-80.552
		c0.732,0.021,1.09-0.327,1.276-0.851c-1.869-3.207-6.956-1.13-8.935,0.425c2.583,1.477-0.972,3.067,0.427,6.381
		c2.962,0.412,3.774-1.327,5.104-2.551c1.353,1.187,3.805-0.147,4.679-0.851C-31.346-79.686-32.973-79.761-33.884-80.552z
		 M-22.822-71.191h2.551c-0.843-1-1.515-2.173-3.403-2.127C-23.99-72.011-22.506-72.502-22.822-71.191z M-34.309,39.416
		c-0.802-0.588-2.78,0.371-3.829,0.853C-36.512,40.334-35.041,40.245-34.309,39.416z M-41.967,39.416
		c0.073-0.635-0.152-1.568,0.425-1.701c1.674,1.633,4.366-0.102,6.808,0c2.44,0.104,4.688,2.191,6.381,0.425
		c3.377-3.521,5.285-5.246,2.978-8.934c1.175,0.184,0.4-1.586,1.276-1.7c-0.756,2.601,1.113,2.575,1.703,3.829
		c-0.115,0.876-1.884,0.101-1.703,1.275c6.012,0.622,7.326-3.451,10.211-5.955c0.656-1.82-2.332-2.17-1.276-2.979
		c0.563,1.12,2.791-0.08,1.276-0.851c-0.049,0.518-0.128,1.006-0.852,0.851c0.589-1.908,0.134-1.899-0.851-2.979
		c0.63-0.221,1.072-0.63,1.702-0.851c-1.174,1.137,0.503,0.925,0.425,2.126c1.961-0.879,3.283-4.429,3.025-6.501
		c-0.037,0.667-0.894,1.408-0.899,0.546c0.222-0.629,0.63-1.071,0.852-1.7c-3.94-1.029-5.815-3.357-10.636-2.554
		c-0.622,3.084-2.242,7.273-3.403,11.062c-0.14-1.153-0.316-5.587,0.851-6.808c-2.447-3.788-4.063-8.206-9.785-7.657
		c0.502,2.359-3.361,0.606-3.403,1.276c0.436,0.416,0.861,0.841,1.276,1.275c-3.726,0.766-10.42,1.811-8.507,5.531
		c-2.308-0.464-2.829,0.857-4.68,0.85c0.14,2.904-1.264,2.491-2.979,1.703c-0.174,2.662-2.358,3.313-4.254,4.254
		C-51.841,29.156-47.117,34.499-41.967,39.416z M-34.309,2.831c-1.394,0.31-1.875,1.529-2.554,2.553
		C-35.015,5.529-34.63,4.212-34.309,2.831z M-53.027,66.218c-1.514-0.096-2.549,0.287-2.979,1.277
		C-54.385,67.697-53.35,67.314-53.027,66.218z M-80.254,66.218c2.651-0.812,1.344,0.369,2.128,1.702
		c1.025-2.52,2.417-6.003,0.425-7.657c1.203-0.352,1.103,0.6,2.127,0.426c1.144-2.519-0.398-3.497-0.85-5.531
		c-2.754-0.2-3.921-0.584-5.531,0.852C-81.826,58.941-81.633,63.37-80.254,66.218z M-82.806,28.356
		c0.494,0.357,1.141,0.56,2.127,0.425C-80.43,27.057-82.429,27.431-82.806,28.356z M-64.513,24.953
		c0.545,2.529-2.231,1.74-2.128,3.828c1.313,1.321,2.917,0.004,4.254,0.851c-0.517,1.186-2.879,0.524-2.978,2.128
		c0.054-1.299-2.215-1.195-2.553-0.851c-0.525,1.376,1.377,0.325,0.852,1.701c-1.488-0.757-2.716,2.133-1.276,3.829
		c-2.223,1.889-5.876,2.347-6.381,5.955c-0.73-0.546-0.854-1.697-1.701-2.126c-3.337,0.653-4.742,2.867-4.68,5.104
		c0.077,2.814,2.895,5.113,4.254,5.53c-0.669,0.041-1.476-0.058-1.276,0.851c0.543,0.024,0.589,0.545,1.276,0.426
		c0.718-1.229,3.33-0.564,3.762-2.082c-0.188,1.618,0.147,3.76-1.21,4.21c2.361,4.247-1.394,10.156,1.703,14.464
		c-0.171,1.105-1.271,1.281-1.277,2.552c0.98,1.43,1.986,2.836,3.829,3.403c4.843-2.246,5.866-8.314,10.21-11.061
		c-0.094-1.875-0.666-2.93,0.427-4.255h1.7c1.736-3.51,2.025-8.469,5.105-10.635c-0.622-2.668-2.383-3.037-1.701-5.105
		c-0.386,1.027-2.402,0.182-2.553-0.426c0.772-2.49-2.396-3.253-0.852-5.105c1.036,3.529,5.394,5.478,8.934,2.979
		c-0.543-1.584-0.699-3.555-2.553-3.829c1.852-1.279,2.375,0.954,4.255,0c-0.419-2.418-3.575-2.097-4.681-3.829
		c2.322-2.012-1.795-4.644-3.828-5.104c0.208,1.395,2.404,2.863,0,3.403c0.025-3.077-4.509-3.133-3.404-5.957
		C-60.96,25.714-61.882,24.903-64.513,24.953z M4.828-23.119c-3.333-4.455-8.873-3.35-13.612-2.129
		c0.213,2.059-2.069,1.62-2.979,2.555c-6.15-3.559-10.761,0.672-18.292-1.276c-1.247-2.867-3.914-4.311-5.956-6.381
		c-0.048,0.815-1.424-0.5-2.552,0c-1.067,1.956-1.093,3.737-2.552,5.954c2.507,4.943,0.886,9.64,2.127,14.465
		c-0.206,1.354-1.341,1.78-1.277,3.403c0.126,0.866,0.852,1.134,1.277,1.701c-1.066-0.052-1.332-0.812-1.702,0.426
		c1.333,0.295,0.554,1.135,0.425,2.128c1.024,0.393,2.06,0.775,2.978,1.275c-1.312,1.063-2.379-1.558-2.978,0.852
		c-0.332-1.654-1.581-2.392-2.128-3.829c2.136,0.319-0.726-1.729,1.278-1.276c-0.918-2.061-1.137-4.82-2.129-6.807
		c2.13-2.48,0.212-6.093,2.129-7.231c-1.696-1.708-5.404-1.403-6.383-3.829c-7.382-2.226-10.63,2.392-17.441,2.979
		c-0.924,2.777-6.944,3.998-2.554,7.23c0.868-0.294,2.662-1.838,2.979-1.275c-1.703,3.766-0.321,6.954,0.85,10.636
		c1.078-0.624,1.646-1.758,3.403-1.702c1.819,4.942-1.722,15.088,1.702,20.42h2.127c1.043-0.566-0.766-1.285,0.425-1.701
		c0.033,1.094,1.983,0.607,0.852,1.701c5.166,0.061,6.569-3.639,8.933-6.381c1.701,0.418,2.554,0.418,4.254,0
		c2.946-4.624,8.912-7.833,8.934-14.039c-0.099,1.658,0.914,2.206,1.276,3.403c-0.928-0.076-1.353,0.348-1.276,1.276
		c1.337-0.203,1.738,0.53,2.127,1.276c-0.396-0.26-1.569-0.99-1.275,0.425c0.715,1.788,4.119,0.588,5.104,0
		c1.33,0.799,2.346,1.909,4.255,2.127c0.59-0.26,0.063-1.637,0.85-1.701c-0.414,1.69,2.378,0.176,2.127,1.701
		c-2.201-0.214-2.766,1.205-5.105,0.852c-0.058,1.866,2.737-0.813,2.127,2.127c-1.012-0.248-1.982-0.651-2.127,0.851
		c0.586,0.019,0.934-0.2,1.275-0.425c0.15,5.319,12.806,5.497,16.166,2.553c2.758,1.087,2.977-2.228,6.807-1.276
		c0.091-1.963-1.994,0.678-1.701-1.702c3.77,2.336,5.79-2.959,4.254-5.53c3.58-1.431,1.912-5.953,3.403-8.934
		c-1.033-1.614-1.768-2.413-2.127-3.829c1.609,1.483,1.233-1.597,3.404-0.852C6.124-16.903,5.408-18.811,4.828-23.119z
		 M6.105-25.248c-0.686,3.412-0.004,4.967,1.275,7.233c3.218,0.143-0.366-3.922,2.553-3.828c0.31,1.161-0.845,0.856-0.851,1.702
		c3.008-1.045,0.99-4.756,2.978-6.382C9.304-29.402,8.193-22.762,6.105-25.248z M-135.131-82.252
		c-1.377-0.525-0.326,1.376-1.703,0.85c-1.358-4.354-2.097-7.983-4.172-12.166c1.047,0.613,2.089,1.125,3.125,1.536
		c1.598,5.684,5.541,11.454,7.43,17.862C-132.235-76.644-135.776-77.356-135.131-82.252z M-145.555-93.881
		c0.3-0.802,0.626-1.579,0.985-2.321c0.195-0.014,0.392-0.033,0.589-0.058c0.516,0.834,1.232,1.578,2.139,2.187
		c-0.879-0.319-1.892-0.503-2.649-0.941C-144.656-94.397-145.045-94.058-145.555-93.881z M42.264,30.057
		c-0.821-1.104-1.621-2.237-2.426-3.362C41.198,27.126,43.13,28.896,42.264,30.057z"/>
</symbol>
<use xlink:href="#暗いベクトルパック_15"  width="608.04" height="200.952" x="-304.02" y="-100.476" transform="matrix(-1.6411 0 0 -0.6164 501.0608 38.75)" overflow="visible"/>
</svg>
