<?xml version="1.0" encoding="utf-8"?>
<!-- Generator: Adobe Illustrator 16.2.0, SVG Export Plug-In . SVG Version: 6.00 Build 0)  -->
<!DOCTYPE svg PUBLIC "-//W3C//DTD SVG 1.1//EN" "http://www.w3.org/Graphics/SVG/1.1/DTD/svg11.dtd">
<svg version="1.1" id="レイヤー_1" xmlns="http://www.w3.org/2000/svg" xmlns:xlink="http://www.w3.org/1999/xlink" x="0px"
	 y="0px" width="1000px" height="40px" viewBox="0 0 1000 40" enable-background="new 0 0 1000 40" xml:space="preserve">
<symbol  id="明るいベクトルパック_16" viewBox="-165.708 -75.276 331.416 150.552">
	<path fill="#231F20" d="M-108.572,20.443c0,0,0.42-2.994,3.784-2.18c0,0-1.961,0.545-0.702,2.18
		c1.262,1.63,2.383-0.138,2.383-0.138s5.184,12.378-8.968,16.597C-112.076,36.902-101.146,31.324-108.572,20.443z M-20.998,8.463
		c27.463-12.046,58.01-3.921,58.01-3.921C8.007-0.223-20.998,8.463-20.998,8.463z M-95.821-13.321
		c-11.704,0.244-23.449,2.993-33.519,8.891c-10.107,5.824-18.256,14.604-24.086,24.6l0,0c-0.455,0.772-0.918,1.552-1.363,2.355
		c-7.827,13.908-10.273,26.85-10.812,26.706c-0.576,0.002,1.01-13.422,9.034-27.7c0.457-0.823,0.934-1.621,1.407-2.41h-0.002
		c6.264-10.069,14.882-18.813,25.324-24.437C-119.43-11.013-107.523-13.414-95.821-13.321z M26.601,32.933
		c0.101-0.15,0.2-0.303,0.301-0.456C26.9,32.477,26.801,32.64,26.601,32.933z M54.698,19.351c-0.646,1.72-1.945,3.148-3.897,4.29
		c-6.369,3.721-17.174,4.916-32.415,3.585c-15.244-1.328-30.851-6.159-46.821-14.491c-2.064,0.61-4.047,1.22-5.951,1.825
		c-0.508,0.196-1.013,0.396-1.51,0.6c-4.282,1.979-8.327,4.398-11.885,7.447c-6.141,5.143-10.259,12.604-10.565,20.503l-2.025-0.15
		c0.68-8.449,5.436-16.149,11.942-21.135c1.24-0.975,2.525-1.874,3.848-2.708c-5.494,2.83-10.19,5.952-13.976,9.311
		c-7.167,6.361-11.077,13.555-11.077,21.253c0,2.448,0.396,4.95,1.211,7.497c2.256,7.04,6.59,10.957,11.13,13.143
		c1.649,0.792,3.323,1.353,4.932,1.746c5.321,0.447,10.326,0.1,14.558-0.537c7.255-1.235,13.308-3.541,17.611-6.186
		c1.139-0.755,2.334-1.603,3.416-2.475c0.919-0.801,1.679-1.61,2.267-2.413c1.467-1.998,1.348-3.217,0.586-3.957
		c-0.704-0.439-1.83-0.761-3.497-0.925c-13.333-1.314-19.156,3.942-19.156,3.942c2.066,12.206-14.46,12.206-3.381,1.689
		c11.081-10.514,27.607-4.318,43.76-10.89c14.226-5.788,21.313-15.218,22.799-17.383C15.595,49.555,1.986,59.302-12.911,66.302
		C-26.332,73.056-38.753,76-50.17,75.126c-13.349-1.02-22.629-5.988-27.847-14.909c-3.124-5.343-3.262-11.309-0.412-17.897
		c2.723-6.298,8.327-12.03,16.811-17.196c-12.91,5.958-24.165,15.732-30.542,28.284l-1.786-0.965
		c7.213-12.69,19.133-22.008,32.3-27.365c-2.327,0.837-4.698,1.531-7.095,2.104c-5.094,1.072-10.575,2.114-15.595,0.5
		c5.073,1.34,10.417,0.022,15.386-1.293c4.997-1.474,9.862-3.491,14.244-6.206c2.174-1.362,4.25-2.915,5.872-4.771
		c1.621-1.831,2.686-4.112,2.088-6.108c-1.371-4.137-6.881-6.341-11.417-8.021c-9.325-3.682-20.502-3.47-29.421,1.563
		c-2.125,1.249-4.352,2.938-5.1,5.022c-0.705,2.1,2.938,2.813,5.155,2.553c5.079-0.693,8.833-5.271,11.275-9.719
		c-2.237,4.556-5.649,9.431-11.161,10.535c-1.344,0.219-2.747,0.146-4.071-0.222c-1.362-0.201-2.895-1.771-2.397-3.433
		c0.91-2.899,3.238-4.615,5.434-6.134c6.02-3.824,13.193-5.523,20.34-5.261c-0.82-0.247-1.617-0.479-2.389-0.688
		c-1.868-0.51-3.727-0.947-5.579-1.313c-5.349-0.658-10.384-0.964-15.092-0.964c-15.878-0.003-28.057,3.472-36.195,8.519
		c-4.069,2.522-7.128,5.436-9.157,8.487c-2.029,3.054-3.035,6.237-3.035,9.366c0,2.161,0.479,4.304,1.463,6.385
		c1.834,3.869,4.288,6.48,6.991,8.147c2.701,1.663,5.672,2.386,8.54,2.386c3.51,0.003,6.862-1.095,9.269-2.817
		c1.207-0.859,2.176-1.869,2.833-2.955c0.656-1.088,1.005-2.24,1.005-3.446c0-0.751-0.135-1.527-0.437-2.334
		c-0.211-0.561-0.439-1.076-0.684-1.551c-0.212,1.639-1.254,3.115-2.836,4.238c0.672-0.661,1.057-1.43,1.057-2.25
		c0-2.47-3.48-4.472-7.776-4.472c-4.296,0-7.776,2.002-7.776,4.472c0,0.832,0.396,1.611,1.086,2.278
		c-0.068-0.165-0.105-0.336-0.105-0.511c0-1.508,2.667-2.73,5.956-2.73c3.287,0,5.954,1.223,5.954,2.73
		c0,1.51-2.667,2.732-5.954,2.732c-1.227,0-2.368-0.171-3.315-0.46c-4.064-0.953-6.985-3.572-6.985-6.655
		c0-3.566,3.909-6.512,8.978-6.975c-1.17-0.726-3.328-2.615-2.391-6.361c0,0,0.281,4.901,4.764,4.479
		c4.482-0.419,9.948-0.558,12.329,3.363c0,0-2.199,0.6-1.954,3.49c0.672,0.964,1.266,2.091,1.752,3.395
		c0.393,1.046,0.582,2.097,0.582,3.121c0,1.651-0.492,3.219-1.334,4.606c-1.266,2.084-3.295,3.781-5.733,4.977
		c-2.442,1.19-5.303,1.876-8.284,1.877c-3.242,0.001-6.631-0.82-9.716-2.719c-3.086-1.899-5.846-4.877-7.843-9.098
		c-1.119-2.366-1.677-4.849-1.677-7.344c0-0.751,0.052-1.503,0.152-2.25c0.854-7.907,6.831-21.755,37.008-27.027
		c9.372-1.638,18.902-1.433,28.135-0.089c4.999,0.434,10.396,1.461,16.186,3.075c-31.468-17.354-52.308-11.812-52.308-11.812
		c4.624,3.364-4.834,3.993-12.61,3.993c-7.776,0-15.973,4.624-15.973,4.624C-96.871-37.317-38.766-1.106-26.934,6.886
		c1.966,1.005,3.96,2.05,5.988,3.144c6.32-2.198,15.917-3.833,28.792-4.904c12.87-1.071,23.318-0.664,31.345,1.222
		c8.024,1.887,13.106,4.665,15.255,8.336C55.262,16.075,55.345,17.633,54.698,19.351z M-59.526,24.819
		c-9.249,5.404-15.236,11.291-17.964,17.661c-2.729,6.371-2.719,11.905,0.027,16.604c3.361,5.75,9.715,9.788,19.056,12.121
		c1.004,0.204,2.002,0.374,2.992,0.514c-0.707-0.261-1.416-0.555-2.123-0.893c-4.651-2.233-9.126-6.291-11.423-13.479
		c-0.832-2.599-1.236-5.159-1.236-7.669c0-7.898,4.02-15.249,11.265-21.675c4.661-4.132,10.655-7.892,17.795-11.194
		C-48.939,19.544-55.071,22.214-59.526,24.819z M-46.967,4.218c1.191,1.21,2.18,2.674,2.618,4.506
		c0.715,3.253-1.088,6.158-2.968,8.071c-0.898,0.923-1.869,1.74-2.883,2.48c5.872-2.539,12.487-4.808,19.842-6.803
		c0.242-0.085,0.484-0.168,0.729-0.253C-35.911,9.178-41.688,6.512-46.967,4.218z M53.096,15.089
		c-2.992-5.118-12.401-8.142-28.222-9.072C9.055,5.087-5.904,6.588-20.001,10.521c7.11,4.271,16.07,8.134,26.881,11.585
		s19.728,5,26.751,4.64c7.022-0.357,12.577-1.732,16.668-4.124c1.719-1.003,2.797-2.197,3.239-3.579
		C53.977,17.665,53.828,16.346,53.096,15.089z M-60.373,42.959l2.025,0.15c-0.686,5.284-0.027,10.868,1.924,16
		C-58.994,54.242-60.403,48.661-60.373,42.959z M-92.161,53.407c-2.573,4.14-4.743,8.635-5.948,13.44
		c0.541-4.941,2.1-9.793,4.161-14.405L-92.161,53.407z M-85.427,15.918v-0.002c-0.199,0.143-0.397,0.292-0.606,0.43
		c-3.578,2.47-7.077,3.346-7.262,2.801c-0.189-0.518,2.739-2.15,6.112-4.48l0.579-0.399v-0.002
		c5.073-3.156,9.499-7.709,11.782-13.497C-76.446,6.769-80.471,12.028-85.427,15.918z M-73.729,0.936
		c-0.195,3.636-1.33,7.208-3.01,10.478l-0.002-0.001l-0.219,0.373c-1.271,2.183-2.787,3.614-3,3.418
		c-0.205-0.182,0.896-1.83,2.124-3.937l0.214-0.358l0,0C-75.707,7.907-74.265,4.538-73.729,0.936z"/>
	<path fill="#231F20" d="M108.574-20.442c0,0-0.422,2.994-3.786,2.18c0,0,1.964-0.545,0.701-2.18
		c-1.259-1.631-2.381,0.138-2.381,0.138s-5.184-12.378,8.968-16.596C112.076-36.9,101.146-31.323,108.574-20.442z M20.999-8.462
		C-6.465,3.584-37.012-4.54-37.012-4.54C-8.006,0.224,20.999-8.462,20.999-8.462z M95.823,13.322
		c11.704-0.242,23.449-2.992,33.517-8.891c10.106-5.823,18.258-14.604,24.086-24.599h0.003c0.455-0.772,0.918-1.551,1.363-2.356
		c7.826-13.907,10.271-26.85,10.81-26.705c0.576-0.003-1.01,13.421-9.034,27.7c-0.455,0.823-0.932,1.62-1.404,2.409l0.002,0.001
		c-6.266,10.07-14.886,18.814-25.326,24.437C119.429,11.014,107.522,13.415,95.823,13.322z M-26.601-32.932
		c-0.102,0.15-0.201,0.302-0.301,0.456C-26.9-32.476-26.802-32.639-26.601-32.932z M-54.699-19.349
		c0.648-1.721,1.945-3.149,3.899-4.29c6.367-3.722,17.172-4.917,32.413-3.586c15.246,1.328,30.851,6.159,46.821,14.492
		c2.064-0.611,4.049-1.221,5.954-1.826c0.508-0.196,1.01-0.396,1.507-0.598c4.282-1.979,8.329-4.4,11.885-7.449
		c6.144-5.141,10.259-12.604,10.567-20.503l2.025,0.151c-0.682,8.448-5.438,16.149-11.944,21.134
		c-1.24,0.974-2.523,1.875-3.849,2.708c5.495-2.829,10.19-5.951,13.977-9.311c7.168-6.361,11.079-13.555,11.079-21.253
		c0-2.447-0.396-4.95-1.211-7.497c-2.256-7.04-6.593-10.956-11.132-13.143c-1.646-0.792-3.323-1.353-4.933-1.746
		c-5.318-0.446-10.323-0.099-14.556,0.537c-7.257,1.235-13.31,3.541-17.613,6.186c-1.139,0.756-2.332,1.603-3.414,2.475
		c-0.918,0.802-1.681,1.61-2.269,2.412c-1.465,2-1.346,3.219-0.584,3.958c0.702,0.438,1.831,0.762,3.495,0.925
		c13.335,1.314,19.156-3.941,19.156-3.941c-2.065-12.206,14.463-12.206,3.381-1.69C28.878-50.69,12.351-56.887-3.801-50.314
		c-14.226,5.789-21.311,15.219-22.799,17.383c11.008-16.623,24.614-26.37,39.512-33.37c13.419-6.753,25.841-9.698,37.26-8.824
		c13.349,1.02,22.629,5.989,27.847,14.909c3.121,5.343,3.262,11.31,0.412,17.897c-2.723,6.298-8.329,12.03-16.811,17.195
		c12.91-5.955,24.165-15.729,30.541-28.283l1.786,0.967c-7.213,12.688-19.133,22.007-32.302,27.364
		c2.327-0.837,4.7-1.532,7.097-2.105c5.094-1.071,10.573-2.113,15.595-0.5c-5.074-1.34-10.417-0.021-15.386,1.295
		c-4.998,1.473-9.862,3.489-14.245,6.203c-2.174,1.365-4.249,2.917-5.872,4.773c-1.621,1.829-2.686,4.11-2.088,6.107
		c1.371,4.135,6.882,6.339,11.419,8.02c9.325,3.682,20.502,3.47,29.42-1.563c2.124-1.25,4.353-2.938,5.102-5.022
		c0.705-2.1-2.94-2.813-5.157-2.554c-5.077,0.693-8.831,5.271-11.272,9.719c2.236-4.555,5.648-9.43,11.159-10.533
		c1.346-0.221,2.748-0.147,4.071,0.22c1.362,0.201,2.896,1.771,2.397,3.433c-0.91,2.899-3.238,4.615-5.434,6.134
		C82.43,2.375,75.258,4.073,68.11,3.812c0.82,0.247,1.617,0.479,2.387,0.688c1.867,0.51,3.728,0.947,5.58,1.314
		c5.349,0.657,10.384,0.962,15.09,0.962c15.881,0.003,28.06-3.471,36.197-8.52c4.068-2.521,7.127-5.435,9.155-8.484
		c2.029-3.057,3.038-6.238,3.038-9.367c0-2.161-0.481-4.305-1.464-6.384c-1.834-3.871-4.287-6.482-6.991-8.148
		c-2.701-1.664-5.672-2.387-8.54-2.387c-3.512-0.003-6.861,1.096-9.271,2.817c-1.205,0.859-2.174,1.869-2.83,2.955
		c-0.656,1.088-1.008,2.241-1.008,3.447c0,0.75,0.135,1.526,0.438,2.333c0.214,0.563,0.441,1.078,0.686,1.553
		c0.213-1.64,1.254-3.116,2.836-4.238c-0.672,0.66-1.059,1.43-1.059,2.25c0,2.47,3.483,4.472,7.776,4.472
		c4.296,0,7.776-2.002,7.776-4.472c0-0.831-0.396-1.61-1.084-2.278c0.068,0.166,0.104,0.336,0.104,0.511
		c0,1.508-2.667,2.73-5.956,2.73c-3.287,0-5.953-1.223-5.953-2.73c0-1.51,2.666-2.732,5.953-2.732c1.229,0,2.368,0.171,3.316,0.461
		c4.063,0.952,6.983,3.571,6.983,6.654c0,3.568-3.908,6.513-8.975,6.975c1.169,0.726,3.326,2.614,2.392,6.362
		c0,0-0.283-4.902-4.765-4.48c-4.486,0.419-9.949,0.558-12.33-3.363c0,0,2.199-0.6,1.951-3.488c-0.67-0.967-1.266-2.093-1.75-3.397
		c-0.395-1.045-0.582-2.094-0.582-3.119c0-1.652,0.492-3.22,1.332-4.606c1.268-2.085,3.297-3.783,5.735-4.977
		c2.441-1.191,5.303-1.877,8.283-1.878c3.241,0,6.632,0.82,9.717,2.719c3.084,1.898,5.846,4.877,7.84,9.099
		c1.121,2.366,1.681,4.85,1.678,7.344c0.003,0.751-0.051,1.503-0.152,2.25c-0.852,7.907-6.829,21.754-37.006,27.026
		c-9.373,1.638-18.901,1.433-28.135,0.089c-4.999-0.434-10.396-1.461-16.186-3.075c31.469,17.354,52.306,11.811,52.306,11.811
		c-4.623-3.361,4.835-3.992,12.611-3.992s15.974-4.623,15.974-4.623C96.872,37.318,38.765,1.107,26.933-6.885
		c-1.966-1.005-3.96-2.049-5.988-3.144C14.624-7.83,5.026-6.195-7.847-5.124c-12.872,1.071-23.32,0.664-31.347-1.222
		c-8.022-1.887-13.107-4.665-15.253-8.335C-55.26-16.075-55.342-17.631-54.699-19.349z M59.529-24.817
		c9.245-5.405,15.234-11.292,17.963-17.661c2.729-6.371,2.719-11.905-0.027-16.604c-3.364-5.751-9.718-9.789-19.057-12.123
		c-1.006-0.202-2.002-0.373-2.995-0.514c0.71,0.263,1.417,0.556,2.126,0.895c4.65,2.232,9.125,6.29,11.421,13.478
		c0.832,2.599,1.238,5.162,1.238,7.669c0,7.899-4.02,15.249-11.267,21.674c-4.659,4.134-10.655,7.893-17.795,11.197
		C48.938-19.543,55.07-22.213,59.529-24.817z M46.966-4.216c-1.19-1.211-2.179-2.674-2.615-4.507
		c-0.718-3.251,1.086-6.158,2.965-8.071c0.9-0.923,1.869-1.74,2.883-2.48c-5.871,2.54-12.485,4.808-19.842,6.803
		c-0.242,0.085-0.484,0.168-0.729,0.253C35.913-9.177,41.688-6.51,46.966-4.216z M-53.095-15.088
		c2.993,5.118,12.4,8.142,28.22,9.072c15.819,0.93,30.778-0.572,44.877-4.504c-7.11-4.271-16.072-8.135-26.883-11.586
		c-10.809-3.451-19.725-5-26.75-4.64c-7.021,0.359-12.579,1.732-16.669,4.123c-1.717,1.004-2.797,2.198-3.237,3.58
		C-53.976-17.663-53.83-16.345-53.095-15.088z M60.374-42.958l-2.025-0.15c0.684-5.283,0.025-10.868-1.926-16
		C58.993-54.241,60.402-48.66,60.374-42.958z M92.161-53.406c2.574-4.14,4.744-8.634,5.949-13.44
		c-0.541,4.942-2.102,9.793-4.163,14.406L92.161-53.406z M85.43-15.916L85.43-15.916c0.199-0.141,0.396-0.29,0.604-0.429
		c3.579-2.47,7.076-3.346,7.261-2.8c0.192,0.517-2.736,2.149-6.111,4.479l-0.578,0.4l0.002,0.001
		c-5.075,3.157-9.499,7.709-11.783,13.498C76.448-6.768,80.472-12.027,85.43-15.916z M73.729-0.936
		c0.196-3.635,1.333-7.207,3.013-10.477l0.002,0.002l0.216-0.374c1.274-2.182,2.788-3.614,3.003-3.417
		c0.203,0.182-0.896,1.829-2.125,3.936l-0.215,0.357l0,0C75.708-7.904,74.267-4.537,73.729-0.936z"/>
</symbol>
<use xlink:href="#明るいベクトルパック_16"  width="331.416" height="150.552" x="-165.708" y="-75.276" transform="matrix(3.1502 -0.0408 -0.9186 -0.715 499.9993 20)" overflow="visible"/>
</svg>
