<?xml version="1.0" encoding="utf-8"?>
<!-- Generator: Adobe Illustrator 15.0.2, SVG Export Plug-In . SVG Version: 6.00 Build 0)  -->
<!DOCTYPE svg PUBLIC "-//W3C//DTD SVG 1.1//EN" "http://www.w3.org/Graphics/SVG/1.1/DTD/svg11.dtd">
<svg version="1.1" id="レイヤー_1" xmlns="http://www.w3.org/2000/svg" xmlns:xlink="http://www.w3.org/1999/xlink" x="0px"
	 y="0px" width="100px" height="89.279px" viewBox="109 97.36 100 89.279" enable-background="new 109 97.36 100 89.279"
	 xml:space="preserve">
<symbol  id="DAMASK" viewBox="-158.502 -141.509 317.004 283.018">
	<path fill="#898989" d="M-92.944-15.773c10.481,4.491,15.385,4.295,19.584,3.938c1.52-0.117,3.041-0.316,4.504-0.677
		c0.943-0.231,1.387-0.352,1.978-1.146c1.288-1.685,2.71-4.471,3.188-8.651c0.366-3.252-0.259-6.809-2.037-8.924
		c-1.481-1.875-3.44-2.326-4.96-2.215c-0.584,0.05-0.891-0.27-0.152-0.935c1.115-1.128,2.884-2.136,4.831-2.282
		c4.981-0.337,7.243,4.626,6.6,10.676c-0.381,3.439-1.984,7.854-4.881,11.733c-0.3,0.438-0.335,0.697,0.278,0.48
		c3.516-1.301,5.803-2.786,7.665-4.23c4.763-3.879,8.328-9.161,9.229-17.739c1.025-10.286-4.888-17.104-11.175-16.749
		c-1.606,0.108-2.566,0.445-3.088,0.741c-0.797,0.407-1.072-0.29-0.247-0.97c1.635-1.441,4.054-3.026,7.697-3.24
		c3.906-0.205,6.728,1.626,8.334,3.615c2.431,3.188,3.512,8.016,3.019,13.119c-0.741,7.233-3.819,13.465-9.663,19.403
		c-3.947,3.999-9.06,7.228-15.213,9.539c-0.438,0.199-0.715,0.39-1.274,0.841c-4.007,3.37-11.444,9.417-21.463,10.398
		c-0.372,0.05-0.722,0.07-1.091,0.104l37.244,34.916l-2.244,2.104L-95.079,1.711l0.566-0.53c-4.147-0.094-16.372-4.811-16.666-4.354
		c-0.725,1.26-2.428,4.523-2.275,4.67c4.182,3.533,5.047,8.561,4.557,11.985c-0.479,3.396-1.753,6.021-3.406,7.979
		c-2.138,2.493-3.975,3.466-5.697,3.729c-0.422,0.062,5.638,0.506,8.397,3.184c6.219,6.035,5.019,14.35,3.403,18.098
		c-0.21,0.4-0.051,0.457,0.277,0.152c4.966-4.154,11.016-4.563,15.994,0.193c2.266,2.229,3.244,4.467,3.838,6.746
		c0.215,0.807,0.387,1.157,0.925,1.362c0.537,0.205,1.675-0.047,2.54-0.854c0.438-0.41,0.697-0.765,0.816-1.066
		c0.219-0.508,0.478-0.354,0.8,0.154c0.981,1.621,0.55,3.545-0.481,4.512c-0.916,0.859-2.166,1.316-3.141,1.014
		c-0.428-0.102-0.591-0.055-0.594,0.353c-0.159,4.613-2.266,8.813-5.237,11.504c-4.597,4.111-11.294,4.313-15.516,0.256
		c-0.757-0.713-1.188-1.217-1.741-2.022c-0.859-1.517-2.375-2.531-4.05-2.285c-0.591,0.156-0.919-0.148-0.481-0.765
		c1.031-1.157,2.104-1.672,3.356-1.614c0.588,0.053,0.588-0.252,0.481-0.562c-0.104-0.604-0.865-5.676,2.213-8.465
		c1.512-1.418,3.412-1.771,4.656-0.609c1.081,1.017,0.912,2.593,0.646,3.244c-0.166,0.562-0.547,1.021-1.135,0.967
		c-0.918-0.051-2.165,0.507-3.306,1.572c-2.159,2.027-2.106,4.711-0.106,6.59c4.109,4.054,10.869,2.984,15.193-0.961
		c2.653-2.389,3.734-5.021,3.572-7.002c-0.003-0.602-0.331-0.701-0.6-0.246c-0.594,0.957-1.297,1.923-2.216,2.785
		c-2.484,2.219-4.862,1.711-6.266,0.396c-1.356-1.363-1.682-3.39-0.226-5.572c0.335-0.404,0.71-0.355,0.879,0.104
		c0.1,0.31,0.206,0.519,0.472,0.767c1.841,1.727,4.334,0.914,6.172-0.812c1.084-1.016,1.078-1.522,0.912-2.385
		c-0.159-1.168-0.978-2.334-2.106-3.393c-4.54-4.563-11.293-4.314-17.084,0.903c-3.135,2.847-3.456,5.275-3.459,6.791
		c0.009,0.507-0.481,0.562-0.7,0.058c-0.481-1.474-0.597-4.004,1.563-7.25c0.331-0.517,0.053-0.656-0.206-0.306
		c-4.819,5.121-13.091,4.664-17.953-0.108c-2.538-2.478-2.807-11.844-3.141-12.154c-0.859-0.914-1.832-1.217-2.807-1.018
		c-0.919,0.256-2.6,1.922-2.756,1.575c-0.054-0.456-0.754-3.553,2.009-6.139c2.372-2.227,5.019-2.074,6.859-0.35
		c1.619,1.617-1.084,6.584-1.568,6.842c-0.219,0.102-1.247,4.309,2.49,7.904c1.347,1.262,3.563,2.531,6.106,2.684
		c0.325,0.006,0.432-0.094,0.162-0.455c-2.277-2.838-3.899-8.41-0.112-11.858c1.781-1.673,3.522-2.181,4.916-1.668
		c1.081,0.401,1.519,1.315,1.35,1.875c0.007,0.407,0.007,0.704,0.491,1.061c0.975,0.41,1.24,1.879,0.594,2.895
		c-0.328,0.507-0.919,0.964-1.619,0.607c-1.456-0.766-3.3-0.967-4.653,0.301c-1.834,1.621-1.774,4.002,0.378,6.438
		c0.435,0.506,0.707,0.762,1.297,0.709c1.944-0.103,4.653-1.213,6.926-3.344c2.378-2.229,7.137-8.519,1.25-14.24
		c-3.848-3.607-8.544-4.363-12.176-1.066c-1.024,0.961-2.371,3.041-2.534,2.48c-0.487-1.576-0.709-4.104,1.078-5.979
		c0.325-0.404,0.266-0.352,0.054-0.762c-0.929-1.607-0.531-3.629,0.506-4.909c-0.24-1.028-0.287-2.282-0.063-3.844
		c0.703-4.945,3.193-9.744,5.278-13.383c0.216-0.437-6.554-2.912-6.935-2.44c-3.15,3.542-5.831,5.868-8.278,7.676
		c-3.422,2.646-5.969,3.363-6.841,3.539c-2.409,0.478-4.109-0.214-3.813-2.432c0.203-1.564,1.41-3.583,4.241-6.176
		c5.053-4.552,9.728-5.982,12.484-6.475c1.696-0.29,2.656-0.296,3.521-0.271c0.484-0.003,2.991-2.874,4.25-4.734
		c0.288-0.369-7.581-3.854-10.837-4.438c-2.772-0.568-5.429-0.813-9.281-0.053c-0.554,0.104-3.525,6.104-5.266,10.17
		c-1.395,3.222-3.609,7.73-6.348,10.871c1.147-0.29,2.641-0.044,4.301,1.515c1.547,1.45,2.462,3.75,2.753,5.651
		c0.868,4.62-2.315,14.03-2.315,14.669c0.24,6.832-2.176,10.904-5.363,13.892c-1.779,1.67-4.027,2.971-7.591,4.2V36.35
		c1.385-0.475,2.636-0.961,3.82-1.52c2.375-1.045,4.447-2.17,6.766-4.348c0.338-0.313,0.291-0.447,0.197-0.902
		c-0.778-2.08-1.598-3.664-2.997-6.427c-1.484-2.941-3.479-7.688-2.097-10.819c-0.825,0.589-1.672,1.055-2.56,1.257
		c-1.158,0.269-2.468,0.086-3.129-1.201V7.35c0.64-2.29,1.954-4.764,3.301-6.661c0.575-0.855,0.962-2.394,0.459-2.391
		c-1.247-0.002-2.557-0.341-3.76-0.841v-9.905c3.548,1.352,7.902,3.596,8.314,6.87c2.928-3.073,10.556-7.979,11.181-8.689
		c6.591-7.887,12.425-10.667,17.775-11.604c3.656-0.606,13.3,2.344,13.609,1.781c0.928-1.925,2.644-5.936,2.337-6.146
		c-4.719-3.627-6.896-8.496-6.478-12.94c0.231-2.584,1.146-4.758,2.178-6.334c1.859-2.769,3.831-4.125,5.547-4.371
		c4.435-0.618,5.591,4.828,5.234,8.76c-0.3,3.29-1.021,6.524-2.79,11.282c-0.213,0.545,9.394,4.579,10.021,4.081
		c4.975-4.438,8.281-6.176,10.947-6.437c2.925-0.278,3.574,1.57,3.478,2.522c-0.084,0.7-0.419,1.597-1.006,2.429
		c-1.335,1.758-5.125,4.608-10.447,5.174c-1.912,0.211-3.459,0.129-4.675,0.023c-0.406-0.041-4.35,3.929-6.237,6.284
		C-99.894-19.295-94.962-16.702-92.944-15.773z"/>
	<path fill="#898989" d="M14.246,141.498c-0.804-0.141-1.655-0.219-2.554-0.219c-0.74,0.012-1.408,0.1-2.044,0.219H5.699
		c2.443-1.574,5.475-2.719,9.1-2.777c3.411-0.061,6.25,1.158,7.797,2.777H14.246z"/>
	<path fill="#898989" d="M153.641,65.607c-1.818,1.705-4.996,3.348-7.51,2.27l-29.406,27.571l-2.256-2.118l29.512-27.668
		c-0.334-0.863-0.48-1.951-0.24-3.266c0.24-1.228,0.916-2.675,2.316-3.984c2.416-2.266,6.906-3.484,12.359-2.9
		c0.021,0.003,0.051-0.016,0.086-0.049v3.795C156.83,62.176,155.369,63.983,153.641,65.607z"/>
	<path fill="#898989" d="M-8.417,112.699c-0.728-0.105-0.935-0.664-0.622-1.33c0.337-0.75,0.644-1.104,1.188-1.406
		c0.95-0.5,2.481-0.154,3.372,1.289c0.581,0.932,0.815,2.412,0.429,4.234c-0.359,1.684-1.125,3.225-2.869,5.033
		c-1.657,1.698-4.194,3.51-6.372,5.241c-2.703,2.152,1.622,7.254,1.328,7.849c-0.378,0.772-1.228,1.225-2.091,1.131
		c-0.806-0.047-1.781-0.646-2.356-1.576c-1.091-1.773-1.025-3.598-0.563-5.227c0.543-1.902,1.75-3.609,5.309-6.41
		c1.572-1.22,2.897-2.188,4.348-3.273C-5.136,116.641-7.77,112.781-8.417,112.699z"/>
	<path fill="#898989" d="M-0.842,88.055c1.672-0.008,3.016,2.104,3.019,4.711c0.007,2.605-1.359,4.718-3.013,4.718
		c-1.666,0.002-3.025-2.104-3.019-4.711C-3.857,90.17-2.511,88.055-0.842,88.055z"/>
	<path fill="#898989" d="M6.239,118.457c2.179,1.736,4.71,3.547,6.368,5.25c1.741,1.816,2.514,3.346,2.873,5.029
		c0.393,1.828,0.146,3.309-0.426,4.242c-0.894,1.436-2.432,1.778-3.375,1.274c-0.547-0.301-0.854-0.647-1.193-1.391
		c-0.322-0.679-0.113-1.236,0.628-1.349c0.649-0.073,2.054-0.311,2.851-1.616c0.74-1.207-4.529-5.98-6.094-7.205
		c-3.572-2.804-4.772-4.51-5.319-6.425c-0.456-1.61-0.522-3.438,0.563-5.221c0.578-0.922,1.544-1.52,2.362-1.567
		c0.859-0.103,1.703,0.354,2.091,1.131c0.3,0.592,0.375,1.313,0.306,1.526c-0.056,0.211-0.29,0.593-0.736,0.472
		C5.771,112.242,3.527,116.301,6.239,118.457z"/>
	<path fill="#898989" d="M-158.498,55.467c5.148-0.417,9.379,0.774,11.695,2.945c1.4,1.313,2.075,2.76,2.315,3.984
		c0.241,1.313,0.094,2.399-0.24,3.266l29.513,27.668l-2.257,2.118l-29.406-27.571c-2.513,1.078-5.69-0.563-7.509-2.27
		c-1.466-1.377-2.739-2.894-4.111-5.096V55.467L-158.498,55.467z"/>
	<path fill="#898989" d="M158.502-108.275c-0.507,2.146-2.522,11.908-5.398,14.607c-2.176,2.039-5.021,3.53-10.186,5.03
		c-0.43,0.132,1.598,4.743,1.932,4.702c5.457-0.592,9.947,0.636,12.359,2.896c0.482,0.453,0.923,1.205,1.293,2.015V-31.6
		c-0.887,0.644-1.676,1.308-1.643,1.479c0.137,0.709,0.271,1.479,0.271,2.813c-0.01,2.177-0.479,5.821-3.484,9.478
		c-1.703,2.045-3.205,2.815-4.506,2.813c-1.848-0.005-2.729-1.471-2.729-3.387c0.004-0.706,0.207-2.692,1.916-5.183
		c1.152-1.796,2.729-3.721,5.256-5.892c0.334-0.267-2.666-5.953-3.01-5.83c-2.797,1.277-6.547,2.76-10.719,2.751
		c-4.502,0.003-6.688-2.042-6.688-4.412c-0.002-1.342,6.141-5.895,9.008-5.888c2.871,0.005,10.996,5.114,11.266,4.985
		c1.164-0.445,3.424-1.661,3.281-1.916c-4.992-8.449-5.879-11.909-5.875-16.45c0-7.676,4.506-12.803,7.027-15.557
		c0.191-0.202-6.15-0.085-8.244-2.048c-1.783-1.676-3.281-3.53-5.025-6.609c-0.188-0.36-9.068,2.443-9.168,2.985
		c-0.484,4.521-1.541,6.964-3.098,8.42c-1.684,1.582-3.23,1.043-3.762,0.545c-0.387-0.363-0.719-0.958-0.859-1.629
		c-0.246-1.491,0.381-4.708,3.473-7.605c1.105-1.034,2.168-1.761,3.037-2.309c0.293-0.176,0.387-3.979,0.141-6.023
		c-0.041-0.398-0.191-0.448-0.479-0.354c-2.412,0.539-4.484,1.131-6.416,1.676c-7.404,2.313-10.9,4.331-13.217,6.165
		c-0.127,0.463-0.475,1.077-1.031,1.597c-0.475,0.446-1.109,0.795-1.816,1.016c-0.508,0.528-0.994,1.069-1.414,1.635
		c-0.434,0.589-0.625,0.858-0.484,1.541c0.295,1.444,1.211,3.479,3.576,5.695c1.834,1.72,4.438,3.085,6.85,3.176
		c2.084,0.132,5.162-1.77,5.119-1.09c-0.004,1.084-0.484,2.438-1.604,3.48c-2.844,2.666-7.275,1.494-10.656-1.676
		c-1.932-1.811-3.77-4.711-4.494-8.01c-0.094-0.36-0.234-0.492-0.48-0.085c-1.301,2.394-1.734,4.251-1.936,5.88
		c-0.387,4.251,0.82,8.555,5.602,13.037c5.648,5.294,13.234,5.429,16.803,2.08c0.918-0.861,2.271-2.312,2.172-1.582
		c-0.145,1.494-0.678,3.431-2.754,5.376c-2.215,2.077-4.969,2.678-7.09,2.581c-3.338-0.223-6.859-1.901-9.656-4.523
		c-4.01-3.759-6.082-8.244-6.369-14.03c-0.199-3.891,0.816-8.001,3.082-12.22c0.141-0.313,0.195-0.533,0.242-1.04
		c0.008-0.102,0.018-0.214,0.027-0.316c-0.129-0.054-0.262-0.094-0.387-0.154c-0.436-0.205-0.383-0.255-0.816,0.053
		c-1.994,1.67-4.697,1.468-6.375,1.014c-0.598-0.152-0.594-0.463-0.113-0.606c0.754-0.208,1.732-0.82,2.758-1.781
		c3.523-3.393,2.703-7.802-1.139-11.401c-6.096-5.521-12.803-1.063-15.184,1.166c-2.275,2.135-3.459,4.672-3.566,6.491
		c-0.059,0.557,0.217,0.812,0.75,1.21c2.6,2.03,5.145,2.083,6.873,0.363c1.352-1.269,1.137-2.988,0.324-4.365
		c-0.385-0.647,0.104-1.216,0.645-1.515c1.09-0.604,2.648-0.363,3.084,0.554c0.375,0.451,0.699,0.454,1.135,0.463
		c0.6-0.156,1.57,0.249,2.002,1.266c0.535,1.313,0.004,2.938-1.783,4.611c-3.68,3.549-9.623,2.027-12.656-0.108
		c-0.369-0.246-0.484-0.144-0.484,0.156c0.172,2.384,1.518,4.464,2.859,5.724c3.844,3.498,6.984,2.792,7.898,2.734
		c0.322-0.095,0.432-0.197,0.541-0.396c0.279-0.46,0.604-0.964,1.088-1.418c1.512-1.418,4.484-1.567,6.209-0.056
		c1.842,1.723,2.004,4.205-0.375,6.434c-2.76,2.59-6.059,1.931-6.537,1.881c-0.381-0.146-0.494-0.466-0.059-0.656
		c0.49-0.255,1.461-1.063,1.727-1.928c0.223-0.911-0.111-1.828-1.08-2.643c-0.322-0.305-0.859-0.296-1.287-0.199
		c-4.172,1.166-9.039-0.354-11.686-2.736c-5.084-4.553-5.564-12.308-0.109-16.834c0.375-0.235,0.217-0.501-0.318-0.188
		c-3.463,2.024-6.166,1.908-7.734,1.465c-0.543-0.199-0.488-0.659,0.053-0.653c1.623-0.003,4.223-0.302,7.244-3.252
		c5.566-5.417,5.834-11.751,0.969-16.005c-1.131-1.063-5.082-2.133-6.162-1.119c-1.832,1.721-0.375,6.126-0.045,6.234
		c0.477,0.146-4.377,1.872-5.84,0.604c-1.402-1.313-1.943-3.545,0.432-5.877c0.918-0.863,3.344-2.64,2.703-2.637
		c-2.109-0.158-4.928,0.856-7.463,3.343c-4.213,4.063-5.359,10.395-1.025,14.244c2.004,1.875,4.859,1.925,7.021-0.103
		c1.141-1.069,1.734-2.238,1.68-3.094c-0.057-0.554,0.428-0.914,1.027-1.063c0.703-0.252,2.379-0.407,3.463,0.606
		c1.24,1.163,0.869,2.938-0.65,4.362c-2.975,2.88-8.385,2.165-9.027,2.074c-0.326-0.104-0.645-0.103-0.598,0.451
		c0.059,1.163-0.48,2.183-1.73,3.141c-0.645,0.413-0.973,0.105-0.807-0.445c0.268-1.573-0.811-3.006-2.436-3.809
		c-0.865-0.507-1.406-0.911-2.162-1.62c-4.318-3.955-4.105-10.236,0.266-14.552c2.869-2.786,7.365-4.758,12.279-4.904
		c0.424-0.012,0.277-1.271,0.361-1.646c-0.455,0.17-6.59-1.321-5.809-6.632c0.703-4.949,5.6-14.005,5.225-14.269
		c-1.328-0.771-3.285-1.667-5.785-2.077c-0.539-0.063-6.934,6.387-9.383,8.194c-3.42,2.64-5.953,3.369-6.838,3.533
		c-2.406,0.48-4.109-0.208-3.807-2.425c0.203-1.571,1.412-3.587,4.244-6.174c5.049-4.562,9.734-5.982,12.484-6.478
		c1.693-0.296,2.652-0.29,3.525-0.271c0.178-0.002,0.871-0.766,1.645-1.725h10.57c-0.557,0.454-3.014,4.845-2.887,4.977
		c4.203,3.533,5.049,8.566,4.57,11.988c-0.48,3.396-3.793,8.364-3.992,8.575c0.719,0,1.453,0.104,2.146,0.466
		c0.543,0.302-2.113,3.398-1.895,3.905c0.219,0.501,6.266,2.329,8.65,4.462c5.072,4.655,4.645,10.336,0.207,14.994
		c-0.322,0.302-0.26,0.46,0.168,0.255c3.996-1.523,12.869-2.634,19.301,3.196c1.861,1.68,2.936,3.657,3.305,5.47
		c0.943-2.692,2.541-5.575,5.33-8.189c3.428-3.214,16.891-7.872,16.801-8.243c-0.338-0.936-1.357-3.344-1.541-3.338
		c-5.262,0.316-9.275-1.729-11.301-3.627c-2.023-1.896-2.996-3.803-3.236-5.563c-0.297-2.268,0.291-3.621,1.303-4.567
		c0.414-0.389,0.902-0.684,1.441-0.875l-20.533-19.251c-4.74,0.207-9.14-0.739-17.673-4.631h32.658
		c-3.479,1.93-7.382,3.657-10.948,4.2l32.488,30.461c0.719-0.247,1.455-0.53,2.211-0.901c0.438-0.229,0.633-6.378,1.162-8.417
		c0.678-2.895,2.033-4.433,2.564-4.931c1.445-1.354,3.186-1.81,4.484-0.592c0.92,0.858,1.4,2.396,1.063,4.978
		c-0.631,4.57-3.043,7.471-4.688,9.012c-1.008,0.946-1.688,1.4-2.314,1.811c-0.262,0.179-0.227,1.798-0.037,3.211l0.4,0.376
		l-0.297,0.279c0.027,0.146,0.053,0.3,0.084,0.435c0.047,0.322,7.867-1.767,10.574-3.038c2.355-1.04,4.434-2.168,6.754-4.342
		c0.34-0.319,0.293-0.448,0.195-0.905c-0.773-2.083-1.596-3.665-2.996-6.422c-1.73-3.438-4.199-9.372-1.109-12.267
		c1.105-1.04,3.277-1.729,5.838,0.674c0.172,0.161,0.321,0.346,0.477,0.523L158.502-108.275L158.502-108.275z"/>
	<path fill="#898989" d="M-68.289-140.05c0.866-0.023,1.825-0.021,3.522,0.271c2.756,0.489,7.431,1.925,12.484,6.475
		c2.831,2.593,4.038,4.608,4.241,6.176c0.297,2.218-1.403,2.906-3.813,2.432c-0.872-0.176-3.419-0.896-6.841-3.539
		c-2.447-1.808-5.128-4.134-8.278-7.676c-0.381-0.472-7.15,2.007-6.935,2.44c2.084,3.639,4.575,8.438,5.278,13.383
		c0.225,1.562,0.178,2.813-0.063,3.844c1.037,1.28,1.434,3.302,0.506,4.91c-0.212,0.41-0.271,0.354,0.053,0.762
		c1.788,1.875,1.566,4.4,1.078,5.979c-0.163,0.56-1.509-1.521-2.534-2.481c-3.631-3.296-8.328-2.54-12.175,1.066
		c-5.887,5.725-1.128,12.012,1.25,14.241c2.272,2.13,4.981,3.24,6.925,3.343c0.59,0.053,0.862-0.202,1.297-0.709
		c2.153-2.438,2.212-4.816,0.378-6.438c-1.353-1.269-3.197-1.063-4.653-0.302c-0.7,0.354-1.291-0.103-1.619-0.605
		c-0.646-1.018-0.381-2.482,0.594-2.896c0.484-0.354,0.484-0.65,0.491-1.061c-0.168-0.56,0.269-1.474,1.35-1.875
		c1.394-0.513,3.134-0.006,4.916,1.667c3.788,3.448,2.166,9.021-0.112,11.859c-0.269,0.36-0.163,0.46,0.163,0.454
		c2.543-0.146,4.759-1.421,6.106-2.684c3.738-3.598,2.709-7.805,2.491-7.904c-0.484-0.258-3.188-5.224-1.569-6.841
		c1.841-1.729,4.488-1.878,6.859,0.349c2.763,2.587,2.063,5.684,2.009,6.141c-0.156,0.346-1.837-1.321-2.756-1.576
		c-0.975-0.199-1.947,0.103-2.807,1.017c-0.334,0.313-0.603,9.68-3.141,12.155c-4.862,4.772-13.134,5.229-17.953,0.111
		c-0.259-0.354-0.537-0.214-0.206,0.302c2.159,3.246,2.044,5.777,1.563,7.251c-0.219,0.504-0.709,0.448-0.7-0.059
		c-0.003-1.515-0.325-3.943-3.459-6.791c-5.791-5.221-12.544-5.467-17.084-0.902c-1.128,1.058-1.947,2.224-2.106,3.393
		c-0.166,0.858-0.172,1.368,0.913,2.385c1.837,1.726,4.331,2.534,6.172,0.812c0.266-0.249,0.372-0.457,0.472-0.768
		c0.169-0.46,0.544-0.51,0.878-0.104c1.456,2.186,1.131,4.21-0.225,5.572c-1.403,1.313-3.781,1.819-6.266-0.396
		c-0.919-0.864-1.622-1.828-2.216-2.786c-0.269-0.454-0.597-0.354-0.6,0.246c-0.163,1.98,0.918,4.614,3.572,7.002
		c4.325,3.946,11.084,5.016,15.194,0.961c2-1.878,2.053-4.562-0.106-6.589c-1.141-1.066-2.388-1.623-3.306-1.573
		c-0.587,0.056-0.969-0.404-1.134-0.967c-0.266-0.65-0.435-2.229,0.646-3.243c1.244-1.162,3.144-0.809,4.656,0.609
		c3.078,2.789,2.316,7.86,2.213,8.464c-0.106,0.311-0.106,0.612,0.481,0.563c1.253-0.059,2.325,0.457,3.356,1.614
		c0.438,0.612,0.109,0.921-0.481,0.765c-1.675-0.246-3.19,0.771-4.05,2.284c-0.553,0.81-0.984,1.313-1.741,2.022
		c-4.222,4.059-10.919,3.855-15.516-0.255c-2.972-2.689-5.078-6.891-5.237-11.505c-0.003-0.404-0.166-0.451-0.594-0.352
		c-0.872,0.271-1.962-0.066-2.838-0.758c0.381,1.777,0.531,3.376,0.63,4.621c0.047,0.507,0.103,0.727,0.243,1.04
		c2.266,4.219,3.281,8.329,3.082,12.22c-0.288,5.786-2.359,10.271-6.369,14.03c-2.797,2.622-6.318,4.304-9.656,4.523
		c-2.122,0.097-4.875-0.504-7.091-2.581c-2.075-1.945-2.609-3.882-2.753-5.376c-0.1-0.729,1.253,0.721,2.172,1.582
		c3.568,3.349,11.153,3.214,16.803-2.08c4.781-4.482,5.988-8.786,5.601-13.037c-0.2-1.629-0.635-3.486-1.935-5.88
		c-0.247-0.407-0.388-0.275-0.481,0.085c-0.725,3.299-2.563,6.199-4.493,8.01c-3.382,3.17-7.813,4.342-10.656,1.676
		c-1.119-1.046-1.601-2.396-1.604-3.48c-0.044-0.68,3.034,1.222,5.119,1.09c2.412-0.091,5.016-1.456,6.85-3.176
		c2.365-2.218,3.281-4.251,3.575-5.695c0.141-0.683-0.05-0.952-0.484-1.541c-0.672-0.902-1.491-1.771-2.359-2.584
		c-2.416-2.268-5.413-4.793-15.119-7.825c-1.931-0.545-4.003-1.137-6.415-1.676c-0.288-0.094-0.438-0.044-0.479,0.354
		c-0.247,2.048-0.153,5.851,0.141,6.023c0.869,0.548,1.932,1.271,3.037,2.309c3.091,2.897,3.719,6.114,3.473,7.605
		c-0.141,0.671-0.473,1.266-0.859,1.629c-0.531,0.498-2.078,1.037-3.763-0.545c-1.557-1.456-2.612-3.896-3.097-8.42
		c-0.101-0.542-8.981-3.349-9.169-2.985c-1.744,3.079-3.241,4.937-5.025,6.609c-1.899,1.78-7.276,1.85-8.12,1.998v-8.546
		c0.173-0.251,0.354-0.478,0.542-0.65c2.413-2.262,6.903-3.486,12.359-2.896c0.335,0.041,2.362-4.57,1.932-4.702
		c-5.163-1.5-8.01-2.991-10.185-5.03c-2.083-1.954-3.714-7.612-4.648-11.4v-23.055c2.439-2.102,4.498-1.438,5.564-0.435
		c3.09,2.895,0.621,8.827-1.109,12.267c-1.4,2.757-2.223,4.339-2.997,6.422c-0.097,0.457-0.144,0.586,0.196,0.905
		c2.319,2.174,4.397,3.302,6.754,4.342c2.706,1.271,10.527,3.36,10.574,3.038c0.338-1.497,0.484-4.072,0.15-4.301
		c-0.628-0.407-1.307-0.861-2.315-1.811c-1.644-1.541-4.057-4.438-4.688-9.012c-0.338-2.578,0.144-4.116,1.063-4.978
		c1.3-1.217,3.04-0.765,4.484,0.592c0.531,0.498,1.888,2.036,2.565,4.931c0.528,2.039,0.725,8.188,1.162,8.417
		c1.501,0.737,2.973,1.201,4.229,1.503l3.045-2.854c1.146-2.13,2.696-4.829,4.309-6.341c1.785-1.678,3.541-2.411,5.056-2.438
		l20.649-19.356c-0.369-0.034-0.719-0.058-1.091-0.104c-4.895-0.479-9.168-2.171-12.731-4.165h43.704
		C-69.165-140.663-68.512-140.051-68.289-140.05z M-79.911-141.468c-0.294-0.454-12.519,4.263-16.666,4.354l0.566,0.53
		l-21.307,19.974c0.927,0.94,1.454,2.271,1.171,4.433c-0.24,1.764-1.213,3.671-3.237,5.563c-2.025,1.898-6.038,3.943-11.3,3.627
		c-0.185-0.006-1.203,2.402-1.541,3.337c-0.091,0.372,13.372,5.03,16.8,8.244c2.45,2.295,3.978,4.797,4.955,7.196
		c0.09-0.313,0.208-0.625,0.391-0.926c0.322-0.51,0.581-0.662,0.8-0.155c0.119,0.305,0.378,0.656,0.816,1.066
		c0.866,0.812,2.003,1.063,2.541,0.855c0.538-0.205,0.709-0.56,0.925-1.363c0.594-2.278,1.572-4.517,3.838-6.746
		c4.978-4.758,11.028-4.351,15.994-0.193c0.328,0.305,0.487,0.249,0.278-0.152c-1.615-3.747-2.815-12.062,3.403-18.097
		c2.759-2.678,8.819-3.123,8.397-3.185c-1.722-0.267-3.56-1.236-5.697-3.729c-1.653-1.96-2.928-4.585-3.406-7.979
		c-0.491-3.428,0.375-8.452,4.556-11.985C-77.483-136.941-79.186-140.208-79.911-141.468z"/>
	<path fill="#898989" d="M-1.073,73.879c3.7,0.002,6.694,2.531,6.694,5.656c0.009,3.127-2.994,5.658-6.697,5.658
		c-3.707,0-6.7-2.535-6.707-5.654C-7.786,76.41-4.779,73.881-1.073,73.879z"/>
	<path fill="#898989" d="M-15.77,141.139c-0.964-0.004-1.858,0.117-2.645,0.359h-8.359c-0.041-0.232-0.067-0.471-0.065-0.715
		c-0.009-1.351,1.125-2.984,3.031-3.486c0.603-0.143,0.45,1.135,0.447,1.699c0,1.146,2.047,2.35,2.806,1.938
		c2.125-1.223,4.478-2.137,7.738-2.215c2.355-0.021,4.421,1.185,6.137,2.779h-5.683C-13.42,141.225-14.56,141.099-15.77,141.139z"/>
	<path fill="#898989" d="M-154.188-37.869c0.27,0.129,8.395-4.98,11.266-4.983c2.866-0.009,9.01,4.544,9.007,5.886
		c0,2.37-2.185,4.415-6.688,4.412c-4.172,0.009-7.922-1.474-10.719-2.751c-0.344-0.123-3.344,5.563-3.01,5.83
		c2.528,2.171,4.104,4.096,5.257,5.892c1.709,2.487,1.912,4.477,1.915,5.183c0,1.916-0.881,3.384-2.728,3.387
		c-1.301,0.006-2.804-0.768-4.507-2.813c-3.006-3.651-3.475-7.301-3.484-9.478c0-1.336,0.135-2.104,0.272-2.813
		c0.023-0.121-0.358-0.481-0.892-0.911v-40.625c2.542,2.784,6.904,7.865,6.904,15.421c0.004,4.541-0.884,8.001-5.875,16.45
		C-157.613-39.53-155.353-38.315-154.188-37.869z"/>
	<path fill="#898989" d="M29.486-82.774c5.453-0.595,9.947,0.63,12.362,2.896c1.403,1.313,2.703,3.765,2.703,3.765L77.8-44.938
		l-2.256,2.112L43.871-72.521c-0.21,0.516-0.491,0.976-0.863,1.321c-2.605,2.443-6.615,0.501-8.74-1.488
		c-1.787-1.676-3.281-3.53-5.013-6.604c-0.196-0.363-9.081,2.44-9.185,2.982c-0.475,4.526-1.543,6.967-3.094,8.42
		c-1.688,1.582-3.23,1.04-3.756,0.545c-0.395-0.369-0.723-0.946-0.865-1.632c-0.244-1.488,0.384-4.702,3.475-7.603
		c1.115-1.046,2.166-1.767,3.031-2.312c0.307-0.182-0.037-6.472-0.328-6.381c-2.419,0.537-4.494,1.134-6.426,1.676
		c-3.462,1.081-6.049,2.101-8.078,3.063c0.623,2.303,4.014,13.688,4.238,16.887c0.291-0.185,1.48-0.894,1.434-0.22
		c-0.002,1.031-0.459,2.288-1.433,3.304c-0.419,5.268-2.385,9.422-5.997,12.943c4.163,1.327,12.931-3.844,12.835-3.123
		c-0.147,1.497-0.679,3.445-2.754,5.394c-2.219,2.08-4.972,2.672-7.1,2.566c-2.162-0.135-4.396-0.946-6.473-2.183
		c-2.071,1.236-4.314,2.039-6.475,2.191c-2.128,0.088-4.872-0.498-7.094-2.581c-2.072-1.942-2.616-3.896-2.756-5.382
		c-0.1-0.729,8.675,4.444,12.832,3.117c-3.616-3.521-5.569-7.682-5.991-12.952c-0.984-1.008-1.428-2.268-1.435-3.299
		c-0.053-0.68,1.147,0.035,1.438,0.223c0.216-3.202,3.604-14.581,4.229-16.884c-2.038-0.973-4.61-1.983-8.073-3.063
		c-1.931-0.545-4.012-1.137-6.422-1.679c-0.291-0.094-0.634,6.193-0.344,6.381c0.866,0.536,1.932,1.266,3.047,2.312
		c3.084,2.896,3.713,6.108,3.469,7.605c-0.144,0.674-0.481,1.263-0.865,1.623c-0.528,0.494-2.075,1.049-3.772-0.542
		c-1.538-1.441-2.603-3.896-3.075-8.417c-0.103-0.545-8.991-3.352-9.181-2.985c-1.737,3.076-3.231,4.934-5.013,6.606
		c-1.818,1.703-4.997,3.349-7.509,2.271l-29.406,27.571l-2.256-2.118l29.513-27.666c-0.334-0.864-0.481-1.951-0.241-3.268
		c0.241-1.227,0.916-2.674,2.316-3.983c2.416-2.266,6.906-3.483,12.359-2.9c0.334,0.053,2.369-4.564,1.925-4.708
		c-5.156-1.482-8.003-2.977-10.181-5.021c-3.188-2.985-5.603-7.061-5.363-13.893c0-0.639-3.184-10.049-2.315-14.669
		c0.291-1.901,1.206-4.204,2.753-5.651c1.66-1.559,3.153-1.805,4.3-1.515c-2.738-3.141-4.953-7.649-6.347-10.872
		c-0.321-0.748-0.683-1.563-1.064-2.396h17.002c-1.521,0.852-3.39,1.506-5.135,1.508c-0.503-0.003-0.116,1.532,0.459,2.388
		c1.666,2.353,3.3,5.581,3.644,8.25c0.563,4.397-1.646,5.074-3.472,4.655c-0.888-0.202-1.734-0.668-2.56-1.257
		c1.381,3.135-0.612,7.878-2.097,10.819c-1.4,2.763-2.219,4.348-2.997,6.428c-0.094,0.454-0.141,0.589,0.197,0.902
		c2.318,2.177,4.391,3.302,6.766,4.348c2.693,1.269,5.69,2.174,9.978,3.396c0.387,0.086,0.534-0.054,0.587-0.367
		c0.337-1.485,0.481-2.714,0.575-3.621c0.053-0.311-0.097-0.448-0.435-0.683c-0.625-0.398-1.3-0.853-2.315-1.805
		c-1.644-1.541-4.053-4.438-4.685-9.009c-0.331-2.581,0.147-4.122,1.065-4.986c1.297-1.216,3.041-0.762,4.491,0.6
		c0.525,0.49,1.884,2.028,2.553,4.935c0.531,2.036,0.875,4.433,0.731,7.641c-0.053,0.422,0.003,0.557,0.431,0.773
		c2.031,1.002,4.012,1.5,5.456,1.77c0.435,0.041,0.484-0.097,0.625-0.407c1.022-2.76,2.556-6.287,5.506-9.053
		c3.185-2.982,6.281-2.985,8.062-1.315c1.022,0.955,1.588,2.313,1.301,4.57c-0.24,1.77-1.207,3.677-3.231,5.572
		c-2.025,1.898-6.035,3.938-11.297,3.615c-0.197,0.003-0.341,0.047-0.435,0.322c-0.475,1.084-0.775,2.08-1.106,3.023
		c-0.106,0.363-0.047,0.419,0.234,0.501c9.894,2.666,13.131,4.529,16.559,7.743c0.203,0.19,0.354,0.384,0.544,0.568
		c0.179-0.19,0.335-0.381,0.534-0.568c3.432-3.214,6.662-5.066,16.553-7.737c0.291-0.097,0.342-0.146,0.244-0.501
		c-0.334-0.949-0.635-1.948-1.115-3.041c-0.098-0.264-0.234-0.311-0.432-0.308c-5.26,0.316-9.266-1.72-11.293-3.624
		c-2.029-1.901-2.991-3.797-3.244-5.565c-0.281-2.263,0.293-3.619,1.309-4.574c1.785-1.674,4.882-1.67,8.061,1.31
		c2.953,2.771,4.486,6.302,5.506,9.062c0.144,0.316,0.197,0.451,0.635,0.407c1.439-0.267,3.418-0.771,5.453-1.767
		c0.431-0.223,0.478-0.363,0.434-0.771c-0.144-3.214,0.193-5.607,0.725-7.641c0.67-2.906,2.031-4.44,2.563-4.937
		c0.076-0.073,0.156-0.114,0.229-0.188c0.016-0.029,0.01-0.047,0.013-0.094c0.149-0.498,0.228-1.705-0.226-2.49
		c-0.531-0.775-1.439-1.201-2.734-1.14c-0.453,0.003-0.828,0.354-1.053,0.715c-2.047,3.557-6.604,5.688-10.25,5.763
		C3.72-117.227-2.19-129.599-2.346-129.032c-0.912,3.697-2.881,5.396-4.33,6.114c-0.525,0.22-0.823-0.146-0.451-0.498
		c1.139-1.063,2.729-2.984,2.654-7.043c-0.111-5.479-2.597-9.424-6.521-11.05h4.792c3.137,3.169,4.977,7.479,5.068,7.206
		c0.922-2.038,2.982-4.967,6.135-7.206h2.951c-5.1,1.937-6.057,7.534-6.051,10.127c-0.007,2.98,1.059,5.552,2.35,6.896
		c0.378,0.434,0.76,0.434,1.44,0.349c3.335-0.275,5.156-1.907,5.085-4.251c-0.004-1.787-1.441-2.854-3.035-3.278
		c-0.762-0.214-0.838-0.923-0.688-1.494c0.31-1.143,1.598-1.983,2.582-1.635c0.605,0.07,0.834-0.141,1.137-0.425
		c0.307-0.504,1.301-0.855,2.356-0.422c1.356,0.56,2.196,2.06,2.196,4.4c0.076,4.91-5.23,7.755-8.949,8.253
		c-0.459,0.064-0.457,0.211-0.229,0.431c1.896,1.562,4.395,2.127,6.297,2.136c5.31-0.073,6.981-2.634,7.588-3.275
		c0.15-0.293,0.144-0.428,0.078-0.639c-0.16-0.498-0.31-1.069-0.301-1.708c-0.006-1.992,1.967-4.055,4.311-4.125
		c2.58-0.006,4.556,1.632,4.553,4.767c0.003,1.919-0.787,3.281-1.578,4.204c0.75-0.097,1.472,0.088,2.094,0.671
		c0.922,0.861,1.412,2.394,1.072,4.98c-0.623,4.565-3.047,7.465-4.686,8.997c-1.016,0.952-1.689,1.401-2.318,1.817
		c-0.328,0.228-0.479,0.362-0.425,0.673c0.094,0.917,0.237,2.139,0.578,3.627c0.054,0.313,0.194,0.445,0.575,0.363
		c4.3-1.225,7.287-2.136,9.987-3.396c2.375-1.043,4.444-2.177,6.759-4.35c0.342-0.317,0.288-0.449,0.197-0.897
		c-0.777-2.089-1.6-3.668-2.996-6.431c-1.285-2.552-2.957-6.451-2.488-9.489c-0.15,0.063-0.303,0.158-0.469,0.196
		c-1.824,0.411-4.027-0.27-3.465-4.655c0.346-2.663,1.965-5.896,3.652-8.247c0.619-0.929,1.285-1.828,1.966-2.704
		c-0.69,0.325-1.56,0.542-2.753,0.542c-2.013-0.003-4.191-0.888-5.797-1.925c0.003,0.056,0.021,0.104,0.027,0.158
		c-0.006,1.711-1.371,3.701-3.415,4.274c-0.46,0.132-0.453,0.063-0.528,0.563c-0.159,2.496-2.206,4.125-3.722,4.91
		c-0.531,0.288-0.766,0.067-0.534-0.354c0.378-0.645,0.604-1.711,0.612-3.067c-0.06-3.285-1.976-5.519-4.962-6.563h6.918
		c0.081,0.104,0.178,0.205,0.247,0.313c0.136,0.222,1.315,0.077,2.329-0.313h22.008c-0.35,0.813-0.725,1.688-1.146,2.668
		c-1.354,3.135-3.49,7.532-6.141,10.664c0.738,0.22,4.854,5.203,5.146,7.104c0.873,4.617,0.338,9.278-2.178,13.526
		c-0.184,0.363-0.141,0.504-0.131,1.134c0.24,6.835-2.176,10.907-5.365,13.896c-2.172,2.036-5.022,3.533-10.186,5.019
		C27.121-87.351,29.154-82.728,29.486-82.774z M7.027-64.271c-0.191-1.626-0.623-3.479-1.936-5.889
		c-0.234-0.396-0.375-0.267-0.469,0.097c-0.556,2.517-1.752,4.772-3.137,6.521c1.019,0.428,4.875,0.683,5.604,0.448
		C7.074-63.485,7.061-63.881,7.027-64.271z M-3.867-51.233c0.844,0.797,1.738,1.433,2.65,2.001c0.906-0.565,1.797-1.213,2.637-2.001
		c2.991-2.804,4.585-5.517,5.266-8.209c-2.355,1.107-5.313,0.396-7.902-1.488c-2.6,1.881-5.551,2.602-7.907,1.485
		C-8.442-56.753-6.854-54.034-3.867-51.233z M-7.061-70.065c-0.094-0.354-0.234-0.486-0.475-0.085
		c-1.31,2.396-1.738,4.26-1.944,5.886c-0.022,0.396-0.025,0.776-0.038,1.172c0.709,0.234,4.578-0.021,5.593-0.445
		C-5.308-65.287-6.502-67.546-7.061-70.065z M2.927-73.18c-0.679-0.911-1.5-1.77-2.372-2.581c-0.534-0.501-1.105-1.025-1.781-1.564
		c-0.65,0.539-1.23,1.061-1.769,1.563c-0.875,0.814-1.696,1.682-2.368,2.578c-0.438,0.589-0.632,0.858-0.491,1.544
		c0.294,1.444,1.21,3.479,3.575,5.695c0.322,0.305,1.793,0.308,2.121,0c2.363-2.218,3.275-4.251,3.566-5.707
		C3.555-72.318,3.364-72.594,2.927-73.18z"/>
	<path fill="#898989" d="M-26.663-141.502h7.18c-0.102,0.061-0.219,0.106-0.313,0.175c-0.762,0.495-1.137,0.853-1.137,2.273
		c0,2.411,4.322,4.544,4.622,4.409c0.466-0.211-1.659,4.189-3.631,4.266c-1.979,0.009-4.019-1.21-4.1-4.406
		c0-1.21,0.228-2.354,0.528-3.416c0.156-0.501-3.416,3.627-3.334,7.04c0.075,5.613,4.019,10.805,9.938,10.67
		c2.806-0.006,4.856-1.852,4.859-4.693c-0.003-1.497-1.528-4.195-1.219-4.693c0.297-0.642,1.365-1.84,2.875-1.849
		c1.753-0.006,2.809,1.482,2.813,3.479c0.068,3.984-4.247,7.046-4.778,7.403c-0.306,0.138-0.531,0.349-0.069,0.703
		c0.903,0.791,1.281,1.849,1.128,3.34c-0.144,0.724-0.606,0.721-0.91,0.217c-0.987-1.28-2.806-1.57-4.547-1.058
		c-0.987,0.214-1.672,0.272-2.741,0.278c-5.984,0.07-10.543-4.479-10.688-10.389c-0.075-3.832,5.163-11.941,4.775-12.167
		C-26.011-140.192-26.439-140.785-26.663-141.502z"/>
	<path fill="#898989" d="M-158.384,22.746c-0.028,0.206-0.078,0.391-0.114,0.59v-3.891
		C-158.268,20.287-158.207,21.363-158.384,22.746z"/>
	<path fill="#898989" d="M-7.076-35.618c-0.006-2.78,3.293-5.036,7.371-5.03c4.076,0,7.373,2.244,7.369,5.033
		c0,2.774-3.293,5.027-7.371,5.03C-3.783-30.594-7.082-32.838-7.076-35.618z"/>
	<path fill="#898989" d="M120.481-25.872c5.352,0.938,11.186,3.718,17.775,11.604c0.625,0.712,8.254,5.616,11.182,8.689
		c0.441-3.513,5.412-5.84,9.064-7.146v9.844c-1.393,0.685-2.999,1.179-4.512,1.181c-0.502-0.003-0.115,1.532,0.459,2.391
		c1.666,2.35,3.301,5.58,3.645,8.25c0.563,4.396-1.646,5.071-3.473,4.652c-0.887-0.202-1.734-0.668-2.559-1.257
		c1.381,3.135-0.613,7.878-2.098,10.819c-1.398,2.763-2.219,4.347-2.996,6.427c-0.094,0.455-0.141,0.59,0.197,0.902
		c2.318,2.178,4.391,3.303,6.766,4.348c1.395,0.657,2.876,1.217,4.57,1.773v13.639c-4.022-1.312-6.438-2.673-8.342-4.461
		c-3.188-2.984-5.604-7.06-5.363-13.892c0-0.639-3.184-10.049-2.316-14.669c0.291-1.901,1.207-4.201,2.754-5.651
		c1.66-1.559,3.152-1.805,4.301-1.515c-2.738-3.141-4.953-7.649-6.348-10.869c-1.74-4.066-4.713-10.066-5.266-10.172
		c-3.854-0.762-6.51-0.519-9.281,0.053c-3.256,0.586-11.125,4.069-10.838,4.438c1.26,1.86,3.766,4.731,4.25,4.734
		c0.865-0.023,1.826-0.021,3.521,0.271c2.758,0.489,7.432,1.925,12.484,6.475c2.832,2.593,4.039,4.608,4.242,6.176
		c0.297,2.218-1.404,2.906-3.813,2.432c-0.873-0.176-3.42-0.896-6.842-3.539c-2.447-1.808-5.127-4.134-8.277-7.676
		c-0.381-0.472-7.15,2.007-6.936,2.44c2.086,3.639,4.576,8.438,5.279,13.383c0.225,1.562,0.178,2.813-0.063,3.844
		c1.037,1.28,1.434,3.302,0.506,4.909c-0.213,0.41-0.271,0.354,0.053,0.762c1.787,1.875,1.566,4.4,1.078,5.979
		c-0.162,0.561-1.51-1.521-2.533-2.48c-3.633-3.297-8.328-2.541-12.176,1.066c-5.887,5.725-1.129,12.012,1.25,14.24
		c2.271,2.131,4.98,3.241,6.926,3.344c0.59,0.053,0.861-0.203,1.297-0.709c2.152-2.438,2.211-4.816,0.377-6.438
		c-1.354-1.268-3.197-1.063-4.652-0.301c-0.701,0.354-1.291-0.104-1.619-0.606c-0.646-1.017-0.381-2.482,0.594-2.896
		c0.484-0.354,0.484-0.65,0.49-1.061c-0.168-0.56,0.27-1.474,1.35-1.875c1.395-0.513,3.135-0.005,4.916,1.668
		c3.787,3.448,2.166,9.021-0.111,11.858c-0.27,0.361-0.164,0.461,0.162,0.455c2.543-0.147,4.76-1.422,6.105-2.684
		c3.738-3.599,2.709-7.806,2.49-7.904c-0.484-0.258-3.188-5.225-1.568-6.842c1.842-1.728,4.488-1.877,6.859,0.35
		c2.764,2.586,2.063,5.683,2.01,6.14c-0.156,0.346-1.838-1.32-2.756-1.576c-0.975-0.199-1.947,0.104-2.807,1.018
		c-0.334,0.313-0.604,9.681-3.141,12.154c-4.863,4.772-13.135,5.229-17.953,0.109c-0.26-0.354-0.537-0.212-0.207,0.305
		c2.16,3.246,2.045,5.776,1.563,7.25c-0.219,0.504-0.709,0.449-0.699-0.058c-0.004-1.516-0.324-3.944-3.459-6.791
		c-5.791-5.221-12.545-5.467-17.084-0.903c-1.129,1.059-1.947,2.225-2.107,3.393c-0.166,0.859-0.172,1.369,0.912,2.385
		c1.838,1.726,4.332,2.535,6.172,0.812c0.266-0.248,0.373-0.457,0.473-0.766c0.168-0.462,0.543-0.511,0.879-0.104
		c1.455,2.187,1.131,4.209-0.227,5.572c-1.402,1.313-3.781,1.819-6.266-0.396c-0.918-0.861-1.621-1.828-2.215-2.785
		c-0.27-0.455-0.598-0.354-0.6,0.246c-0.162,1.98,0.918,4.613,3.572,7.002c4.324,3.945,11.084,5.015,15.193,0.961
		c2-1.879,2.053-4.563-0.107-6.59c-1.141-1.065-2.387-1.623-3.305-1.571c-0.588,0.055-0.969-0.406-1.135-0.968
		c-0.266-0.651-0.436-2.229,0.646-3.244c1.244-1.159,3.145-0.809,4.656,0.609c3.078,2.789,2.316,7.861,2.213,8.465
		c-0.107,0.31-0.107,0.611,0.48,0.562c1.254-0.058,2.326,0.457,3.357,1.614c0.438,0.613,0.109,0.922-0.482,0.765
		c-1.674-0.246-3.189,0.771-4.049,2.285c-0.555,0.809-0.984,1.313-1.742,2.022c-4.221,4.059-10.918,3.855-15.516-0.256
		c-2.971-2.688-5.078-6.891-5.236-11.504c-0.004-0.404-0.166-0.451-0.594-0.351c-0.975,0.304-2.225-0.153-3.141-1.016
		c-1.031-0.967-1.463-2.891-0.482-4.512c0.322-0.51,0.582-0.662,0.801-0.154c0.119,0.307,0.379,0.656,0.816,1.066
		c0.865,0.811,2.002,1.063,2.539,0.854c0.539-0.205,0.711-0.559,0.926-1.362c0.594-2.279,1.572-4.517,3.838-6.746
		c4.979-4.756,11.027-4.351,15.994-0.193c0.328,0.305,0.486,0.248,0.277-0.152c-1.615-3.748-2.816-12.063,3.402-18.098
		c2.76-2.678,8.82-3.122,8.398-3.184c-1.723-0.267-3.561-1.236-5.697-3.729c-1.654-1.96-2.928-4.585-3.406-7.979
		c-0.49-3.428,0.375-8.452,4.557-11.985c0.152-0.145-1.551-3.41-2.275-4.67c-0.295-0.454-12.52,4.263-16.666,4.354l0.566,0.53
		L55.535,38.08l-2.244-2.104L90.535,1.062c-0.369-0.035-0.719-0.059-1.092-0.105C79.426-0.026,71.988-6.073,67.981-9.442
		c-0.559-0.451-0.836-0.642-1.273-0.841c-6.154-2.313-11.266-5.54-15.213-9.539c-5.844-5.938-8.922-12.17-9.663-19.403
		c-0.493-5.104,0.587-9.932,3.019-13.119c1.607-1.989,4.428-3.82,8.334-3.615c3.645,0.214,6.063,1.799,7.697,3.24
		c0.826,0.68,0.551,1.377-0.246,0.97c-0.521-0.296-1.482-0.633-3.088-0.741c-6.287-0.354-12.2,6.463-11.176,16.749
		c0.9,8.578,4.467,13.86,9.229,17.739c1.863,1.444,4.15,2.933,7.666,4.233c0.613,0.214,0.578-0.047,0.277-0.483
		c-2.896-3.882-4.5-8.294-4.881-11.733c-0.643-6.05,1.619-11.013,6.6-10.676c1.947,0.146,3.717,1.154,4.832,2.282
		c0.738,0.665,0.432,0.984-0.152,0.935c-1.52-0.111-3.479,0.342-4.961,2.217c-1.777,2.113-2.402,5.67-2.037,8.922
		c0.479,4.184,1.9,6.97,3.188,8.651c0.592,0.797,1.035,0.914,1.979,1.146c1.463,0.357,2.984,0.56,4.504,0.677
		c4.199,0.354,9.102,0.554,19.584-3.938c2.018-0.932,6.949-3.521,6.564-3.99c-1.887-2.355-5.83-6.325-6.236-6.284
		c-1.217,0.104-2.764,0.188-4.676-0.023c-5.322-0.563-9.111-3.416-10.447-5.174c-0.586-0.832-0.922-1.729-1.006-2.429
		c-0.096-0.952,0.553-2.804,3.479-2.522c2.666,0.261,5.973,1.998,10.947,6.437c0.627,0.498,10.234-3.536,10.021-4.081
		c-1.77-4.758-2.49-7.992-2.791-11.282c-0.355-3.932,0.801-9.378,5.234-8.76c1.717,0.246,3.688,1.604,5.547,4.371
		c1.031,1.576,1.947,3.75,2.178,6.334c0.42,4.447-1.758,9.313-6.477,12.94c-0.307,0.217,1.408,4.225,2.336,6.146
		C107.182-23.528,116.824-26.48,120.481-25.872z"/>
	<path fill="#898989" d="M-123.636,134.889c-6.153-2.313-11.266-5.539-15.212-9.539c-5.844-5.938-8.922-12.17-9.663-19.403
		c-0.494-5.104,0.587-9.931,3.019-13.119c1.606-1.988,4.428-3.82,8.334-3.615c3.644,0.215,6.063,1.799,7.697,3.24
		c0.825,0.68,0.55,1.377-0.247,0.971c-0.522-0.297-1.481-0.633-3.088-0.742c-6.287-0.354-12.2,6.464-11.175,16.75
		c0.9,8.578,4.466,13.859,9.228,17.738c1.863,1.445,4.15,2.935,7.666,4.234c0.613,0.213,0.578-0.045,0.278-0.484
		c-2.897-3.881-4.5-8.293-4.881-11.73c-0.644-6.053,1.619-11.016,6.6-10.678c1.947,0.146,3.716,1.154,4.831,2.281
		c0.738,0.666,0.432,0.984-0.153,0.937c-1.519-0.113-3.478,0.342-4.959,2.217c-1.778,2.112-2.403,5.668-2.038,8.92
		c0.478,4.184,1.9,6.971,3.188,8.651c0.591,0.8,1.035,0.914,1.978,1.146c1.463,0.359,2.984,0.559,4.503,0.676
		c4.2,0.355,9.103,0.555,19.584-3.938c2.019-0.931,6.95-3.521,6.565-3.99c-1.888-2.355-5.831-6.324-6.237-6.283
		c-1.216,0.105-2.763,0.188-4.675-0.021c-5.322-0.566-9.112-3.416-10.447-5.177c-0.587-0.832-0.922-1.729-1.006-2.43
		c-0.097-0.951,0.553-2.803,3.478-2.521c2.666,0.258,5.972,1.995,10.947,6.434c0.628,0.498,10.234-3.537,10.021-4.082
		c-1.769-4.758-2.49-7.992-2.791-11.281c-0.356-3.932,0.8-9.379,5.234-8.76c1.716,0.246,3.688,1.604,5.547,4.371
		c1.031,1.576,1.947,3.75,2.178,6.334c0.419,4.447-1.759,9.313-6.478,12.943c-0.306,0.213,1.409,4.221,2.337,6.146
		c0.31,0.563,9.953-2.391,13.609-1.781c5.35,0.937,11.185,3.719,17.775,11.604c0.625,0.711,8.253,5.619,11.181,8.688
		c0.479-3.805,6.275-6.223,9.95-7.455c3.06-1.02,4.837-1.6,6.959-2.555c0.413-0.262-0.072-6.018-0.959-8.324
		c-0.953-2.686-2.388-5.311-4.506-9.022c-0.2-0.32-4.094,2.438-4.022,2.815c0.138,0.709,0.272,1.479,0.272,2.813
		c-0.009,2.176-0.478,5.824-3.484,9.477c-1.703,2.045-3.206,2.816-4.506,2.813c-1.847-0.004-2.728-1.47-2.728-3.385
		c0.003-0.705,0.207-2.695,1.916-5.185c1.153-1.797,2.729-3.721,5.256-5.893c0.334-0.267-2.666-5.953-3.009-5.83
		c-2.797,1.281-6.547,2.76-10.719,2.752c-4.503,0.002-6.688-2.043-6.688-4.412c-0.003-1.342,6.141-5.893,9.006-5.887
		c2.872,0.004,10.997,5.112,11.266,4.983c1.166-0.442,3.425-1.66,3.281-1.916c-4.991-8.446-5.878-11.905-5.875-16.446
		c0-7.679,4.506-12.806,7.028-15.56c0.191-0.203-6.15-0.086-8.244-2.049c-1.784-1.676-3.281-3.529-5.025-6.609
		c-0.188-0.36-9.069,2.443-9.169,2.986c-0.484,4.523-1.541,6.963-3.097,8.42c-1.685,1.582-3.231,1.043-3.763,0.545
		c-0.387-0.36-0.719-0.959-0.859-1.629c-0.247-1.492,0.381-4.709,3.472-7.604c1.106-1.037,2.168-1.765,3.038-2.312
		c0.293-0.176,0.387-3.979,0.141-6.021c-0.041-0.402-0.191-0.451-0.479-0.357c-2.412,0.539-4.484,1.131-6.416,1.676
		c-9.706,3.031-12.703,5.56-15.119,7.824c-0.869,0.814-1.688,1.682-2.359,2.584c-0.435,0.59-0.625,0.859-0.484,1.541
		c0.294,1.445,1.209,3.48,3.575,5.695c1.834,1.721,4.438,3.086,6.85,3.176c2.084,0.133,5.163-1.766,5.119-1.09
		c-0.003,1.084-0.484,2.438-1.604,3.481c-2.844,2.666-7.275,1.494-10.656-1.676c-1.931-1.811-3.769-4.711-4.494-8.01
		c-0.094-0.361-0.234-0.492-0.481-0.086c-1.3,2.395-1.734,4.252-1.935,5.881c-0.388,4.25,0.819,8.555,5.6,13.037
		c5.65,5.293,13.234,5.428,16.803,2.08c0.918-0.861,2.271-2.312,2.172-1.582c-0.144,1.494-0.678,3.43-2.753,5.375
		c-2.215,2.078-4.969,2.678-7.09,2.582c-3.338-0.221-6.859-1.902-9.656-4.523c-4.01-3.76-6.082-8.244-6.369-14.028
		c-0.2-3.894,0.816-8,3.082-12.222c0.141-0.313,0.197-0.53,0.244-1.041c0.288-3.627,0.959-10.225,6.759-15.655
		c3.428-3.218,16.891-7.873,16.8-8.244c-0.338-0.938-1.356-3.347-1.541-3.338c-5.262,0.313-9.275-1.729-11.3-3.627
		c-2.025-1.896-2.997-3.806-3.237-5.566c-0.297-2.264,0.291-3.621,1.303-4.566c1.791-1.68,4.881-1.676,8.063,1.312
		c2.947,2.764,5.691,9.504,6.128,9.457c1.456-0.271,3.431-0.771,5.453-1.767c0.438-0.229,0.634-6.377,1.163-8.416
		c0.678-2.895,2.034-4.433,2.565-4.931c1.444-1.354,3.185-1.808,4.484-0.592c0.919,0.861,1.4,2.396,1.063,4.978
		c-0.631,4.57-3.044,7.474-4.688,9.015c-1.009,0.942-1.688,1.397-2.315,1.807c-0.334,0.229-0.188,2.805,0.15,4.301
		c0.047,0.322,7.869-1.766,10.575-3.037c2.356-1.041,4.435-2.168,6.753-4.342c0.34-0.318,0.293-0.449,0.197-0.906
		c-0.775-2.082-1.597-3.662-2.997-6.422c-1.731-3.438-4.2-9.371-1.109-12.266c1.106-1.04,3.278-1.729,5.838,0.674
		c1.043,0.979,1.778,2.344,2.247,3.712c0.263-3.513,1.841-7.275,4.813-10.257c0.303-0.281-1.59-2.203-1.587-3.416
		c-0.003-1.355,1.138-2.988,3.028-3.483c0.609-0.141,1.063,3.771,1.594,3.981c0.528,0.217,0.918,0.076,1.672-0.354
		c2.122-1.211,4.465-2.134,7.737-2.198C-5.761,5.198-1.816,9.466-1.436,15.663c0.003,0.419,0.144,0.486,0.303,0.063
		C0.533,12.024,5.92,5.406,14.793,5.268c3.949-0.07,8.799,4.131,9.181,4.119c1.747,0.003,3.644-2.906,4.022-2.625
		c0.306,0.357,0.609,1.137,0.609,1.995c-0.004,1.705-1.366,3.691-3.422,4.266c-0.451,0.146-0.444,0.073-0.529,0.565
		c-0.146,2.49-2.196,4.122-3.709,4.904c-0.537,0.281-0.76,0.073-0.537-0.354c0.381-0.639-3.334-10.313-8.723-10.31
		c-8.423,0.137-9.781,7.681-9.787,10.81c0.006,2.985,1.066,5.552,2.356,6.899c0.382,0.418,6.603-1.567,6.522-3.911
		c-0.004-1.781-3.875-4.198-3.723-4.764c0.307-1.143,5.01-2.921,6.072-2.496c1.365,0.566,2.203,2.063,2.203,4.415
		c0.068,4.907-9.412,8.461-9.188,8.672c1.9,1.566,4.402,2.139,6.3,2.133c5.315-0.07,6.984-2.629,7.591-3.264
		c0.15-0.291,1.744-6.398,4.094-6.478c2.182-0.006,3.916,1.188,4.4,3.438c0.48-1.315,1.188-2.625,2.189-3.565
		c2.561-2.396,4.734-1.72,5.835-0.686c3.097,2.902,0.628,8.83-1.103,12.27c-1.4,2.763-3.139,7.019-2.804,7.332
		c2.315,2.172,4.394,3.301,6.759,4.349c2.701,1.262,5.697,2.168,9.99,3.395c0.391,0.082,1.07-4.432,0.729-4.666
		c-0.619-0.396-6.377-6.246-7-10.813c-0.337-2.572,0.141-4.117,1.061-4.979c1.299-1.218,3.033-0.764,4.486,0.598
		c0.529,0.492,1.885,2.031,2.563,4.929c0.537,2.039,0.719,8.188,1.154,8.414c2.027,0.998,4.016,1.493,5.459,1.77
		c0.443,0.047,3.189-6.695,6.137-9.461c3.182-2.982,6.27-2.984,8.053-1.309c1.02,0.948,1.607,2.305,1.307,4.563
		c-0.234,1.771-1.205,3.674-3.23,5.572c-2.029,1.902-6.037,3.938-11.301,3.619c-0.193,0-1.584,3.756-1.299,3.846
		c9.887,2.67,13.121,4.527,16.547,7.738c5.799,5.434,6.865,16.383,7.006,16.699c2.268,4.213,3.287,8.325,3.094,12.223
		c-0.295,5.791-2.369,10.268-6.379,14.021c-2.803,2.632-6.322,4.308-9.646,4.529c-2.125,0.094-4.879-0.498-7.098-2.578
		c-2.08-1.951-2.611-3.887-2.758-5.385c-0.092-0.727,1.256,0.721,2.174,1.582c3.576,3.352,11.154,3.211,16.797-2.08
		c4.779-4.482,5.99-8.785,5.607-13.031c-0.191-1.625-2.326-6.155-2.406-5.797c-0.738,3.301-2.566,6.207-4.494,8.019
		c-3.381,3.17-7.828,4.338-10.67,1.676c-1.117-1.049-1.594-2.4-1.602-3.496c-0.045-0.68,3.047,1.229,5.121,1.09
		c2.416-0.09,5.025-1.443,6.855-3.16c2.367-2.219,3.279-4.26,3.566-5.707c0.145-0.68-1.965-3.303-2.848-4.125
		c-2.406-2.26-19.115-8.959-21.521-9.498c-0.291-0.092-0.627,6.201-0.34,6.377c0.865,0.552,1.934,1.271,3.041,2.31
		c3.094,2.897,3.715,6.119,3.477,7.608c-0.156,0.677-0.486,1.263-0.875,1.623c-0.531,0.498-2.074,1.039-3.758-0.539
		c-1.545-1.448-2.617-3.895-3.092-8.418c-0.1-0.539-8.984-3.354-9.172-2.985c-1.736,3.086-3.228,4.932-5.021,6.61
		c-1.574,1.479-4.203,2.935-6.519,2.566c2.353,2.965,4.929,7.303,4.925,13.115c-0.003,4.535-0.894,7.987-5.865,16.438
		c-0.145,0.258,3.684,1.986,3.815,1.863c3.487-3.715,7.856-4.938,10.718-4.934c2.869,0,4.988,0.709,6.492,1.793
		c1.906,1.399,2.521,2.756,2.516,4.098c0.006,2.371-2.176,4.416-6.682,4.416c-4.162,0-11.193-2.945-11.479-2.631
		c-0.809,1.16-1.84,2.817-2.521,4.877c-0.138,0.434,4.365,4.922,5.531,6.713c1.709,2.498,1.906,4.484,1.909,5.186
		c0.003,1.922-0.884,3.396-2.726,3.396c-1.303,0.002-2.793-0.771-4.506-2.813c-3.01-3.653-3.484-7.305-3.487-9.479
		c0.003-1.349,0.141-2.104,0.281-2.816c0.056-0.387-3.825-3.137-4.028-2.813c-2.128,3.709-3.547,6.334-4.512,9.021
		c-0.897,2.307-1.5,4.488-1.498,7.554c0,0.444,0.135,0.52,0.541,0.774c2.113,0.953,3.895,1.529,6.969,2.56
		c3.825,1.276,10.041,3.84,10.031,7.938c0.004,0.205-0.021,0.41-0.072,0.629c3.21-3.656,6.936-6.729,11.176-8.867
		c0.494-0.264,13.646-11.834,18.99-12.774c3.656-0.605,7.293-0.076,12.682,2.266c0.453,0.182,3.58-6.408,3.268-6.627
		c-4.709-3.621-6.893-8.502-6.475-12.938c0.24-2.598,1.154-4.76,2.178-6.34c1.859-2.768,3.836-4.131,5.547-4.377
		c4.445-0.606,5.602,4.834,5.242,8.771c-0.311,3.281-2.941,11.896-2.563,12.188c2.277,1.604,5.008,2.806,8.268,3.605
		c0.709,0.174,9.803-6.604,12.473-6.873c2.918-0.275,3.563,1.57,3.469,2.529c-0.072,0.694-0.42,1.594-1.004,2.426
		c-1.344,1.754-5.115,4.609-10.449,5.164c-1.912,0.217-3.451,0.145-4.676,0.026c-0.402-0.041-6.549,6.912-6.236,7.044
		c2.381,1.301,21.953,7.534,26.148,7.174c1.52-0.113,5.889-1.027,6.484-1.822c1.297-1.687,2.707-4.467,3.197-8.646
		c0.357-3.268-0.262-6.813-2.053-8.934c-1.48-1.875-5.84-2.479-5.094-3.146c1.105-1.125,2.879-2.134,4.816-2.283
		c4.986-0.334,7.258,4.633,6.605,10.688c-0.381,3.426-5.219,12.416-4.605,12.209c3.523-1.301,5.809-2.78,7.656-4.234
		c4.768-3.878,8.336-9.151,9.25-17.729c1-10.293-4.895-17.113-11.182-16.746c-1.613,0.097-4.156,0.447-3.338-0.238
		c1.635-1.438,4.051-3.022,7.693-3.237c3.916-0.207,6.719,1.629,8.328,3.606c2.443,3.197,3.521,8.025,3.021,13.125
		c-0.75,7.234-3.814,13.457-9.662,19.41c-3.939,3.992-9.057,7.221-15.209,9.533c-0.259,0.117-4.31,3.373-9.479,6.342H69.572
		c1.18-1.506,2.387-3.253,2.17-3.355c-4.4-1.848-7.521-3.055-10.775-3.635c-2.777-0.565-9.943,0.25-10.328,0.826
		c-1.066,2.053-1.874,3.844-2.877,6.164H26.463c0.234-0.166,0.418-0.352,0.514-0.553c-3.506-2.588-6.184-5.951-7.475-10.16
		c-0.145-0.381-0.275-0.449-0.754-0.896c-5.334-4.678-6.696-9.149-6.689-13.375c0.002-2.887,0.891-5.819,3.408-10.313
		c0.207-0.383,0.141-0.512-0.268-0.699c-1.432-0.573-2.801-1.09-4.025-1.533c-0.344-0.063-0.406-0.063-0.615,0.188
		c-3.42,4.035-7.51,6.146-10.929,6.145c-1.628-0.006-2.953-0.387-4.003-0.93c-2.719-0.799-5.625-2.729-8.147-5.709
		c-0.207-0.256-0.275-0.258-0.622-0.197c-1.234,0.451-2.594,0.967-4.031,1.533c-0.406,0.189-0.472,0.328-0.272,0.703
		c2.531,4.488,3.413,7.424,3.422,10.31c0,4.225-7.306,13.895-7.447,14.271c-1.435,4.676-4.569,8.328-8.666,11.01
		c-0.1,0.07-0.211,0.14-0.316,0.207h-17.983c-1.645-3.547-3.553-7.229-3.986-7.309c-3.853-0.765-6.509-0.521-9.281,0.049
		c-3.256,0.586-11.125,4.072-10.837,4.438c0.577,0.854,1.415,1.915,2.201,2.818h-44.095c-3.35-1.976-6.028-4.172-7.927-5.768
		C-122.92,135.275-123.198,135.088-123.636,134.889z M31.539,66.563c2.412-2.265,6.9-3.492,12.356-2.906
		c0.341,0.053,0.388,0.01,0.578-0.271c0.528-1.131,1.106-2.396,1.685-3.746c0.146-0.414,0.1-0.545-0.334-0.684
		c-5.166-1.496-8.007-2.984-10.182-5.023c-3.185-2.983-5.6-7.061-5.359-13.893c-0.004-0.637,0.053-0.771-0.15-1.135
		c-2.027-3.438-2.709-7.131-2.469-10.859c-0.844,1.313-1.949,2.006-2.178,2.188c-0.372,0.145-0.685-0.002-0.521-0.433
		c0.146-0.502,0.228-1.705-0.232-2.481c-0.524-0.783-1.438-1.222-2.73-1.146c-0.45,0-0.832,0.354-1.06,0.711
		c-2.05,3.558-6.601,5.687-10.243,5.763C3.727,32.793-2.419,27.671-1.97,20.91c0.082-0.419-0.234-0.495-0.375,0.076
		c-0.912,3.706-2.881,5.401-4.321,6.117c-0.534,0.205-0.837-0.146-0.46-0.505c1.145-1.065,2.729-2.979,2.654-7.033
		c-0.15-7.477-4.704-12.097-11.31-11.877c-1.584,0-3.025,0.275-4,0.999c-0.763,0.489-1.144,0.85-1.147,2.271
		c0,2.417,1.138,4.626,3.716,4.629c0.378-0.009,0.609-0.073,0.913-0.22c0.447-0.22,0.753-0.009,0.675,0.504
		c-0.603,2.479-2.35,3.694-4.325,3.765c-1.965-0.006-4.012-1.21-4.09-4.406c-0.003-1.219,0.231-2.35,0.528-3.413
		c0.156-0.489-0.153-0.646-0.609-0.22c-1.59,1.277-2.803,3.838-2.725,7.254c0.075,5.622,4.016,10.813,9.934,10.663
		c2.816,0.009,4.85-1.846,4.856-4.684c0.003-1.494-0.462-2.707-1.138-3.275c-0.459-0.354-0.375-0.923-0.075-1.43
		c0.303-0.633,1.365-1.846,2.881-1.84c1.744,0.006,2.807,1.494,2.807,3.48c0.081,3.983-4.244,7.036-4.781,7.396
		c-0.303,0.15-0.525,0.357-0.069,0.719c0.906,0.773,1.284,1.842,1.134,3.334c-0.153,0.717-0.609,0.715-0.909,0.217
		c-0.994-1.28-2.81-1.565-4.56-1.063c-0.981,0.209-1.656,0.279-2.725,0.272c-4.409,0.062-8.028-2.405-9.694-6.063
		c0.066,3.4-0.697,6.768-2.543,9.908c-0.191,0.356-2.322,12.026-5.509,15.02c-2.175,2.039-5.022,3.531-10.185,5.031
		c-0.431,0.131,1.597,4.742,1.931,4.701c5.457-0.588,9.947,0.637,12.359,2.896c1.397,1.312,2.45,5.111,2.413,5.619
		c1.509-3.223,3.484-5.895,5.906-7.949c4.572-3.914,9.413-5.698,15.091-5.698c3.44,0.006,6.668,0.909,9.125,2.479
		c2.35-1.266,5.287-1.981,8.359-1.979c5.656-0.009,10.506,1.793,15.078,5.692c2.662,2.271,4.766,5.299,6.318,8.967
		C29.18,71.031,30.143,67.873,31.539,66.563z M-21.539,98.219c1.707-1.274,4.513-4.037,4.438-4.352
		c-0.2-0.963-0.416-2.18-0.409-3.65c0-4.092,1.978-6.785,3.284-7.678c0.603-0.393,1.288-0.578,1.837-0.578
		c0.756,0,2.25,0.633,2.25,2.881c0.003,2.051-1.09,4.479-4.168,7.998c-0.334,0.447,3.828,8.32,4.237,8.191
		c3.553-1.021,6.01-1.351,8.531-1.349c1.188,0.013,2.56,0.218,3.797,0.662c1.703,0.177,6.318,1.252,6.594,0.933
		c1.494-1.922,3.825-7.488,3.479-7.943c-3.072-3.51-4.166-5.941-4.16-7.992c0-2.24,1.494-2.885,2.25-2.879
		c0.547,0,1.238,0.189,1.844,0.574c1.291,0.893,3.279,3.58,3.279,7.682c0,1.47-0.213,2.687-0.406,3.652
		c-0.076,0.313,2.721,3.068,4.434,4.346c0.341,0.26,0.479,0.199,0.609-0.057c1.294-1.994,2.325-3.781,3.278-5.445
		c4.569-8.582,4.781-12.354,4.784-15.555c-0.01-1.15-0.479-4.414-1.097-4.795c-1.304-0.836-3.481-1.668-6.828-1.67
		c-2.594-0.006-5.462,0.77-7.237,2.309c-1.566,1.285-2.325,4.666-2.797,4.154c-0.816-0.771-1.497-2.043-1.5-3.521
		c-0.004-3.768,4.021-5.887,8.813-5.883c2.722-0.004,9.762,2.879,9.625,2.437c-0.896-2.566-1.981-4.166-3.078-5.439
		c-2.935-3.268-7.031-5.508-13.797-5.506c-3.072-0.002-5.756,0.738-7.916,1.904c0.678,1.157,1.156,2.555,1.16,4.188
		c0.002,2.752-1.101,4.469-2.116,5.642c-0.481,0.563-0.351-1.361-0.344-2.57c-0.007-1.652-0.7-3.32-1.903-4.793
		c-1.487,1.59-2.324,3.457-2.322,5.299c0,1.211,0.132,3.123-0.346,2.547c-1.022-1.146-2.109-2.871-2.109-5.623
		c-0.01-1.979,0.699-3.604,1.615-4.883c-2.229-1.336-5.084-2.215-8.385-2.213c-6.756,0.006-10.862,2.229-13.791,5.506
		c-1.094,1.283-3.009,5.889-2.669,5.701c3.01-1.857,6.491-2.688,9.216-2.699c4.784,0.006,8.815,2.121,8.822,5.893
		c-0.006,1.476-0.69,2.75-1.516,3.523c-0.475,0.504-1.228-2.883-2.791-4.162c-1.775-1.533-4.644-2.307-7.237-2.307
		c-3.354-0.002-5.525,0.832-6.832,1.668c-0.616,0.383-1.094,3.649-1.094,4.795c0.003,3.203,0.2,6.979,4.778,15.557
		C-24.473,94.381-21.873,98.477-21.539,98.219z"/>
	<path fill="#898989" d="M5.455-22.874c0,1.948-2.313,19.421-5.162,19.427c-2.842-0.006-5.166-17.481-5.16-19.427
		c0.004-1.938,2.316-3.513,5.162-3.513C3.146-26.393,5.458-24.808,5.455-22.874z"/>
	<path fill="#898989" d="M158.502,17.981v8.116c-0.383-1.002-0.693-2.106-0.865-3.352C157.332,20.366,157.721,18.878,158.502,17.981
		z"/>
</symbol>
<use xlink:href="#DAMASK"  width="317.004" height="283.018" x="-158.502" y="-141.509" transform="matrix(0.3155 0 0 -0.3155 159.0002 142)" overflow="visible"/>
</svg>
